<?xml version="1.0" encoding="UTF-8" standalone="no"?>
<!-- Created with Inkscape (http://www.inkscape.org/) -->

<svg
   xmlns:dc="http://purl.org/dc/elements/1.1/"
   xmlns:cc="http://creativecommons.org/ns#"
   xmlns:rdf="http://www.w3.org/1999/02/22-rdf-syntax-ns#"
   xmlns:svg="http://www.w3.org/2000/svg"
   xmlns="http://www.w3.org/2000/svg"
   xmlns:sodipodi="http://sodipodi.sourceforge.net/DTD/sodipodi-0.dtd"
   xmlns:inkscape="http://www.inkscape.org/namespaces/inkscape"
   id="svg3336"
   version="1.1"
   inkscape:version="0.91 r13725"
   width="593.4375"
   height="577.5"
   viewBox="0 0 593.4375 577.5"
   sodipodi:docname="Divider2.svg">
  <metadata
     id="metadata3342">
    <rdf:RDF>
      <cc:Work
         rdf:about="">
        <dc:format>image/svg+xml</dc:format>
        <dc:type
           rdf:resource="http://purl.org/dc/dcmitype/StillImage" />
        <dc:title></dc:title>
      </cc:Work>
    </rdf:RDF>
  </metadata>
  <defs
     id="defs3340" />
  <sodipodi:namedview
     pagecolor="#ffffff"
     bordercolor="#666666"
     borderopacity="1"
     objecttolerance="10"
     gridtolerance="10"
     guidetolerance="10"
     inkscape:pageopacity="0"
     inkscape:pageshadow="2"
     inkscape:window-width="1600"
     inkscape:window-height="837"
     id="namedview3338"
     showgrid="false"
     inkscape:zoom="1.1601732"
     inkscape:cx="296.71875"
     inkscape:cy="288.75"
     inkscape:window-x="-8"
     inkscape:window-y="-8"
     inkscape:window-maximized="1"
     inkscape:current-layer="svg3336" />
  <path
     style="fill:#000000"
     d="m 241.66732,576.74758 c -4.1134,-1.68122 -8.15205,-6.91701 -10.10164,-13.09602 l -1.99024,-6.30781 2.50376,-5.46764 c 3.5665,-7.78839 6.14609,-9.16996 16.82705,-9.01217 4.64063,0.0685 9.37375,0.085 10.51807,0.0366 4.50635,-0.1907 11.97419,-16.28943 8.57344,-18.48213 -0.70345,-0.45352 -6.76339,-0.82462 -13.46651,-0.82462 -13.36109,0 -16.13168,-0.76954 -19.58949,-5.44103 -1.67871,-2.26793 -2.01181,-4.40307 -2.42807,-15.56326 -0.29522,-7.91528 -0.91419,-13.45331 -1.59501,-14.27106 -0.61191,-0.73499 -2.72128,-1.90988 -4.6875,-2.61088 -5.12294,-1.82645 -8.73118,-4.60854 -8.73118,-6.73207 0,-2.78843 4.14755,-3.92597 11.67379,-3.20175 11.64965,1.12101 21.08038,5.64582 22.95095,11.01175 0.55015,1.57814 1.00672,5.44311 1.01461,8.58882 0.0157,6.27084 0.39989,7.26038 3.43964,8.86039 2.98532,1.57134 5.72532,1.32023 6.76362,-0.61986 1.86899,-3.49222 -8.05713,-24.45453 -17.1721,-36.26461 -4.93206,-6.39038 -16.17771,-19.67973 -17.77518,-21.00551 -3.01732,-2.50416 -1.70139,-6.03065 7.85467,-21.04934 l 9.375,-14.73412 0,-15.32156 c 0,-14.36759 0.17258,-15.86868 2.7718,-24.10873 3.14087,-9.95718 6.95835,-17.85926 13.46775,-27.87791 2.46688,-3.79679 4.21667,-7.17179 3.88842,-7.5 -1.11361,-1.11354 -18.65032,-0.0166 -20.70391,1.295 -1.09021,0.69632 -4.97503,5.82897 -8.63293,11.40589 -11.37718,17.3459 -15.53772,22.8601 -18.393,24.37732 -4.54564,2.41542 -12.48765,10.5108 -17.92669,18.2729 -7.19269,10.26474 -9.41046,14.51707 -11.18378,21.44376 -2.18967,8.55297 -5.90757,15.88961 -8.05219,15.88961 -4.42366,0 -6.50805,-11.18223 -7.68908,-41.25 -1.39932,-35.62544 -1.36862,-36.4127 1.91964,-49.21875 1.58879,-6.1875 3.5827,-14.8562 4.4309,-19.26377 l 1.54218,-8.01378 -3.89474,-7.22059 c -2.1421,-3.97134 -4.45692,-7.22061 -5.14404,-7.22061 -0.68711,0 -5.26012,7.71226 -10.16226,17.13835 -7.97641,15.33748 -9.07898,18.07115 -10.49284,26.01563 -0.86893,4.8825 -1.97469,11.04493 -2.45725,13.69429 -1.02215,5.61183 -3.44828,8.34811 -6.60958,7.45456 -2.60038,-0.73502 -10.53004,-10.32127 -12.56361,-15.18828 -0.80781,-1.93335 -1.85955,-5.65394 -2.33721,-8.26799 -0.91307,-4.99693 -3.32637,-27.95653 -4.19484,-39.90906 -0.76075,-10.46986 -0.91961,-10.8791 -4.83982,-12.46761 -3.89216,-1.57714 -15.09628,-12.04876 -16.7853,-15.68792 -0.59049,-1.27227 -2.199764,-4.73127 -3.576164,-7.68667 -1.376409,-2.95539 -3.935194,-7.45614 -5.686201,-10.00165 -6.007153,-8.73287 -5.381303,-10.58273 3.934792,-11.63028 2.666831,-0.29987 7.046863,-1.65906 9.733373,-3.02042 6.80635,-3.44904 15.40364,-6.12457 21.62854,-6.73092 l 5.27321,-0.51365 0.45373,-6.20856 c 0.54721,-7.48782 3.37353,-15.87596 5.58589,-16.57814 1.03395,-0.32816 3.83104,1.23517 7.8232,4.37249 4.64835,3.65299 7.72264,7.20833 12.20268,14.11205 6.56092,10.11037 8.65469,11.33949 11.13753,6.53819 3.72235,-7.19822 17.20912,-15.1574 25.64004,-15.1314 6.19796,0.0191 14.05634,5.30567 16.17664,10.88248 1.26988,3.34002 3.64682,2.75429 7.98119,-1.96674 2.13028,-2.32031 4.54962,-4.21875 5.3763,-4.21875 3.40635,0 6.38085,4.30741 10.30598,14.92423 2.17685,5.88802 4.47705,10.87747 5.11156,11.08768 0.63452,0.21021 2.53296,-1.10598 4.21875,-2.92485 3.06829,-3.3105 10.54502,-7.14956 13.92407,-7.14956 3.33391,0 1.82992,1.68241 -4.06211,4.54402 -3.22265,1.56515 -6.52032,3.39788 -7.32815,4.07273 -1.4883,1.2433 -5.49218,8.44173 -7.34563,13.20643 -1.11586,2.86857 -3.4671,4.23906 -4.86846,2.8377 -0.49532,-0.49532 -1.31831,-3.60993 -1.82886,-6.92135 -0.51057,-3.31143 -1.82572,-9.49132 -2.92258,-13.73309 -2.14536,-8.29659 -4.50798,-11.63614 -7.08304,-10.01184 -2.14347,1.35206 -9.2261,15.37673 -10.54781,20.88623 -0.61376,2.5584 -1.94499,5.40195 -2.9583,6.31899 -1.66377,1.50569 -2.47617,1.55865 -8.37998,0.54625 -8.68592,-1.48946 -13.5629,-1.41353 -21.07269,0.32811 -3.87585,0.89886 -7.80989,1.21506 -10.35987,0.83267 -5.73219,-0.8596 -6.37866,1.19889 -1.92477,6.12882 4.03403,4.46518 7.17526,10.48569 11.03161,21.14324 1.77968,4.91837 4.29274,9.6643 6.57053,12.4085 2.02873,2.44411 3.93386,5.40249 4.23362,6.57418 0.32298,1.26239 -0.86156,6.36468 -2.90742,12.52341 -5.70515,17.17438 -7.076,23.69594 -7.0509,33.54309 0.0126,4.94486 0.49745,10.8891 1.07743,13.20941 0.60378,2.41552 0.98679,10.70185 0.89607,19.38636 -0.0872,8.34218 0.21041,15.39556 0.66123,15.67419 0.45083,0.27862 3.09588,-3.35302 5.87789,-8.07032 3.92173,-6.64986 8.25168,-11.87589 19.27173,-23.26006 14.39387,-14.86947 18.15224,-19.80237 24.89915,-32.68047 2.05837,-3.92889 4.28751,-7.71816 4.95365,-8.42058 0.94706,-0.99865 4.98171,-1.24577 18.50373,-1.13329 21.00011,0.17466 20.16874,0.64389 18.55574,-10.4731 -1.32687,-9.14497 -3.29489,-18.18053 -5.32468,-24.44662 -2.04364,-6.30889 -1.0613,-11.40761 3.58198,-18.59166 2.10183,-3.25194 4.03493,-7.50378 4.29577,-9.44854 0.45365,-3.38214 0.35678,-3.53568 -2.22729,-3.53048 -6.51334,0.0131 -14.35682,2.11452 -23.03701,6.17209 -10.37068,4.84778 -11.65393,4.70731 -10.64915,-1.16574 1.76097,-10.29305 10.70454,-20.01488 19.64615,-21.35576 2.34492,-0.35165 4.51449,-1.04549 4.82128,-1.54188 0.30679,-0.49639 -0.52713,-2.19188 -1.85315,-3.76776 -1.32602,-1.57589 -2.41094,-3.61561 -2.41094,-4.53272 0,-0.91712 -2.54072,-4.44024 -5.64605,-7.82915 -4.90343,-5.35124 -7.23644,-6.95891 -17.73784,-12.22314 -13.29782,-6.66604 -19.68976,-11.07924 -22.85963,-15.783 -3.92376,-5.82247 -14.36495,-12.21906 -36.49199,-22.35611 -4.64226,-2.12674 -10.07699,-7.74032 -10.07699,-10.40857 0,-3.05367 2.29486,-3.84191 8.07463,-2.77346 6.95611,1.28591 17.44484,1.27035 25.96454,-0.0385 3.70814,-0.56967 6.91342,-1.19803 7.12283,-1.39637 0.20941,-0.19833 -2.40133,-2.90986 -5.80162,-6.02561 -9.04623,-8.28922 -10.35106,-13.86779 -7.61943,-32.57552 0.37967,-2.60025 0.17752,-4.49223 -0.57715,-5.40154 -3.15101,-3.7967 -35.20066,-14.50266 -43.41567,-14.50266 -3.9498,0 -4.29161,0.44075 -5.00354,6.45197 -0.48049,4.05698 -0.27498,4.86675 1.68214,6.62791 1.22624,1.10345 4.54408,4.14033 7.37297,6.74862 2.8289,2.60828 7.99687,6.5882 11.48438,8.84425 8.42663,5.45117 8.43313,8.99789 0.0214,11.67118 -1.93831,0.61601 -8.44073,3.18124 -14.44984,5.70054 -6.00912,2.51929 -11.57748,4.58053 -12.37417,4.58053 -2.00754,0 -5.38803,4.79181 -9.37724,13.29216 -1.85801,3.95912 -3.76091,7.43492 -4.22867,7.72401 -0.46776,0.28909 -1.14038,2.071 -1.49472,3.95979 -0.73259,3.90504 -10.02923,23.04694 -14.82184,30.51835 -5.0231,7.83075 -20.389358,22.87168 -22.527966,22.05102 -1.378193,-0.52886 -2.508466,-7.188 -2.522846,-14.86364 -0.01565,-8.35147 -2.903841,-21.06224 -9.957261,-43.8213 -2.09253,-6.75191 -2.344889,-8.82468 -1.792324,-14.72136 l 0.643114,-6.86299 -3.122714,-1.31286 c -4.894954,-2.05794 -11.225994,-6.34753 -17.11465,-11.596 -6.211028,-5.5358 -6.314978,-6.97459 -0.807408,-11.17541 1.874614,-1.42984 7.073478,-6.2134 11.553032,-10.63012 8.076052,-7.96277 8.149722,-8.07777 8.747714,-13.6554 0.331689,-3.09375 1.015832,-7.523437 1.520319,-9.84375 0.504486,-2.320312 1.160736,-6.222656 1.458332,-8.671875 0.776177,-6.387946 2.096599,-6.13528 13.082447,2.503358 1.546875,1.216375 4.676757,3.629242 6.955285,5.361928 2.949616,2.243008 5.127766,5.128933 7.562716,10.020169 3.04846,6.12365 4.92384,8.53969 6.66347,8.58457 1.15345,0.0297 12.09977,-11.301406 12.09977,-12.525172 0,-0.730987 -1.90863,-1.799053 -4.45312,-2.491959 C 111.28182,93.410886 105.35126,90.299955 98.322759,84.59136 89.539223,77.457314 87.873887,75.579354 86.71875,71.505802 85.955922,68.815714 84.645881,67.528259 79.6875,64.595779 76.335937,62.613602 72.661206,60.574505 71.52143,60.064452 70.381653,59.5544 66.37384,57.376929 62.61518,55.22563 58.856518,53.07433 53.25,50.019947 50.15625,48.438111 45.936492,46.280545 40.725386,41.762331 29.296875,30.352287 15.184725,16.26294 12.576782,13.125 14.979274,13.125 c 1.658204,0 17.803918,11.479604 24.683297,17.549826 3.709023,3.272765 7.798366,6.176485 9.087429,6.45271 1.289062,0.276226 3.312819,0.894906 4.497237,1.374847 1.184418,0.479939 3.082855,0.921555 4.21875,0.981368 1.586349,0.08353 1.684818,0.208172 0.424638,0.537492 -1.922136,0.502306 -2.147947,2.453134 -0.447323,3.864525 2.06174,1.711093 12.062254,6.739232 13.403724,6.739232 0.754059,0 1.059495,-0.578868 0.741998,-1.40625 -1.218449,-3.175229 2.996947,-1.154875 7.255739,3.477529 l 4.489894,4.883779 0.988922,-2.60106 c 0.543907,-1.430582 1.002956,-3.100939 1.020111,-3.711904 0.01716,-0.610964 0.808533,-0.179565 1.758617,0.958664 C 89.318902,54.881304 90,54.119422 90,48.984375 c 0,-2.894864 0.352574,-4.023647 1.171875,-3.751817 1.286573,0.426864 2.400352,6.225157 2.508635,13.059852 0.03884,2.451494 0.656393,4.97306 1.400074,5.716742 0.731813,0.73182 4.104488,1.589613 7.494816,1.906208 11.20069,1.045936 13.2843,3.893588 3.59648,4.915264 -3.48047,0.367049 -7.294327,1.029453 -8.47523,1.472009 -1.830947,0.686164 -1.9938,1.091104 -1.105941,2.750069 1.942763,3.630087 19.239881,13.427059 28.799921,16.312083 2.89451,0.873507 5.85937,-0.219859 5.85937,-2.16079 0,-1.11392 -1.36666,-1.997226 -4.45312,-2.878161 -7.16857,-2.046045 -18.25483,-7.420753 -17.84466,-8.651237 0.20507,-0.615213 5.30596,-3.028095 11.33532,-5.361963 10.57056,-4.091696 13.01955,-6.01696 9.32183,-7.328307 -0.90234,-0.320004 -2.40418,-1.255982 -3.33742,-2.079952 -0.93323,-0.823969 -5.15198,-3.185625 -9.375,-5.248125 l -7.6782,-3.75 L 108.75,40.576689 C 108.13175,22.995826 108.36973,23.247026 95.982131,27.099817 89.708794,29.050948 85.390083,31.043118 82.60244,33.271705 80.338469,35.081643 78.006558,36.5625 77.420415,36.5625 75.99792,36.5625 72.644698,34.221369 67.391894,29.560853 60.685987,23.61108 36.351665,14.142111 27.599638,14.076893 26.537251,14.069018 22.951313,12.991786 19.630888,11.683135 16.310462,10.374485 12.884718,9.4835906 12.018122,9.7033697 11.151527,9.9231497 9.4872731,9.086182 8.3197797,7.8434425 7.1522866,6.600703 4.9368897,5.2573719 3.3966756,4.8582623 -0.06809354,3.9604505 -0.73222042,2.332842 1.8108602,0.97182656 3.3160748,0.16626021 4.7079426,0.34838711 8.1959527,1.8073205 10.649116,2.8334077 15.398438,4.361088 18.75,5.2021657 22.101562,6.0432435 27.164062,7.485094 30,8.4062781 c 2.835937,0.9211841 9.796875,3.0430349 15.46875,4.7152229 5.671875,1.672189 10.734375,3.350531 11.25,3.729647 0.515625,0.379117 2.26675,1.135857 3.891389,1.681645 1.62464,0.545787 5.890988,2.92731 9.480777,5.292273 3.589788,2.364964 7.062305,4.299934 7.716703,4.299934 0.6544,0 2.505238,-0.810567 4.112974,-1.801261 1.607737,-0.990693 6.298157,-2.946112 10.423157,-4.345375 4.125,-1.399264 8.34375,-3.299611 9.375,-4.222993 2.66363,-2.385025 6.74363,-3.22366 8.51819,-1.750901 2.65081,2.199972 5.09633,8.263504 5.50592,13.651645 0.52,6.840413 1.2123,7.477597 6.51216,5.993729 4.76093,-1.332979 10.093,-0.684415 11.85806,1.442348 0.94942,1.143991 0.87714,2.657789 -0.37455,7.843705 -2.63321,10.909783 -2.27379,13.019982 3.20044,18.789835 l 4.75148,5.008062 -2.6421,2.161588 c -2.49787,2.043581 -8.43007,5.196895 -13.15939,6.994977 -4.6123,1.753594 -1.15465,4.816233 6.85863,6.07508 3.39784,0.533785 4.22391,0.267551 7.15501,-2.305991 5.22873,-4.590882 7.83396,-3.598047 8.38692,3.196189 l 0.30423,3.738113 4.45312,0.285742 c 3.32554,0.213388 4.45313,-0.04618 4.45313,-1.025109 0,-2.057927 -3.6339,-12.094382 -4.96996,-13.726521 -5.11709,-6.251054 -6.31038,-13.650493 -5.27438,-32.705769 0.93329,-17.166291 1.98298,-23.376276 4.08787,-24.184001 0.68489,-0.262819 3.18166,0.432365 5.54838,1.544851 3.87741,1.822595 6.57257,4.366707 12.32684,11.635954 1.74356,2.202608 2.15985,2.302229 5.93846,1.421133 2.23491,-0.521133 8.77397,-0.839206 14.53125,-0.706828 7.84632,0.180413 11.80621,-0.169321 15.81225,-1.396525 6.46369,-1.980078 12.93498,-7.516183 16.83423,-14.401483 1.57992,-2.789819 3.59068,-5.046067 4.77246,-5.3551071 2.57843,-0.6742754 5.3926,1.7613521 5.3926,4.6672301 0,5.877164 -19.03253,27.509296 -30.9375,35.163188 -9.01549,5.796192 -10.34219,6.531317 -16.6223,9.210419 -3.38395,1.443594 -8.41109,4.426864 -11.17142,6.629489 -4.83495,3.858079 -5.01878,4.172482 -5.01878,8.583345 0,5.721714 3.2985,12.445437 7.84953,16.000617 5.74702,4.489463 7.12688,3.825291 22.49564,-10.827917 3.67734,-3.506136 9.24569,-7.872904 12.37411,-9.70393 l 5.68802,-3.329139 1.52852,-8.577319 c 0.8407,-4.717527 1.79453,-10.346002 2.11965,-12.507725 0.3251,-2.161723 1.21766,-4.4504 1.98345,-5.085948 1.84013,-1.527176 10.14229,-1.253345 17.97561,0.592892 12.12684,2.858173 14.14635,3.267211 16.131,3.267211 1.12052,0 5.03959,-2.648576 8.89672,-6.012555 8.14727,-7.105628 16.32102,-11.857992 27.61999,-16.058768 4.53163,-1.684787 11.39247,-4.579845 15.24629,-6.433463 3.85383,-1.853617 7.6166,-3.370214 8.36172,-3.370214 0.74511,0 1.75553,-0.372419 2.24537,-0.827598 1.55942,-1.4490617 17.43444,-6.672402 20.27908,-6.672402 3.71263,0 8.2678,2.4891819 8.2678,4.5179515 0,1.0695715 -3.7073,4.1253565 -10.45394,8.6167995 -14.28133,9.507501 -18.90662,16.286346 -23.67983,34.705297 -3.50529,13.526277 -6.96018,22.154564 -9.55066,23.851905 -2.79783,1.833214 -2.94766,5.458766 -0.45531,11.017343 0.98877,2.2052 2.62884,6.962579 3.64461,10.571954 2.53499,9.00776 2.19004,9.32136 -11.81933,10.74506 -6.03173,0.61298 -11.8449,1.28396 -12.91815,1.49105 -1.42856,0.27566 -2.91254,2.58014 -5.53893,8.60147 -1.97316,4.52371 -5.31379,11.26922 -7.42364,14.99003 -5.60559,9.88574 -7.67272,9.3342 -15.42711,-4.11618 -2.13274,-3.69933 -3.87771,-6.9885 -3.87771,-7.30925 0,-0.32075 -1.54643,-3.7107 -3.43653,-7.53323 -3.54089,-7.16111 -6.61727,-9.59681 -10.41801,-8.24839 -3.64977,1.29484 -12.39546,7.20395 -12.39546,8.37512 0,0.69322 1.37109,1.87169 3.04687,2.61881 3.78095,1.68567 8.15899,5.18025 6.52515,5.20841 -0.66507,0.0115 -2.8631,-0.8229 -4.88452,-1.85415 -4.31598,-2.20185 -9.87853,-2.48314 -10.62522,-0.53729 -0.64645,1.68459 0.7402,2.78988 5.37451,4.28399 2.67108,0.86117 6.96315,4.49302 15.9375,13.48597 12.85772,12.88434 19.57534,17.45483 25.65479,17.45483 2.35768,0 3.03342,-0.39773 3.03342,-1.78541 0,-1.25761 -1.79408,-2.68693 -6.06896,-4.83507 -6.10408,-3.0673 -10.70277,-6.92028 -9.58899,-8.03407 0.32969,-0.32969 3.17952,0.9375 6.33294,2.81598 6.81468,4.05949 10.92223,4.71703 12.47478,1.99698 5.85039,-10.24981 8.49468,-13.32472 15.31985,-17.81466 7.61377,-5.00872 11.60921,-6.84561 15.13862,-6.95992 2.6625,-0.0863 7.1827,4.48547 9.66233,9.77242 0.96732,2.0625 2.77003,5.12883 4.006,6.81406 1.23598,1.68523 2.9861,5.48211 3.88916,8.4375 0.90306,2.95539 1.98069,5.82181 2.39475,6.36982 0.4469,0.59149 4.23391,0.95046 9.31919,0.88335 l 8.56637,-0.11303 3.17069,-4.36914 c 3.7891,-5.22132 5.30439,-6.27783 14.45512,-10.0787 6.41379,-2.66405 7.76453,-2.89074 15.59721,-2.61774 6.02064,0.20984 9.09284,0.73191 10.3125,1.75246 4.94872,4.14077 25.07106,7.49399 33.55405,5.59148 10.58686,-2.37435 23.6416,-15.65587 30.85355,-31.38952 4.16684,-9.09039 7.37066,-23.426963 5.62532,-25.172312 -0.33579,-0.335787 -2.97251,0.651233 -5.85937,2.193378 -2.88688,1.542144 -6.38696,3.204299 -7.77795,3.693677 -3.28467,1.155595 -4.93741,3.790561 -8.67188,13.825537 -4.065,10.92314 -14.35776,30.83067 -16.71447,32.32796 -2.19161,1.39239 -6.98164,0.74526 -10.11539,-1.36657 -1.80229,-1.21457 -4.97268,-5.21951 -7.40427,-9.35333 l -4.2524,-7.22929 -8.96844,-0.0217 c -4.93265,-0.0119 -11.47171,-0.5014 -14.53125,-1.08773 -3.05954,-0.58633 -10.62531,-1.09612 -16.81281,-1.13286 -9.08479,-0.0539 -11.88152,0.25792 -14.53125,1.62029 -1.80469,0.9279 -7.65758,3.09195 -13.00642,4.809 -14.52855,4.66384 -15.54997,3.4293 -5.97796,-7.22523 14.97135,-16.66451 21.0213,-24.596371 29.29688,-38.409995 1.28906,-2.151709 5.33914,-7.138801 9.00016,-11.082427 6.46473,-6.963759 6.6754,-7.343887 7.31631,-13.200855 0.36294,-3.316843 1.11985,-7.718123 1.68201,-9.780623 0.56216,-2.0625 1.48857,-8.360946 2.05869,-13.996546 1.00891,-9.973051 1.10386,-10.2645 3.55725,-10.919182 1.94061,-0.517847 4.45238,0.259091 10.91489,3.37619 4.61681,2.226854 8.67606,4.504878 9.02056,5.062276 0.60915,0.985643 8.16381,4.758512 9.52827,4.758512 0.96961,0 12.8282,-4.758888 13.95311,-5.599426 0.51562,-0.385279 4.10156,-2.386334 7.96875,-4.446789 7.23809,-3.85649 22.4999,-7.748933 25.64722,-6.541189 2.26102,0.867631 1.88295,4.488126 -1.00896,9.662331 -2.35314,4.210231 -6.22306,13.989233 -7.43784,18.794901 -0.46856,1.853589 -0.16048,2.020762 3.6187,1.96363 6.2091,-0.09387 11.88578,3.650498 16.67228,10.997095 3.20394,4.91759 4.61563,6.235323 7.81862,7.298211 3.04196,1.009453 3.97121,1.818578 4.19051,3.648781 0.15496,1.293433 -0.37238,2.894587 -1.17188,3.558118 -1.08808,0.903026 -1.45365,3.063679 -1.45365,8.591629 0,6.760208 0.15868,7.385208 1.875,7.385208 1.03125,0 1.875,0.446558 1.875,0.992351 0,1.348911 -8.3905,17.833129 -10.08474,19.812779 -0.74672,0.8725 -1.18738,2.09726 -0.97923,2.72169 0.36894,1.10685 8.49579,-11.12402 9.76729,-14.699742 0.35122,-0.987703 1.36573,-2.639578 2.25448,-3.670828 0.88874,-1.03125 3.71884,-5.882813 6.28912,-10.78125 2.57028,-4.898438 6.495,-11.859375 8.7216,-15.46875 4.64549,-7.530454 5.18291,-11.445865 2.03148,-14.800416 -1.31832,-1.403284 -2.0625,-3.385743 -2.0625,-5.494382 0,-3.992745 0.6398,-4.774245 2.91272,-3.557816 1.44995,0.775988 1.82061,0.506124 2.29879,-1.67361 1.11296,-5.073396 1.56296,-5.510348 2.43501,-2.364401 0.99051,3.573262 1.23385,3.627244 5.26676,1.168371 1.68825,-1.029323 3.65979,-1.871496 4.3812,-1.871496 0.72141,0 2.59191,-1.077257 4.15665,-2.393903 1.56475,-1.316647 3.39009,-2.284333 4.0563,-2.150412 0.66623,0.13392 4.21916,-0.509328 7.89539,-1.429442 l 6.68409,-1.672933 0.63628,-5.624013 c 1.05736,-9.345752 -2.51054,-10.992597 -9.09833,-4.19955 -2.18274,2.250736 -5.72611,5.186766 -7.87418,6.524512 -2.14806,1.337747 -4.17687,2.871235 -4.50846,3.407754 -1.12456,1.819601 -5.63301,0.924654 -9.39847,-1.865643 -5.21327,-3.863159 -10.78073,-6.488918 -13.81027,-6.513281 -1.97322,-0.01587 -2.69835,0.529596 -3.1625,2.378954 -1.18838,4.734855 1.93884,19.596982 5.59463,26.588551 3.29621,6.303884 3.14111,9.115593 -0.80936,14.672012 -1.80469,2.538332 -3.28125,4.911754 -3.28125,5.274273 0,0.918457 -5.52857,9.020367 -6.61238,9.690203 -1.55421,0.960552 -0.98033,-0.785215 2.86238,-8.70746 4.43519,-9.143714 4.59223,-11.750793 1.29742,-21.538009 -2.22882,-6.620713 -4.00101,-19.604721 -4.4493,-32.597863 l -0.12937,-3.75 5.15625,0.11807 c 5.98164,0.136969 15.65115,3.201453 20.50159,6.497417 5.76996,3.920793 7.69287,3.274036 17.06125,-5.738444 7.43546,-7.1529922 8.68033,-7.9970321 11.40735,-7.7343748 2.93313,0.28251 3.07292,0.479023 3.34493,4.7020828 0.24835,3.855781 0.67884,4.651358 3.4404,6.358098 3.61515,2.23429 20.1619,5.640901 27.39924,5.640901 3.22237,0 7.95284,-1.113331 13.94181,-3.28125 10.1502,-3.674224 11.84363,-3.905059 13.55147,-1.847237 1.60238,1.930752 -0.0981,5.665893 -2.99852,6.586462 -1.18374,0.375707 -4.47899,2.406227 -7.32276,4.512267 -13.57852,10.055948 -17.78178,12.27986 -25.05653,13.257193 -2.46894,0.331692 -6.07955,1.203712 -8.02358,1.937821 -1.94403,0.734109 -6.61264,1.334744 -10.37469,1.334744 -15.19051,0 -25.55303,4.21602 -35.56106,14.468127 -5.74022,5.880212 -9.27204,11.268191 -15.17307,23.147267 -1.88952,3.803721 -5.41461,10.344022 -7.83354,14.534009 -2.41892,4.189987 -6.79818,11.783737 -9.73168,16.874997 -11.91184,20.67368 -38.88191,40.6631 -54.86333,40.6631 -1.84426,0 -3.08289,0.47115 -3.08084,1.17187 0.002,0.64454 1.25301,4.33594 2.78023,8.20313 1.52724,3.86719 2.79777,8.71875 2.82341,10.78125 0.0257,2.0625 0.45013,4.38281 0.94329,5.15625 0.73574,1.15387 1.44821,0.7393 3.97002,-2.31004 1.69035,-2.04395 4.33898,-5.82097 5.88586,-8.39337 1.54687,-2.57241 5.13281,-6.5316 7.96875,-8.79822 2.83594,-2.26662 8.70774,-7.34898 13.04845,-11.29413 8.77427,-7.97468 10.08279,-8.74717 12.59832,-7.43752 2.41639,1.25805 1.6593,4.2662 -3.88868,15.45064 -4.91095,9.90026 -8.5061,19.02819 -10.98201,27.8829 -0.85644,3.06296 -2.99862,8.43132 -4.76038,11.92972 -1.76176,3.49839 -3.2032,6.77479 -3.2032,7.28088 0,0.50609 1.67573,2.73146 3.72383,4.94527 6.45622,6.97857 12.21367,21.34905 12.21367,30.48507 0,2.60436 -3.52914,4.53917 -9.8561,5.40349 -2.57133,0.35127 -6.1435,1.30179 -7.93815,2.11228 -1.79464,0.81049 -5.55419,1.72407 -8.35455,2.0302 l -5.09155,0.55658 -1.6177,5.625 c -0.88974,3.09375 -2.29556,6.89062 -3.12404,8.4375 -0.8285,1.54687 -1.50896,3.20902 -1.51213,3.69365 -0.003,0.48462 -1.66382,3.64868 -3.69031,7.03125 -3.55249,5.92968 -9.04199,22.3838 -12.6232,37.83652 -1.41872,6.12167 -6.33957,18.60765 -8.29521,21.04795 -1.30734,1.63133 -5.86064,1.46628 -7.29705,-0.26448 -0.88382,-1.06495 -1.03948,-3.91345 -0.60197,-11.01563 0.68378,-11.09989 -0.30387,-17.75104 -4.16442,-28.04417 -4.13792,-11.03267 -5.35443,-16.64206 -6.95009,-32.04722 -2.06576,-19.9438 -2.26398,-20.49715 -9.86273,-27.53242 -7.21087,-6.67615 -14.9583,-16.46578 -14.9583,-18.90125 0,-0.88207 1.79297,-3.73014 3.98437,-6.32904 2.19141,-2.59889 7.0829,-8.47993 10.86998,-13.06897 l 6.88559,-8.34369 -0.53136,-6.62947 c -0.29225,-3.6462 -1.3565,-9.28065 -2.36502,-12.52098 -2.41908,-7.77255 -1.94071,-8.87532 3.56594,-8.22032 7.92858,0.94309 12.89082,3.88319 21.87233,12.95928 6.34104,6.40781 8.64537,8.21392 9.254,7.25323 1.10539,-1.74477 1.02757,-3.30076 -0.44088,-8.81471 -2.36007,-8.86194 -7.79407,-15.38303 -16.40638,-19.68854 -6.37213,-3.18557 -10.5556,-3.73743 -17.53747,-2.31344 -4.79331,0.97763 -6.20181,1.79709 -10.24485,5.96045 -3.13683,3.23018 -5.58404,6.99794 -7.39764,11.3895 -2.64623,6.40773 -2.7253,7.09316 -3.35259,29.0625 l -0.64245,22.5 3.03909,5.625 c 9.87918,18.2852 8.92211,36.7565 -2.32309,44.83537 -6.70407,4.81639 -9.52098,6.07312 -15.92404,7.1043 -3.16645,0.50995 -6.18532,1.19177 -6.70859,1.51517 -0.52326,0.3234 -2.26377,3.19398 -3.86779,6.37908 -1.60401,3.18509 -4.96957,8.99728 -7.47902,12.91598 -2.50945,3.91869 -4.56294,7.50463 -4.56331,7.96875 -3.8e-4,0.46412 -2.16261,4.42979 -4.80497,8.8126 -2.64237,4.38281 -5.28623,8.8125 -5.87526,9.84375 -0.58903,1.03125 -3.17288,4.95467 -5.74191,8.71871 -2.56901,3.76404 -5.52888,8.2706 -6.57749,10.01457 -3.07302,5.11084 -5.03636,6.82273 -8.58933,7.48927 -1.83815,0.34484 -2.97073,0.97465 -2.51684,1.39958 0.78903,0.73873 12.89479,1.86682 23.76019,2.21413 l 5.12247,0.16374 1.11006,-6.5625 c 0.61053,-3.60938 1.94262,-9.09375 2.9602,-12.1875 1.01759,-3.09375 2.60388,-9.32012 3.52512,-13.83638 0.92122,-4.51625 2.23642,-8.67735 2.92267,-9.24689 2.08502,-1.73041 7.67502,-0.0213 11.6367,3.55784 2.03174,1.83555 3.69407,3.89111 3.69407,4.56792 0,0.67681 3.26953,3.23403 7.26563,5.6827 3.99609,2.44868 7.94577,5.02268 8.77707,5.72 1.93283,1.62133 6.02564,2.82295 15.18838,4.45921 11.55366,2.06321 11.72698,2.5183 6.77632,17.79237 -2.66871,8.2337 -3.99605,10.84229 -7.5,14.7395 -5.03567,5.6009 -5.22575,7.41099 -2.47807,23.59889 1.32944,7.83231 1.53982,11.69861 0.91826,16.875 -0.44346,3.69316 -1.6537,13.69209 -2.68943,22.21984 -2.25225,18.54392 -2.33782,23.75188 -0.47691,29.02625 0.77344,2.19216 1.41037,5.30379 1.41541,6.91475 0.005,1.61095 1.03887,5.14072 2.2974,7.84393 1.90693,4.09591 2.12413,5.3857 1.30342,7.74003 -0.63644,1.82566 -1.83624,3.03878 -3.39147,3.42912 -7.34253,1.84285 -27.54046,-10.8644 -34.45856,-21.67914 -1.71831,-2.68614 -5.74671,-9.90894 -8.952,-16.05067 C 302.05207,428.43807 302.0513,428.4375 283.37542,428.4375 l -13.9914,0 -1.65965,13.68871 -1.65965,13.68872 2.7532,5.25696 2.75318,5.25697 6.01132,1.05456 c 15.91654,2.79225 24.89796,11.03661 26.62744,24.44228 0.76244,5.9099 -0.42672,10.54441 -4.41823,17.21911 -2.08267,3.48269 -4.35681,5.84662 -7.05726,7.33586 l -3.98437,2.19731 -0.007,8.60163 c -0.0119,14.25715 -6.84707,31.7255 -14.64466,37.42661 -1.58916,1.16189 -4.68231,3.46992 -6.87364,5.12894 -6.71852,5.08648 -20.80967,8.95283 -25.55722,7.01242 z m 15.41069,-9.73166 c 5.10381,-1.52915 11.07214,-8.5323 16.63322,-19.5172 6.28555,-12.41595 6.50796,-13.56878 5.52699,-28.6486 -0.73408,-11.28455 -1.32298,-14.41776 -4.47571,-23.81284 -4.99338,-14.88017 -11.04101,-27.22882 -16.75119,-34.20417 -1.81949,-2.22261 -2.14371,-3.41022 -1.66365,-6.09375 2.62523,-14.67476 3.52399,-24.48697 2.40827,-26.29224 -0.69853,-1.13025 -1.37841,-0.79763 -3.7118,1.81595 -2.1852,2.44757 -2.85907,4.09646 -2.86696,7.01516 -0.0203,7.50042 -0.99535,10.84708 -3.15922,10.84326 -2.55616,-0.005 -7.96675,-3.29682 -8.74318,-5.32017 -1.30436,-3.39909 6.02916,-18.24934 14.31635,-28.99032 6.59623,-8.54935 11.01155,-13.89172 14.7791,-17.88212 2.36256,-2.50231 3.49189,-4.44734 3.12992,-5.39062 -0.31147,-0.81166 -0.93815,-1.47576 -1.39263,-1.47576 -1.21168,0 -10.20265,10.63487 -22.04184,26.07193 -4.55721,5.94213 -15.62818,25.19927 -15.62818,27.18407 0,1.04047 1.91809,4.35461 4.26242,7.36476 14.96397,19.21394 29.30753,44.18427 31.41624,54.69174 0.56914,2.83594 1.42271,6.9251 1.89682,9.08702 2.11524,9.64536 0.19024,19.22374 -6.11533,30.42874 -3.71438,6.60043 -10.82743,9.17294 -16.46015,5.95299 -3.17618,-1.81567 -7.92555,-1.74649 -9.48972,0.13823 -1.50944,1.81876 -1.43797,8.76951 0.12908,12.55269 2.04839,4.94526 9.91558,6.90374 18.00115,4.48125 z m -10.25668,-52.38976 c -1.22266,-2.39306 -1.79747,-6.59029 -2.23844,-16.34491 -0.32633,-7.21875 -0.64723,-13.20034 -0.71311,-13.29241 -1.17425,-1.64114 -3.43781,-3.11384 -4.78602,-3.11384 -1.61827,0 -1.68992,0.89931 -1.21365,15.23437 0.57022,17.16282 1.35265,19.8672 6.12606,21.1741 4.07594,1.11595 4.79097,0.1903 2.82516,-3.65731 z m 19.89742,-2.75116 c 0,-0.77344 -0.94922,-1.54106 -2.10938,-1.70583 -1.62345,-0.23057 -2.10937,0.16239 -2.10937,1.70583 0,1.54344 0.48592,1.9364 2.10937,1.70583 1.16016,-0.16477 2.10938,-0.93239 2.10938,-1.70583 z m 22.54949,-3.52998 c 2.34179,-1.63422 5.0971,-7.7772 5.66835,-12.6376 0.54555,-4.64184 0.27893,-5.97984 -2.28229,-11.45302 -3.1203,-6.66792 -6.26781,-8.9419 -12.37689,-8.9419 -2.43276,0 -2.85888,0.32505 -2.60824,1.98962 0.20847,1.38455 1.56822,2.45651 4.4712,3.5249 7.7103,2.83765 10.17063,11.99581 5.65286,21.04177 -2.58014,5.16622 -1.76656,8.73835 1.47501,6.47623 z m 63.83963,-33.52575 c 0.30195,-0.78689 -0.39074,-4.35335 -1.53932,-7.92546 -2.21683,-6.89435 -2.25082,-11.59288 -0.38332,-52.98756 0.48832,-10.8237 0.27053,-13.57397 -1.94619,-24.57757 l -2.49603,-12.39008 4.28023,-6.61655 c 8.66376,-13.3928 11.4044,-21.57205 7.22819,-21.57205 -0.96171,0 -2.75468,-0.7574 -3.98437,-1.68311 -2.26479,-1.70493 -7.9496,-4.27273 -11.89419,-5.37255 -1.18711,-0.33099 -5.52269,-3.9391 -9.63464,-8.01801 -11.71755,-11.62343 -14.28625,-12.59542 -15.42027,-5.83498 -0.32889,1.9607 -1.48044,6.30709 -2.55898,9.65865 -1.17248,3.64344 -2.17798,9.92677 -2.50061,15.62621 -0.2968,5.24286 -0.8889,9.88119 -1.31578,10.30741 -1.19123,1.18938 -8.61669,0.7951 -18.27124,-0.97017 -5.17651,-0.94648 -12.051,-1.48714 -16.875,-1.32715 l -8.1401,0.26995 0.0949,3.3802 c 0.0778,2.76941 1.30896,4.80228 6.81341,11.25 4.19646,4.91559 7.09874,9.26739 7.73144,11.59287 1.11584,4.10116 0.70473,13.44211 -1.02459,23.28007 -1.67698,9.54028 -1.79365,9.43929 10.07315,8.71884 5.53392,-0.33599 10.52522,-0.28432 11.09179,0.11482 0.56655,0.39913 2.04312,2.23449 3.28125,4.07858 1.23811,1.84408 4.3437,6.4847 6.9013,10.3125 2.55759,3.82779 7.24477,12.09717 10.41596,18.37639 5.7944,11.47344 10.51543,18.05492 13.99637,19.512 10.6568,4.46082 15.13885,5.24054 16.07662,2.79675 z M 341.71875,463.125 c -0.31867,-0.51563 -1.33287,-0.9375 -2.25378,-0.9375 -2.23608,0 -4.77747,-2.93065 -4.77747,-5.50921 0,-1.14417 -1.05469,-3.05777 -2.34375,-4.25243 C 331.05469,451.23119 330,449.92719 330,449.52809 c 0,-0.39911 -1.64523,-4.15647 -3.65605,-8.34968 -2.01084,-4.19322 -4.12887,-9.37994 -4.70676,-11.52604 -0.78642,-2.92052 -1.57644,-3.97673 -3.14082,-4.19906 -1.6726,-0.23773 -2.14824,-0.99933 -2.38109,-3.81269 -0.282,-3.40733 -2.11122,-4.75892 -3.46848,-2.56283 -0.80985,1.31037 -2.57138,0.0798 -2.00364,-1.39972 0.25216,-0.65713 -0.0753,-2.2236 -0.72766,-3.48105 -0.9663,-1.86255 -0.94395,-3.14389 0.12061,-6.91352 2.22527,-7.87981 2.39552,-8.84617 1.55756,-8.84078 -0.44683,0.003 -5.01853,2.07977 -10.15934,4.61532 -5.14081,2.53557 -9.67597,4.40676 -10.07813,4.15821 -2.5487,-1.57519 3.0773,-13.53231 6.77822,-14.40597 2.98103,-0.70373 3.3105,-2.29298 0.72014,-3.47367 -2.04626,-0.9327 -1.96876,-1.04674 1.84856,-2.71997 2.19141,-0.96055 3.98438,-2.06881 3.98438,-2.4628 0,-0.39399 -2.21484,-0.7228 -4.92188,-0.73069 -3.52354,-0.0103 -4.52235,-0.27255 -3.51562,-0.92315 0.77344,-0.49984 2.8125,-0.91525 4.53125,-0.92315 2.07703,-0.01 2.99515,-0.40734 2.73779,-1.18623 -0.2471,-0.7478 -2.7273,-1.27395 -6.85389,-1.45395 -7.07164,-0.30845 -9.79015,-1.81111 -9.79015,-5.41155 0,-3.35348 -0.99284,-5.08762 -2.9128,-5.08762 -0.97608,0 -1.7747,-0.47707 -1.7747,-1.06016 0,-0.70663 1.17235,-0.8603 3.51562,-0.46081 1.9336,0.32965 6.46875,1.02706 10.07813,1.54981 3.60937,0.52274 7.30786,1.18264 8.21885,1.46646 1.72708,0.53807 5.3749,6.78079 5.3749,9.19838 0,1.6204 6.13983,12.37193 7.56992,13.25578 1.93435,1.1955 6.45365,12.67608 7.43813,18.89544 0.55492,3.50562 1.4288,8.23218 1.94195,10.50348 1.27679,5.6513 7.7057,21.64715 8.70121,21.64961 0.94187,0.002 0.38242,-3.50815 -2.61425,-16.40424 -1.19816,-5.15625 -3.11504,-13.80469 -4.25973,-19.21875 -1.57929,-7.46963 -3.54022,-12.88743 -8.13057,-22.46369 -3.32713,-6.94097 -6.29732,-14.42925 -6.60042,-16.64063 -0.52997,-3.86655 -0.45548,-4.02068 1.94329,-4.02068 2.85817,0 4.32297,-2.73753 4.32297,-8.07908 0,-3.93387 2.69537,-16.42523 3.79844,-17.60339 0.72742,-0.77694 1.25721,0.64234 2.06286,5.52622 0.22658,1.37356 0.92353,1.80457 2.60603,1.61167 1.31918,-0.15124 2.7867,0.40675 3.4479,1.31099 0.95542,1.30661 1.39935,1.36833 2.61071,0.363 1.20858,-1.00304 2.01962,-0.9097 4.71681,0.54283 1.79149,0.96478 3.25725,2.46182 3.25725,3.32674 0,1.29528 0.70263,1.49372 3.98437,1.12531 l 3.98438,-0.44728 -2.6304,2.4115 c -1.44672,1.32631 -3.18803,2.41149 -3.86959,2.41149 -0.68154,0 -1.79104,0.66497 -2.46556,1.47771 -1.01639,1.22466 -0.99591,1.62232 0.11958,2.32234 0.74029,0.46455 2.08425,0.61491 2.98659,0.33412 1.26066,-0.39228 1.64063,0.0314 1.64063,1.82944 0,2.28066 -2.13432,5.28639 -3.75379,5.28639 -0.44404,0 -1.07515,0.84375 -1.40246,1.875 -1.15445,3.63733 -4.77414,2.31217 -8.88529,-3.25287 C 327.89228,361.64004 325.72379,360 322.56163,360 c -2.06746,0 -2.48568,0.93957 -1.0641,2.39062 0.47989,0.48985 2.33277,5.10938 4.11751,10.26563 1.78474,5.15625 4.30852,12.3655 5.6084,16.02056 2.62683,7.38626 5.84421,22.22945 6.68794,30.85444 0.70352,7.19167 2.15902,17.71447 4.38663,31.71391 0.97047,6.0989 1.76449,11.4778 1.76449,11.95312 0,1.15446 -1.61619,1.10393 -2.34375,-0.0733 z m -70.39287,-53.31894 c -0.16914,-0.1926 -0.95852,-0.10038 -1.7542,0.20495 -1.1227,0.43082 -1.44668,2.10137 -1.44668,7.45957 0,3.79743 0.31641,7.22451 0.70312,7.61574 0.66445,0.67219 3.15056,-14.53687 2.49776,-15.28026 z m -14.5503,-12.32958 c 1.75508,-3.12276 1.9771,-4.52572 1.45145,-9.17186 -0.53694,-4.7459 -0.28893,-6.18622 1.84007,-10.68657 l 2.46065,-5.20138 -2.12325,-3.9827 c -1.92816,-3.61677 -3.96235,-5.50111 -4.91267,-4.5508 -0.20064,0.20065 -1.31209,3.73323 -2.46986,7.8502 -1.64154,5.83719 -2.08967,9.79292 -2.03523,17.96528 0.0384,5.76395 0.33779,10.91349 0.66532,11.44343 0.99493,1.60984 2.94111,0.21746 5.12352,-3.6656 z M 268.125,382.96875 c 0,-0.77344 -0.42188,-1.40625 -0.9375,-1.40625 -0.51563,0 -0.9375,0.63281 -0.9375,1.40625 0,0.77344 0.42187,1.40625 0.9375,1.40625 0.51562,0 0.9375,-0.63281 0.9375,-1.40625 z m 4.6875,-30.25515 c 0,-0.91376 1.19256,-3.12861 2.65012,-4.92187 1.45757,-1.79326 3.64704,-5.05773 4.86548,-7.25437 2.83425,-5.10963 1.91314,-6.1703 -4.60728,-5.30533 -4.20112,0.55729 -5.07167,1.04368 -6.37336,3.56088 -0.82919,1.60348 -2.9705,5.11868 -4.75848,7.81156 -4.23547,6.37908 -3.6915,7.77053 3.03785,7.77053 4.33843,0 5.18567,-0.27144 5.18567,-1.6614 z M 145.39355,338.83817 c 0.85113,-4.60318 1.84348,-9.06713 2.20519,-9.91988 0.36172,-0.85275 0.0544,-3.3351 -0.68294,-5.51632 l -1.34059,-3.96587 -0.61539,6.92257 c -0.97582,10.97731 -1.64936,14.92188 -2.98872,17.50349 -1.32358,2.55122 -0.93981,4.28366 0.81907,3.69736 0.58071,-0.19356 1.75223,-4.11818 2.60338,-8.72135 z m -7.00424,-6.26005 c -0.0821,-7.30093 0.30818,-10.68828 1.62465,-14.10057 0.95297,-2.47015 1.50971,-5.42328 1.23717,-6.5625 -0.50764,-2.12194 0.78342,-22.52651 1.85119,-29.25706 0.32704,-2.06154 1.59094,-5.05448 2.80866,-6.65099 2.04697,-2.68372 2.86673,-5.0695 1.74188,-5.0695 -0.25969,0 -2.04641,0.84375 -3.9705,1.875 -1.92409,1.03125 -4.01709,1.875 -4.65112,1.875 -0.63402,0 -1.60433,-0.84375 -2.15624,-1.875 -0.79413,-1.48384 -1.96296,-1.875 -5.60266,-1.875 -2.52955,0 -4.84684,-0.40071 -5.14952,-0.89047 -0.77584,-1.25534 2.59184,-2.85953 6.00305,-2.85953 1.58077,0 2.87413,-0.37022 2.87413,-0.82271 0,-1.6059 -2.43178,-2.7403 -9.375,-4.37333 -7.36062,-1.7312 -9.71024,-2.87808 -8.82635,-4.30824 0.5711,-0.92406 9.63293,-0.0601 11.1701,1.06491 1.33458,0.97677 8.99949,1.8487 8.45109,0.96136 -0.46097,-0.74588 -8.30336,-4.09997 -16.88859,-7.22305 l -4.6875,-1.70519 3.22747,-0.30725 c 3.85542,-0.36702 12.51627,1.84875 20.04721,5.12883 3.00421,1.30848 5.68971,2.15154 5.96777,1.87346 0.27807,-0.27807 0.0569,-1.79274 -0.49154,-3.36593 -0.88933,-2.55115 -0.7997,-2.86036 0.82911,-2.86036 1.00443,0 2.66998,0.84375 3.70123,1.875 2.24635,2.24635 3.3358,2.25865 7.03125,0.0794 2.65252,-1.56426 2.8054,-1.97591 2.68776,-7.23719 -0.0989,-4.42138 -0.85379,-7.02885 -3.63919,-12.56977 -6.14639,-12.22679 -10.28198,-17.08308 -12.07595,-14.18036 -0.26498,0.42874 -0.77074,3.59988 -1.1239,7.04696 -0.54337,5.30354 -0.38254,6.55426 1.0457,8.13246 0.92831,1.02576 1.36888,2.17884 0.97905,2.5624 -0.38984,0.38356 -5.20365,0.59672 -10.69738,0.47368 -10.60216,-0.23744 -19.05853,1.64822 -23.76601,5.29951 -1.18804,0.9215 -3.39934,2.08122 -4.91399,2.57716 -1.51464,0.49595 -2.88602,1.29807 -3.0475,1.7825 -0.39848,1.19547 11.13859,20.99296 13.7156,23.53579 2.87867,2.8405 8.16791,5.19127 12.8738,5.7217 3.59171,0.40483 4.09792,0.78162 5.09043,3.78898 0.73902,2.23926 0.92407,7.21931 0.56168,15.11625 -0.85591,18.65117 0.41751,37.09397 2.93312,42.47993 1.14393,2.44922 2.22345,4.45313 2.39889,4.45313 0.17545,0 0.27037,-4.32422 0.21095,-9.60938 z m 8.51824,-83.67187 c -1.29268,-2.71078 -1.3347,-3.28125 -0.24168,-3.28125 1.34352,0 5.20913,4.26805 5.20913,5.75143 0,0.44609 -0.76561,0.81107 -1.70137,0.81107 -1.02136,0 -2.32673,-1.31143 -3.26608,-3.28125 z m 140.90495,80.31332 c 0,-0.42924 2.64967,-4.75345 5.88817,-9.60938 5.79403,-8.68778 20.79741,-35.57552 23.56487,-42.23086 1.51708,-3.64836 2.93921,-4.56683 7.07114,-4.56683 1.44145,0 5.62949,-0.67944 9.30674,-1.50987 5.94068,-1.34157 7.18133,-2.02642 11.13062,-6.14415 5.41583,-5.64681 5.71986,-6.36161 5.71653,-13.43973 -0.003,-6.02517 -3.42449,-17.99001 -5.02182,-17.56029 -1.90082,0.51136 -2.35358,5.30171 -0.81005,8.57056 1.79187,3.79473 1.30914,11.43 -1.00564,15.9063 -1.8424,3.56279 -7.66822,6.68212 -12.44384,6.66283 -6.42382,-0.026 -6.65069,-0.72414 -3.1931,-9.82656 1.69113,-4.45205 2.85886,-8.65729 2.59496,-9.34499 -0.59318,-1.54581 -6.76166,-3.67277 -8.60269,-2.96631 -0.74792,0.28701 -1.10874,1.15209 -0.80773,1.93652 0.63002,1.64179 -2.97215,11.58755 -8.34039,23.02819 -2.05653,4.38281 -4.47692,9.68273 -5.37865,11.77761 -1.98376,4.6086 -4.28007,7.06284 -5.99323,6.40544 -0.90058,-0.34558 -1.3799,-3.00354 -1.64829,-9.14011 -0.3355,-7.6709 -0.73137,-9.28669 -3.48844,-14.23851 -3.92039,-7.04118 -10.1181,-13.55443 -12.89778,-13.55443 -3.95235,0 -3.31834,2.00402 2.2195,7.01547 3.36757,3.04748 6.77344,7.32131 8.6698,10.87924 l 3.12334,5.85998 -0.60414,13.95785 c -0.63257,14.61453 -0.93121,15.74551 -5.7613,21.81871 -5.51333,6.93228 -8.16777,12.74675 -7.48375,16.39291 0.33846,1.80417 0.81292,3.59993 1.05436,3.99057 0.59471,0.96227 3.14081,0.90538 3.14081,-0.0701 z M 151.80552,318.09959 c 1.10858,-4.01493 0.9082,-4.42964 -1.73487,-3.59077 -1.47139,0.46701 -1.94565,1.40195 -1.94565,3.83561 0,4.42835 2.43491,4.26638 3.68052,-0.24484 z m 6.66006,-12.8331 c 1.53143,-3.13903 2.79784,-6.34642 2.81423,-7.12753 0.0164,-0.78112 0.62015,-2.19938 1.34167,-3.15169 0.86044,-1.13568 1.30235,-4.14897 1.28428,-8.75712 -0.0262,-6.68531 -0.12359,-7.00053 -2.01021,-6.50716 -1.17487,0.30723 -2.72514,-0.13549 -3.80504,-1.08664 -1.75592,-1.54657 -1.79783,-1.51963 -1.14944,0.73865 1.11243,3.87445 1.44002,10.3883 0.49301,9.80301 -0.47937,-0.29626 -0.87158,0.73109 -0.87158,2.28301 0,4.71328 -1.91015,12.07062 -3.10031,11.94153 -1.56851,-0.17012 -1.82205,1.13847 -1.12334,5.79777 0.51105,3.40793 0.82161,3.86548 1.97437,2.90878 0.75236,-0.62441 2.62092,-3.70359 4.15236,-6.84261 z m 129.96817,-9.01532 c 1.91294,-8.49874 2.12571,-18.73057 0.50203,-24.1418 -1.87244,-6.2402 -3.87749,-5.35583 -8.37513,3.69405 -3.09722,6.23203 -3.6515,8.11128 -2.94245,9.97621 0.48049,1.26378 1.01759,4.66395 1.19358,7.55594 0.27814,4.57094 1.59053,11.46165 3.05484,16.03943 0.80092,2.50386 4.88801,-5.66384 6.56713,-13.12383 z m 105.40134,5.85969 c -1.77603,-2.47883 -1.79906,-3.05577 -0.58941,-14.76711 0.69235,-6.70312 2.35492,-16.48359 3.69458,-21.73438 1.33967,-5.25079 2.84579,-13.47735 3.34695,-18.28125 0.91358,-8.75732 1.54444,-12.46913 4.19324,-24.67187 2.82593,-13.01878 1.18559,-20.29807 -3.51595,-15.60256 -1.86407,1.86169 -2.08799,3.18109 -2.37343,13.98534 -0.17335,6.56134 -0.75235,12.45706 -1.28667,13.1016 -1.62914,1.96518 -6.60935,1.31162 -9.52194,-1.24958 -1.47747,-1.29922 -2.53215,-2.46608 -2.34375,-2.59305 0.1884,-0.12697 1.5027,-0.7291 2.92067,-1.33807 3.8724,-1.66308 3.27998,-3.34162 -0.9375,-2.65627 C 378.10236,227.81809 375,228.00993 375,227.07182 c 0,-0.53859 1.8489,-1.68534 4.10867,-2.54836 3.21192,-1.22664 4.00895,-1.95044 3.65178,-3.31628 -0.34611,-1.3235 0.19206,-1.89011 2.21945,-2.33671 4.56056,-1.00464 5.15973,-1.32359 4.498,-2.39429 -0.42661,-0.69028 -4.13007,-0.92761 -11.07505,-0.70975 -8.79523,0.27591 -10.4341,0.10644 -10.4341,-1.07893 0,-1.00964 1.79797,-1.70109 6.37501,-2.45168 6.4025,-1.04992 8.53286,-2.37183 10.87492,-6.74801 0.74978,-1.40098 1.97756,-2.05031 3.8768,-2.05031 3.23775,0 3.47003,-1.08458 0.9809,-4.58023 -3.55556,-4.99332 -7.69762,-13.31663 -7.39889,-14.86779 0.20401,-1.05933 2.78092,1.53286 7.79798,7.84425 l 7.49328,9.42644 6.09375,0.53446 c 3.35156,0.29396 6.21421,0.41729 6.36144,0.2741 0.14723,-0.1432 0.26497,-6.17972 0.26163,-13.41449 -0.006,-11.77403 -0.25459,-13.81441 -2.37486,-19.44746 C 405.07663,160.61465 397.5,150.4595 397.5,154.71692 c 0,0.53181 0.58881,1.19287 1.30846,1.46903 1.77987,0.683 6.65808,10.98298 8.04651,16.98962 1.35786,5.87436 1.70781,15.65916 0.69045,19.30542 -0.60225,2.15855 -1.18504,2.58397 -3.21072,2.34375 -1.85004,-0.21939 -3.32116,-1.64074 -5.82668,-5.62959 -4.3578,-6.93773 -15.84024,-15.74661 -20.53564,-15.75414 -1.97329,-0.003 -2.12085,0.29027 -1.53037,3.04337 0.86884,4.051 1.16691,4.45312 3.30082,4.45312 1.00082,0 1.81967,0.42188 1.81967,0.9375 0,0.51563 -0.63281,0.9375 -1.40625,0.9375 -1.09151,0 -1.40625,1.24119 -1.40625,5.54572 l 0,5.54573 -6.02561,5.29019 c -8.1826,7.18391 -12.73333,12.94704 -13.38258,16.94791 -0.634,3.90691 0.85733,5.72742 13.54053,16.52922 9.89602,8.42807 10.47042,10.08874 11.45224,33.10998 0.56924,13.34713 1.11764,17.95296 2.62313,22.03125 1.04688,2.83594 2.63559,8.32031 3.53047,12.1875 2.41203,10.42348 2.28733,10.18698 3.83203,7.26711 1.23693,-2.33813 1.19203,-2.81543 -0.48512,-5.15625 z m 7.90205,-15.83061 c 1.45389,-3.42086 3.97963,-8.16696 5.61275,-10.54687 3.73818,-5.44758 8.58972,-17.94289 9.43203,-24.29252 0.8679,-6.54252 1.91923,-7.67173 7.93145,-8.51898 2.8217,-0.39764 7.02882,-1.58636 9.34913,-2.64161 2.32031,-1.05525 5.84793,-2.21078 7.83913,-2.56784 3.333,-0.59766 3.57996,-0.85137 3.11103,-3.19602 -0.91013,-4.55063 -7.15746,-14.56562 -11.92239,-19.11258 -2.55902,-2.44196 -4.65277,-5.06445 -4.65277,-5.82775 0,-0.76329 1.64402,-3.93142 3.65337,-7.04029 2.00935,-3.10886 4.78381,-8.92387 6.16547,-12.92225 1.38166,-3.99838 3.96116,-11.2776 5.73224,-16.17604 3.63408,-10.05116 3.68286,-10.3125 1.92466,-10.3125 -2.40196,0 -9.99716,7.67828 -13.7666,13.91719 -2.07324,3.43148 -5.54891,8.82813 -7.72371,11.99256 -8.55711,12.45097 -10.70947,16.62266 -11.30062,21.90275 -0.3175,2.83594 -1.81619,9.16406 -3.33043,14.0625 -1.51423,4.89844 -3.47779,14.60156 -4.36346,21.5625 -0.88568,6.96094 -2.57797,16.45312 -3.76065,21.09375 -2.81811,11.05768 -4.89092,22.20554 -4.40174,23.67309 0.77078,2.31234 1.87006,1.07097 4.47111,-5.04909 z M 312.66621,258.2292 c 2.30537,-5.64324 4.19545,-11.3244 4.20018,-12.62478 0.007,-2.16695 -0.49801,-2.46043 -6.0605,-3.51562 -8.02713,-1.52273 -9.11751,-1.46981 -13.82769,0.67116 -2.20519,1.00235 -5.16961,2.06508 -6.58757,2.36161 -2.31857,0.48488 -3.79693,3.31593 -1.73156,3.31593 1.79923,0 10.55862,10.09786 13.07213,15.0696 4.00109,7.91419 3.91343,7.81255 5.42955,6.29644 0.72263,-0.72264 3.20009,-5.93109 5.50546,-11.57434 z m -162.70029,5.71811 c 1.4179,-1.70847 0.49679,-3.32231 -1.89625,-3.32231 -1.13953,0 -1.81967,0.64242 -1.81967,1.71875 0,3.06987 1.84,3.8639 3.71592,1.60356 z m 112.96869,-6.57171 c 5.13507,-1.27155 10.25603,-2.08111 11.37991,-1.79904 2.27383,0.5707 4.06841,-1.32647 2.29281,-2.42386 -0.62309,-0.38508 -4.76171,-0.97909 -9.19693,-1.32001 l -8.06405,-0.61985 -3.11067,3.01499 c -1.71087,1.65824 -3.11068,3.56504 -3.11068,4.23733 0,1.502 -1.19006,1.63417 9.80961,-1.08956 z m 76.44039,-5.81248 c 0,-5.97271 -1.19228,-5.89049 -2.7228,0.18779 -1.17658,4.67264 -0.78238,6.26855 1.34658,5.4516 0.9771,-0.37496 1.37622,-2.01043 1.37622,-5.63939 z m -175.52735,-0.4889 c -0.57944,-1.73833 -2.59765,-2.02665 -2.59765,-0.37109 0,0.8164 0.66797,1.48437 1.48437,1.48437 0.81641,0 1.31739,-0.50098 1.11328,-1.11328 z m 25.08126,0.13911 c 0.30621,-0.49546 -0.22752,-0.90083 -1.18608,-0.90083 -0.95856,0 -2.19022,-0.44739 -2.73704,-0.99421 -1.60394,-1.60394 -10.09032,-0.7012 -10.43387,1.1099 -0.24455,1.2892 0.7886,1.53449 6.75578,1.60397 3.87445,0.0451 7.29499,-0.32337 7.60121,-0.81883 z m 16.11167,-4.98351 c 1.22515,-4.21327 1.18052,-4.8556 -0.60081,-8.64519 -2.88674,-6.14128 -5.51832,-7.50617 -11.77334,-6.10636 -5.71536,1.27905 -9.23653,3.67092 -11.3117,7.68385 -1.12284,2.17134 -1.16801,2.8263 -0.21564,3.12726 0.66256,0.20939 2.81331,0.87613 4.77943,1.48164 2.62353,0.80797 3.98448,1.9601 5.11446,4.32969 1.52683,3.20179 1.58623,3.22647 7.1119,2.95466 l 5.5722,-0.27412 1.3235,-4.55143 z m -33.63242,-1.1197 c 0.66522,-2.8613 2.06289,-6.64875 3.10592,-8.41656 4.4101,-7.47456 17.41867,-13.58569 24.6621,-11.58568 3.72531,1.02861 7.38832,5.00752 8.94096,9.71206 1.23671,3.74725 2.36072,4.22646 3.11831,1.32945 1.68877,-6.45787 -9.50578,-16.82062 -16.65313,-15.41574 -9.51092,1.86948 -16.54375,6.39926 -21.55141,13.88105 -2.64338,3.94938 -5.65707,13.29209 -4.75727,14.74798 1.1737,1.8991 1.94879,0.84754 3.13452,-4.25255 z m 116.05835,-5.65215 c 3.54185,-1.32938 8.67812,-3.69412 11.41392,-5.25498 3.42857,-1.95612 5.75902,-2.68826 7.5,-2.35618 9.86972,1.88249 15.46658,2.61962 16.59688,2.18588 1.1127,-0.42698 1.08162,-1.19591 -0.20221,-5.00299 -1.65751,-4.9152 -2.05389,-5.6262 -9.36064,-16.79041 -2.73733,-4.18245 -4.97696,-7.87385 -4.97696,-8.20312 0,-1.35327 4.15855,-0.43209 9.994,2.21383 7.32774,3.32255 7.8185,3.38275 7.8185,0.95911 0,-2.25429 -2.69297,-4.09997 -8.90625,-6.10408 -5.01455,-1.61745 -6.38751,-2.14209 -12.09942,-4.62343 -4.45244,-1.93421 -3.75248,-2.86599 4.59942,-6.12267 8.00776,-3.12249 14.80979,-8.6468 19.6953,-15.99566 2.31602,-3.48379 4.21095,-6.63277 4.21095,-6.99772 0,-0.36496 0.87536,-1.7764 1.94525,-3.13654 l 1.94524,-2.47298 -2.17962,-1.76758 c -1.89365,-1.53566 -3.16458,-1.68786 -9.68671,-1.16005 -12.24981,0.99134 -14.1072,-0.30215 -16.03011,-11.16338 -0.93417,-5.27645 -7.338,-18.82313 -9.24386,-19.55448 -2.71279,-1.041 -3.70582,-0.72257 -9.4544,3.03166 -6.63572,4.33358 -10.1479,9.66454 -15.30012,23.22332 l -3.50666,9.22823 -3.69763,-0.0989 c -2.0337,-0.0544 -7.49451,-0.63208 -12.13513,-1.28376 -11.86105,-1.66565 -22.78043,-0.73442 -40.3125,3.43791 -12.75949,3.03655 -16.40032,3.54485 -24.375,3.40304 l -9.375,-0.1667 2.68319,2.1607 c 1.47576,1.18838 4.42888,2.71369 6.5625,3.38957 12.02642,3.80966 19.99152,8.74741 30.53661,18.93033 8.26053,7.97682 14.11423,11.48832 27.19047,16.31096 3.3194,1.22422 6.86112,2.9579 7.87049,3.85261 1.00938,0.8947 5.80037,7.63846 10.64666,14.98611 10.00972,15.17614 9.34288,14.80448 19.63284,10.94235 z m 8.06333,-12.81735 c -0.57035,-1.16015 -1.30288,-3.05859 -1.62785,-4.21875 -0.75219,-2.68538 -1.9653,-2.70405 -2.66172,-0.041 -0.64461,2.46502 -1.60351,1.71863 -2.92635,-2.27786 -1.19631,-3.6142 -3.04169,-4.38779 -3.54302,-1.48523 l -0.37367,2.16343 -0.97635,-2.34375 c -0.537,-1.28906 -1.19131,-5.43747 -1.45403,-9.21869 -0.46306,-6.66465 -0.4168,-6.85707 1.51211,-6.29075 1.09438,0.32131 4.73198,1.03356 8.08354,1.58277 3.35156,0.54921 6.59152,1.40325 7.19991,1.89787 1.78497,1.45118 4.98759,12.04147 4.98759,16.49276 0,3.56946 -0.22546,4.02834 -1.74264,3.5468 -1.00602,-0.31929 -2.2434,0.0503 -2.92729,0.87432 -1.60835,1.93794 -2.33045,1.79923 -3.55023,-0.68195 z m -24.88353,-24.74431 c -0.26098,-0.26098 -1.0405,-0.58603 -1.73228,-0.72236 -6.72482,-1.32518 -8.23527,-1.86914 -8.72357,-3.14162 -0.79002,-2.05875 1.04416,-3.73521 2.49704,-2.28233 0.61875,0.61875 1.86703,1.125 2.77397,1.125 1.89057,0 8.23085,2.97939 8.26547,3.88407 0.0309,0.80852 -2.48176,1.7361 -3.08063,1.13724 z M 288.75,199.00848 c -9.22274,-3.59911 -27.0983,-8.2738 -52.03125,-13.60683 -2.57813,-0.55145 -7.42969,-2.15301 -10.78125,-3.55903 -3.35156,-1.40603 -8.83594,-3.49745 -12.1875,-4.64762 -6.68941,-2.29563 -10.26408,-4.695 -6.99478,-4.695 2.45141,0 12.16339,2.88967 21.99478,6.54425 5.1947,1.931 12.37461,3.5834 20.625,4.74669 18.02659,2.54171 38.29238,6.99296 45.04423,9.89366 4.16376,1.78882 6.1615,4.64229 4.5823,6.54511 -1.47586,1.77831 -3.04385,1.59152 -10.25153,-1.22123 z m -38.20313,-2.4664 c -1.67578,-0.54577 -3.04687,-1.53789 -3.04687,-2.20471 0,-1.48311 0.26348,-1.48957 4.83917,-0.11866 2.00774,0.60152 3.50689,1.52438 3.33141,2.05078 -0.44985,1.34956 -1.62502,1.41208 -5.1237,0.27259 z m 44.42323,-10.96349 c -3.02427,-1.5312 -8.44264,-3.27019 -12.04083,-3.86443 -3.5982,-0.59422 -6.75086,-1.62424 -7.00592,-2.28891 -0.25507,-0.66468 0.73362,-2.76675 2.19708,-4.67127 1.46345,-1.90453 3.50457,-5.05603 4.53582,-7.00334 1.03125,-1.94731 3.24609,-6.09298 4.92187,-9.21261 1.67579,-3.11964 3.04688,-6.47619 3.04688,-7.459 0,-0.98282 0.63281,-2.31213 1.40625,-2.95403 1.8612,-1.54466 1.84971,-0.20794 -0.0607,7.06866 -1.88952,7.1965 -3.09226,13.55634 -2.56375,13.55634 0.82397,0 3.09325,-2.70197 3.09325,-3.68303 0,-0.55246 0.42187,-1.00447 0.9375,-1.00447 1.08002,0 1.2421,1.25789 0.28537,2.21464 -0.35868,0.35867 -0.75359,1.3782 -0.87758,2.26562 -0.12399,0.88742 -0.49385,3.51193 -0.82189,5.83224 l -0.59643,4.21875 2.81889,-3.03755 2.8189,-3.03753 0.29575,2.49648 c 0.39535,3.33735 2.01001,3.69402 3.56549,0.78759 0.69621,-1.30089 1.66562,-2.36524 2.15426,-2.36524 0.87654,0 0.62906,1.61252 -0.77197,5.03006 -0.61075,1.48983 -0.40455,1.64967 1.39244,1.07933 1.84395,-0.58526 2.02849,-0.41465 1.46655,1.35583 -0.599,1.88732 -0.41366,1.98234 2.71995,1.39446 4.28897,-0.8046 4.37336,0.58658 0.2274,3.74886 -4.00247,3.05284 -6.35707,2.96911 -13.14453,-0.46745 z m -50.98573,-7.15547 c -0.64453,-0.2499 -1.17187,-0.80322 -1.17187,-1.22958 0,-1.01486 15.39828,-2.29047 17.55547,-1.45433 1.55232,0.60169 1.55784,0.72238 0.0828,1.80902 -1.53778,1.13284 -14.08208,1.79934 -16.46636,0.87489 z m 25.17143,-2.14164 c 3.27726,-2.20925 4.18956,-2.48911 4.43724,-1.36121 0.51711,2.35476 -1.75061,4.14223 -5.25516,4.14223 l -3.30753,0 4.12545,-2.78102 z m -32.14408,1.2031 c 0.67675,-0.27081 1.48535,-0.23751 1.79688,0.074 0.31152,0.31153 -0.2422,0.5331 -1.23047,0.4924 -1.09214,-0.045 -1.31428,-0.26713 -0.56641,-0.5664 z m 100.98381,51.96854 c 2.39222,-9.95643 2.50954,-11.49157 2.09565,-27.42187 -0.31969,-12.30428 -0.0856,-18.52553 0.86419,-22.96875 0.71646,-3.35156 1.55045,-7.25391 1.85333,-8.67188 0.94422,-4.42056 -0.94994,-2.81078 -4.43121,3.76591 -2.62949,4.96756 -3.20232,6.91135 -2.68905,9.12472 1.72564,7.44131 0.47364,9.9713 -2.89956,5.85937 -1.5995,-1.94979 -1.84776,-1.99407 -3.2815,-0.5853 -1.65864,1.62978 -1.73323,1.3952 3.05693,9.61398 1.75191,3.00588 1.41478,12.96482 -0.72225,21.33472 -1.17165,4.58892 -1.69737,8.80975 -1.36228,10.93745 0.30011,1.90563 0.75593,4.83587 1.01292,6.51165 0.33478,2.18298 0.96365,3.04688 2.218,3.04688 1.4554,0 2.17822,-1.77918 4.28482,-10.54688 z M 101.88531,209.59648 c 2.48652,-3.83131 5.68065,-8.84238 7.09805,-11.1357 2.96746,-4.80124 6.49692,-13.8946 8.18602,-21.09056 0.69403,-2.95679 3.78555,-9.29473 7.62402,-15.63009 6.65007,-10.97587 7.47052,-13.28491 5.05035,-14.2136 -1.4334,-0.55005 -1.98054,-3.07518 -0.70312,-3.245 0.38671,-0.0514 4.30532,-0.1882 8.70802,-0.30398 5.76016,-0.15148 9.17779,-0.75259 12.1875,-2.1436 2.30043,-1.0632 5.34276,-2.39392 6.76073,-2.95717 3.12393,-1.24089 3.33025,-3.41129 0.46875,-4.93128 -5.47284,-2.9071 -19.45313,-15.76353 -19.45313,-17.88931 0,-2.31725 -1.95102,-2.10412 -5.72074,0.62493 -1.75203,1.26836 -4.76754,3.17538 -6.70113,4.2378 -4.18261,2.29817 -4.4147,3.33966 -0.93864,4.2121 2.47908,0.62221 2.50789,0.69731 0.75832,1.97663 -1.00027,0.73142 -2.97877,1.32985 -4.39666,1.32985 -1.4179,0 -2.81673,0.3863 -3.10853,0.85843 -0.57044,0.92299 7.28383,2.89157 11.53684,2.89157 3.32497,0 6.2302,2.10484 5.50689,3.98975 -0.8116,2.115 -6.67682,2.75651 -15.17005,1.65922 -4.09884,-0.52955 -7.74108,-0.64611 -8.09384,-0.25902 -0.35276,0.38709 -1.10823,3.43624 -1.6788,6.77589 -1.02295,5.98752 -0.98974,6.17368 2.38499,13.36511 3.5149,7.49012 3.62071,10.11489 0.26243,6.5102 -3.29706,-3.53898 -4.63551,-2.14747 -4.64816,4.8324 -0.0146,8.04013 -4.59176,27.99514 -7.44881,32.4743 -1.663744,2.60835 -2.277844,-0.0282 -1.145644,-4.9187 0.623653,-2.69385 1.515874,-8.48384 1.982704,-12.86665 1.12066,-10.52118 1.94587,-48.14708 1.08645,-49.53764 -0.49277,-0.79732 -2.04169,-0.84323 -5.773654,-0.17113 -6.514775,1.17324 -22.647723,0.82378 -23.087588,-0.50012 -0.559428,-1.68377 9.128219,-3.66715 17.987372,-3.68262 7.564163,-0.0132 8.423053,-0.1904 8.297878,-1.71182 -0.152709,-1.85621 -8.834225,-11.61249 -12.401422,-13.9367 -1.2257,-0.79861 -1.816934,-1.7064 -1.313854,-2.01732 0.50308,-0.31092 1.723446,0.15838 2.711923,1.04289 4.935045,4.416 14.976995,11.45196 16.344605,11.45196 2.58961,0 7.81155,-2.03438 9.79837,-3.81729 3.21541,-2.8854 19.98738,-10.42516 21.86489,-9.82926 1.38203,0.43864 1.95239,-0.17209 2.79866,-2.99671 1.45995,-4.87285 3.12651,-17.069275 2.47619,-18.121509 -1.17766,-1.905491 -5.36926,-0.807587 -7.79459,2.041637 -1.35858,1.596027 -4.23614,4.88046 -6.39457,7.298751 -2.15843,2.418281 -4.90276,6.069481 -6.09852,8.113751 -1.19577,2.04429 -3.43759,5.49384 -4.98183,7.66568 -2.44171,3.43401 -3.2716,3.95343 -6.36596,3.98437 -4.38509,0.0439 -7.60342,-2.85141 -9.02083,-8.11525 C 99.372759,103.65345 88.657849,90.9375 84.496249,90.9375 c -2.385002,0 -2.863416,1.533597 -3.565951,11.43096 l -0.593759,8.36493 -3.840145,2.64474 c -2.112079,1.4546 -6.921511,5.70336 -10.687625,9.44168 -8.814866,8.74982 -8.793075,9.94309 0.284981,15.60581 3.609375,2.25146 8.949145,5.34119 11.866156,6.86607 l 5.303655,2.77249 -0.494934,11.04604 c -0.440057,9.82124 -0.234979,11.98863 1.849536,19.54704 1.289459,4.67555 3.093595,9.94899 4.009193,11.71875 2.671147,5.16306 4.162065,12.08884 4.174017,19.38961 0.01075,6.56794 0.08779,6.79688 2.287058,6.79688 1.799756,0 3.221822,-1.45746 6.796879,-6.96602 z M 322.5,195.90808 c 0,-1.12235 -2.64433,-2.32625 -3.41556,-1.55502 -0.82097,0.82098 0.57155,2.52194 2.06464,2.52194 0.74301,0 1.35092,-0.43511 1.35092,-0.96692 z m -99.88786,-36.68357 c 3.06558,-1.39677 3.05895,-2.66201 -0.014,-2.66201 -4.39224,0 -12.42822,-4.57739 -15.80891,-9.00493 -7.20723,-9.43903 -4.59296,-21.5806 7.31215,-33.96009 2.64265,-2.74796 6.36295,-5.80293 8.26734,-6.78884 1.90439,-0.98591 5.87667,-3.48368 8.8273,-5.5506 2.95062,-2.066921 6.34952,-3.75804 7.5531,-3.75804 2.41474,0 2.78191,-0.906422 1.06333,-2.625 -2.31715,-2.317152 -7.39907,-1.284395 -12.38215,2.516325 -2.62575,2.002725 -5.74993,3.938035 -6.94259,4.300685 -1.96636,0.5979 -2.0618,0.48853 -1.02392,-1.17338 2.24352,-3.592455 0.52938,-4.97133 -5.45432,-4.387521 -8.27076,0.806963 -17.10562,2.438672 -17.60833,3.252085 -0.43021,0.696096 7.04903,4.679306 8.7863,4.679306 0.45811,0 1.37368,0.65157 2.0346,1.44793 0.82336,0.99208 2.04009,1.26378 3.86479,0.86301 3.43639,-0.75476 3.37175,0.4099 -0.21322,3.84179 -8.94576,8.56378 -13.44709,25.31528 -9.73219,36.21793 1.71487,5.03287 3.82971,7.19842 10.76029,11.01823 5.66811,3.12401 7.19187,3.37627 10.71038,1.77312 z M 247.5,155.59338 c 0,-0.53301 -1.47744,-1.84083 -3.28321,-2.90625 -1.80576,-1.06543 -6.16326,-5.58636 -9.68332,-10.04651 -7.1163,-9.01683 -12.19805,-13.05523 -17.51361,-13.91783 -4.18033,-0.67836 -6.08797,1.12877 -6.0732,5.75327 0.0102,3.18549 3.6456,11.66039 5.70102,13.29021 0.72659,0.57614 4.37409,2.13035 8.10558,3.4538 3.73148,1.32346 7.72769,3.06692 8.88048,3.87436 2.40349,1.68348 13.86626,2.09594 13.86626,0.49895 z m 102.86024,-2.10544 c 1.53244,-3.36332 7.93979,-7.21938 14.73914,-8.87026 6.55979,-1.59272 11.85281,-0.99747 18.80872,2.11522 10.02464,4.48591 12.07497,5.15903 12.97449,4.25951 0.58615,-0.58615 4.05071,-0.72826 9.06965,-0.37201 5.27861,0.37469 9.89672,0.158 13.19385,-0.61909 5.42535,-1.27866 13.44207,-4.93673 14.47238,-6.60381 0.34439,-0.55723 1.61781,-1.39018 2.82982,-1.85098 1.21201,-0.4608 2.92958,-1.94574 3.81682,-3.29985 1.99132,-3.03912 8.64364,-9.67507 12.05853,-12.02884 1.9692,-1.35731 2.43541,-2.29949 2.07381,-4.19108 -0.25656,-1.34208 0.30689,-4.56198 1.2521,-7.15532 4.26557,-11.70331 8.43881,-31.92924 7.05123,-34.174378 -0.70737,-1.14455 -3.28987,-1.377689 -3.39435,-0.306427 -0.0377,0.386719 -0.22841,4.289062 -0.42377,8.671875 -0.43249,9.702975 -3.58234,20.64004 -8.87303,30.80942 -4.60763,8.85643 -8.57968,13.66881 -15.83824,19.189 -11.89471,9.046 -24.89149,10.59325 -43.094,5.13026 -11.55701,-3.46851 -24.25429,-4.12441 -32.47474,-1.67755 C 353.5143,144.02822 345,151.24691 345,154.0464 c 0,2.45482 4.18601,2.0187 5.36024,-0.55846 z m 63.31054,-26.73777 c 4.1222,-6.22906 7.36293,-13.34107 10.72968,-23.547 1.80017,-5.457057 3.97229,-10.719645 4.82692,-11.694643 0.85463,-0.974999 3.98316,-2.929943 6.95228,-4.344321 2.96912,-1.414378 7.60975,-4.042606 10.3125,-5.840508 2.70275,-1.797901 6.90162,-4.386297 9.33081,-5.751991 2.58427,-1.452874 4.22771,-2.975627 3.96116,-3.670252 -0.49278,-1.284181 -6.00557,-2.994361 -20.33943,-6.309703 -5.03199,-1.16387 -9.86307,-2.638229 -10.73577,-3.276354 -2.58892,-1.89307 -1.76192,-6.616161 3.84964,-21.985745 2.88967,-7.914517 5.25393,-14.797271 5.25393,-15.295007 0,-2.579963 -10.99389,1.735468 -28.02095,10.999056 -4.32557,2.353339 -9.01171,4.278798 -10.41361,4.278798 -2.32587,0 -5.6596,-1.530451 -19.16345,-8.797577 -2.5461,-1.370185 -5.06996,-2.344351 -5.60858,-2.16481 -1.40823,0.469408 -4.271,17.160158 -5.04109,29.390814 l -0.65857,10.459677 -8.17744,7.647724 c -4.49759,4.206249 -12.57185,13.210331 -17.9428,20.009072 -5.37096,6.79874 -11.28877,13.69644 -13.15069,15.32823 -3.5126,3.07842 -4.31896,5.00187 -2.09689,5.00187 0.70863,0 5.03285,-1.52371 9.60937,-3.38603 9.2546,-3.76596 7.02979,-3.60111 39.37226,-2.91731 10.89072,0.23026 20.32665,0.74334 20.96873,1.14016 0.64207,0.39683 2.62151,3.93572 4.39876,7.86421 3.0364,6.71181 5.97072,10.35519 8.37849,10.40312 0.57602,0.0114 2.10815,-1.5822 3.40474,-3.54148 z M 412.321,112.9593 c -0.31222,-0.51043 -0.87348,-3.88117 -1.24723,-7.49055 -0.84175,-8.128969 -1.70884,-9.730331 -2.32377,-4.29155 -0.61706,5.45774 -2.57847,6.08527 -3.37869,1.08097 -0.33602,-2.10137 -0.96406,-3.82067 -1.39564,-3.82067 -1.11867,0 -2.72567,3.28005 -2.72567,5.56337 0,1.06515 -0.42188,1.93663 -0.9375,1.93663 -0.51563,0 -0.9375,-2.10937 -0.9375,-4.6875 0,-4.945284 -0.99286,-6.022312 -2.47978,-2.690006 -0.84985,1.904596 -0.96783,1.920976 -2.53675,0.35205 -1.56892,-1.568916 -1.74121,-1.558856 -3.70508,0.216393 -2.19757,1.986503 -7.31166,3.996563 -10.16828,3.996563 -4.10372,0 -0.31305,-5.208009 5.77769,-7.937991 3.45008,-1.546387 3.84538,-1.777814 12.3642,-7.238653 2.96684,-1.901842 8.20152,-4.797678 11.63262,-6.43519 5.64618,-2.694672 6.7828,-2.9188 11.97375,-2.361074 12.69753,1.364253 15.14137,4.242839 3.62601,4.271052 -6.27143,0.01537 -7.26946,0.817867 -3.51563,2.826856 3.05782,1.636495 2.95951,2.454973 -0.37497,3.121869 -2.45995,0.49199 -2.78198,1.003645 -3.38325,5.375444 -0.37775,2.746481 -1.42971,5.596867 -2.43753,6.604687 -0.97515,0.97515 -1.81506,3.14409 -1.86645,4.81988 -0.12414,4.04749 -1.25075,7.94781 -1.96055,6.78742 z m -70.84247,-4.83624 c -1.69061,-0.6757 -0.46097,-2.18556 1.77992,-2.18556 1.04831,0 1.73169,0.49833 1.5267,1.11328 -0.44009,1.32027 -1.68003,1.72237 -3.30662,1.07228 z m 5.72429,-5.10431 c 1.53263,-2.32265 9.93044,-6.776987 36.23468,-19.21949 8.50781,-4.024388 16.94531,-8.323358 18.75,-9.553267 9.85314,-6.714995 19.92001,-9.67403 21.23688,-6.242326 0.65589,1.709243 -1.92208,4.819515 -4.71989,5.69444 -1.8245,0.570551 -4.69908,1.846316 -19.32949,8.578584 -14.52882,6.685525 -27.60081,12.410809 -28.33638,12.410809 -0.45494,0 -5.15166,2.080641 -10.43717,4.623656 -5.2855,2.543004 -10.79464,4.920974 -12.24254,5.284374 -2.59516,0.65134 -2.61157,0.62895 -1.15609,-1.57678 z m 76.66574,-26.469653 c -2.17798,-2.624286 1.95413,-3.576107 11.60019,-2.672079 7.77817,0.72897 8.22674,0.878723 5.74045,1.916382 -1.48337,0.61909 -5.71131,1.380417 -9.39542,1.691838 -5.47863,0.463114 -6.92542,0.292647 -7.94522,-0.936141 z m -40.3812,-7.12424 c -1.00383,-1.003828 -2.52674,-3.181892 -3.38427,-4.840142 -1.50402,-2.908459 -1.48744,-3.069056 0.46892,-4.544749 1.73772,-1.310755 1.88667,-1.901586 1.04052,-4.127139 -1.86556,-4.906791 -1.15317,-5.879538 1.78687,-2.439914 1.52592,1.78521 2.79155,3.773181 2.8125,4.417712 0.0526,1.617981 1.9131,1.486087 1.9131,-0.135623 0,-0.719125 -0.86946,-4.122473 -1.93212,-7.562996 -1.06268,-3.440523 -1.78422,-6.699235 -1.60344,-7.241582 0.18078,-0.542345 1.78852,1.457325 3.57275,4.443712 1.87852,3.144188 4.71405,6.347688 6.73623,7.610383 l 3.49217,2.180588 1.45378,-2.811303 c 3.19806,-6.184351 4.48726,-1.061584 1.75262,6.964154 -1.22858,3.605669 -2.16861,4.752125 -4.79694,5.850312 -1.79791,0.751214 -3.86206,1.138237 -4.587,0.86005 -0.72495,-0.278186 -2.15226,0.328389 -3.17181,1.347943 -2.31817,2.318167 -3.25946,2.323013 -5.55388,0.02859 z m 21.09909,-11.065482 c 0.33489,-1.933594 1.4087,-4.094425 2.38623,-4.801849 0.97753,-0.707423 1.77732,-2.244319 1.77732,-3.415323 0,-1.171005 0.63281,-2.371932 1.40625,-2.668727 1.68437,-0.646355 1.79201,0.827627 0.36036,4.934483 -0.57524,1.65014 -0.76324,3.282907 -0.41778,3.628372 0.8745,0.874496 2.36951,-1.718129 2.38682,-4.139154 0.007,-1.10499 0.65349,-2.254336 1.43467,-2.5541 0.78117,-0.299766 1.82542,-1.610527 2.32055,-2.912803 C 417.19495,43.920825 420,43.145345 420,45.391027 c 0,5.139315 -6.53314,13.671473 -10.46835,13.671473 -0.9779,0 -2.02083,0.632812 -2.31762,1.40625 -0.29681,0.773437 -1.14642,1.40625 -1.88806,1.40625 -1.04144,0 -1.20981,-0.800394 -0.73952,-3.515625 z m -11.09683,-8.90625 c -0.24705,-2.191406 -0.7606,-4.933594 -1.14124,-6.09375 -0.8042,-2.451162 0.56569,-2.81138 2.67394,-0.703125 0.77344,0.773437 1.77763,1.40625 2.23153,1.40625 0.45391,0 1.6442,0.603314 2.64509,1.340698 1.76087,1.297279 1.71518,1.449089 -1.41097,4.6875 -1.77693,1.840741 -3.52742,3.346802 -3.88997,3.346802 -0.36256,0 -0.86133,-1.792969 -1.10838,-3.984375 z M 268.06237,120.46875 c 6.16658,-17.40313 5.13689,-16.37754 18.34388,-18.27088 11.51887,-1.65134 11.71875,-1.71727 11.71875,-3.86507 0,-2.113397 -4.54731,-15.802374 -5.68025,-17.099528 -1.16209,-1.330531 0.72189,-6.146002 3.75691,-9.602706 4.15303,-4.730041 7.24386,-11.356368 8.51376,-18.252399 3.16463,-17.185185 7.85896,-25.653033 19.13289,-34.512878 4.01137,-3.152407 6.01615,-5.313334 5.4524,-5.877077 -1.10907,-1.109076 -11.57542,2.725648 -19.43411,7.120393 -3.10632,1.737117 -9.62593,4.513266 -14.48803,6.169218 -11.96009,4.073413 -15.19469,6.07641 -27.1456,16.809724 -7.40348,6.649197 -8.09847,7.050695 -11.94676,6.90176 -2.2473,-0.08697 -5.45995,-0.847379 -7.13923,-1.689788 -1.67928,-0.842409 -6.21729,-2.140288 -10.08448,-2.884176 -13.72681,-2.64047 -14.23742,-2.205933 -13.86397,11.798499 0.25411,9.529301 0.1392,10.272742 -1.92806,12.474124 -1.20905,1.287492 -3.26225,2.607937 -4.56268,2.934322 -5.81386,1.459187 -28.12949,19.831009 -26.30465,21.655862 0.31746,0.317447 4.51209,-0.141637 9.3214,-1.020198 8.21771,-1.501196 18.12161,-2.604641 34.52546,-3.84666 7.35417,-0.55682 9.94429,-1.650637 7.49425,-3.164845 -1.39446,-0.861826 -14.18091,-0.51766 -18.88938,0.508436 -1.36888,0.298315 -2.76487,0.09582 -3.1022,-0.449996 -0.33733,-0.545813 -0.19669,-0.992387 0.31253,-0.992387 0.50923,0 1.65923,-0.733354 2.55554,-1.629674 0.89753,-0.897525 5.18274,-2.36407 9.53834,-3.26435 8.0461,-1.663083 12.70129,-3.836174 17.32693,-8.088394 2.46205,-2.263305 2.63701,-2.293185 3.83493,-0.654925 1.17213,1.60298 1.43203,1.475103 3.92756,-1.932417 1.4698,-2.006945 3.90478,-4.983631 5.41108,-6.614859 1.50629,-1.631229 2.4536,-3.427177 2.10514,-3.990997 -0.65246,-1.055694 -0.0389,-1.382855 4.43495,-2.364669 1.43326,-0.31454 3.51325,-1.615401 4.62219,-2.890803 3.1167,-3.584511 4.09358,-2.739075 1.07213,0.927869 -4.56242,5.537139 -7.28864,9.159046 -9.23774,12.272762 -2.07877,3.320874 -9.42197,13.397563 -12.9435,17.761707 -1.24821,1.546875 -2.57293,3.782324 -2.94382,4.967665 -0.61271,1.958176 -1.05285,2.098405 -4.81539,1.534178 -3.81075,-0.571457 -4.14104,-0.459353 -4.14104,1.405494 0,1.114563 1.49015,4.35596 3.31144,7.203091 1.82129,2.847142 5.18372,9.430832 7.47205,14.630422 7.21533,16.3948 10.29781,17.64858 14.46638,5.88415 z m -9.14431,-8.67187 c -1.66036,-3.26071 -3.05989,-10.864 -2.4831,-13.490086 0.32428,-1.47645 2.13798,-4.353272 4.03045,-6.392921 1.89246,-2.039652 4.61052,-5.433062 6.04013,-7.540911 1.42962,-2.10785 2.96744,-3.604929 3.41739,-3.326843 0.44995,0.278086 1.06,-0.124778 1.35566,-0.895254 0.69957,-1.823048 10.34101,-2.049667 9.74229,-0.22899 -0.21195,0.644531 -2.14554,1.301601 -4.29687,1.460154 -5.30839,0.391229 -5.51544,2.992971 -0.23819,2.992971 2.02033,0 4.34065,0.256073 5.15625,0.569052 2.69865,1.035567 1.53985,2.243448 -2.15228,2.243448 -2.08759,0 -4.13207,0.598683 -4.80229,1.40625 C 273.68354,89.803444 274.03877,90 277.22896,90 c 2.0397,0 3.98613,0.27759 4.32541,0.616867 0.87967,0.879674 -1.20222,3.133133 -2.8946,3.133133 -0.78274,0 -3.26761,0.921169 -5.52195,2.047041 -4.43919,2.217037 -8.76282,8.271849 -8.76282,12.271469 0,2.03528 -2.49934,5.36899 -4.02521,5.36899 -0.32798,0 -0.97226,-0.73828 -1.43173,-1.64062 z m 6.51695,-15.325421 c -0.83268,-5.016167 -0.84188,-5.027374 -0.95042,-1.157512 -0.0603,2.149237 0.15346,4.593215 0.47498,5.431063 1.09235,2.84663 1.31908,0.80865 0.47544,-4.273551 z m 9.54795,-22.053721 c -0.34804,-0.906974 -0.24049,-1.786671 0.239,-1.954881 2.30786,-0.809632 3.37352,-2.08541 3.62037,-4.334237 0.14844,-1.352213 1.73999,-4.261673 3.53678,-6.465469 1.79679,-2.203796 3.78272,-4.981403 4.41319,-6.172462 0.84212,-1.590901 1.81372,-2.088458 3.66138,-1.875 2.06544,0.238616 2.46894,0.709563 2.25706,2.634311 -0.14191,1.289062 -1.1966,3.060618 -2.34375,3.936789 -1.14715,0.876172 -2.08574,2.482432 -2.08574,3.569466 0,1.218409 -1.07868,2.585002 -2.8125,3.56321 -1.54688,0.872732 -2.99531,1.699285 -3.21875,1.836785 -0.22344,0.1375 0.093,0.749218 0.70313,1.359375 2.13792,2.137923 1.39987,2.829229 -5.22338,4.892582 -1.55345,0.483952 -2.28178,0.221324 -2.74679,-0.990469 z M 239.0625,70.3125 c 1.28906,-1.00832 2.66016,-1.842688 3.04687,-1.854154 0.38672,-0.01147 0.70313,-0.707578 0.70313,-1.546916 0,-1.25146 -0.66461,-1.419794 -3.69341,-0.935469 -4.58608,0.733343 -5.85582,-0.80464 -1.70585,-2.066208 7.4982,-2.279408 8.05909,-2.236868 9.59203,0.727503 1.34682,2.604468 1.31444,2.899435 -0.50419,4.593759 -1.7358,1.617135 -5.82619,2.992987 -8.72764,2.935639 -0.58008,-0.01147 0,-0.845834 1.28906,-1.854154 z m 40.44343,-20.549054 c 1.43244,-4.297328 11.19624,-13.200946 14.47629,-13.200946 2.3679,0 1.41131,1.614299 -1.7166,2.896875 -1.67578,0.687143 -5.31964,3.548816 -8.09746,6.359273 -2.77784,2.810459 -4.87583,4.585617 -4.66223,3.944798 z m -72.88748,61.253624 c 0.96898,-2.52512 0.68866,-2.86671 -3.41533,-4.16191 -2.1914,-0.6916 -6.30468,-2.39919 -9.14062,-3.79465 -2.83594,-1.39545 -7.44306,-3.216076 -10.23804,-4.04581 -2.79498,-0.829734 -5.98967,-2.103487 -7.09932,-2.830556 -1.10964,-0.72706 -4.72908,-1.512056 -8.04321,-1.744444 -3.31412,-0.232378 -8.91779,-0.944419 -12.4526,-1.582307 -6.7519,-1.218441 -8.88056,-0.607446 -7.78949,2.235838 0.33591,0.875363 1.68366,1.469269 3.33422,1.469269 8.50775,0 30.04318,6.48842 48.38219,14.57709 3.81712,1.68359 5.78344,1.64631 6.4622,-0.12252 z M 168.75,92.24013 c 0,-0.314803 -1.55168,-3.711994 -3.44819,-7.549313 -4.63618,-9.380665 -4.76019,-14.232033 -0.51154,-20.011514 3.1867,-4.334886 4.94535,-5.402718 30.67848,-18.627593 12.83955,-6.598555 13.32241,-6.931453 16.39241,-11.301556 2.03221,-2.892826 2.07617,-3.141636 0.43433,-2.458231 -8.3432,3.472785 -11.36439,4.130452 -22.61596,4.923144 -11.27144,0.79409 -12.68363,1.100205 -16.14661,3.500061 -3.71937,2.577526 -6.65274,2.722769 -6.66315,0.32992 -0.0389,-8.934021 -11.11408,-18.780262 -12.68726,-11.279423 -0.29741,1.417969 -0.94739,4.383254 -1.44442,6.589523 -0.49703,2.20627 -0.93769,8.443102 -0.97923,13.859629 -0.0677,8.822659 0.179,10.357501 2.36869,14.738602 1.34432,2.689704 2.84017,7.037102 3.32411,9.660884 1.23722,6.707841 3.67481,12.603809 6.45787,15.620112 2.15493,2.335531 4.84047,3.448343 4.84047,2.005755 z M 89.491214,58.189779 c 0.296654,-0.479996 0.110614,-1.137706 -0.413422,-1.461578 -0.524036,-0.323872 -0.952792,0.06885 -0.952792,0.872721 0,1.646743 0.562552,1.889211 1.366214,0.588857 z M 453.75,58.111221 c 0,-1.380805 -5.73953,-4.666111 -8.15902,-4.670217 -3.0375,-0.0052 -6.84098,1.967509 -6.84098,3.548049 0,1.054879 0.81965,1.257151 3.51562,0.867589 1.9336,-0.2794 4.35938,-0.152033 5.39063,0.283037 2.64585,1.116246 6.09375,1.100144 6.09375,-0.02846 z M 127.00644,50.062047 c 0.27146,-1.752875 0.72361,-4.663609 1.00479,-6.468297 0.49741,-3.192542 0.42771,-3.280693 -2.57813,-3.260661 -1.69914,0.01132 -4.88731,0.836681 -7.08481,1.834124 l -3.99544,1.813534 1.65169,2.649342 c 5.92674,9.506516 9.87065,10.736788 11.0019,3.431958 z M 518.4375,42.464239 c 2.32031,-0.755085 9.70312,-1.694343 16.40625,-2.087241 12.15315,-0.712344 27.17077,-3.127175 31.17187,-5.012433 3.89825,-1.836789 2.52572,-3.489565 -2.89787,-3.489565 -2.75399,0 -7.07821,-0.628246 -9.60938,-1.396103 -2.53116,-0.767855 -7.20647,-1.400668 -10.38956,-1.40625 -4.76093,-0.0083 -6.26493,0.391627 -8.47945,2.255022 -1.4806,1.245843 -4.36063,2.558613 -6.40005,2.917269 -2.03943,0.358655 -5.39556,1.616418 -7.45806,2.795029 -4.5626,2.607286 -11.18165,8.473242 -8.4375,7.47751 1.03125,-0.374196 3.77344,-1.298154 6.09375,-2.053238 z M 190.80872,369.29911 c -1.46889,-3.78499 4.90445,-20.20555 12.52417,-32.26786 13.44854,-21.28955 23.56582,-45.50826 23.88358,-57.1724 l 0.12728,-4.67239 -4.21875,-1.29213 c -8.27248,-2.53373 -11.28985,-4.96014 -6.94065,-5.58131 1.82864,-0.26118 1.93959,-0.75112 1.59232,-7.03125 -0.59475,-10.75559 2.15207,-12.29908 4.89184,-2.74882 2.33844,8.15128 5.5052,13.00644 9.30033,14.25895 1.77458,0.58567 4.30755,1.91519 5.62883,2.95452 3.71834,2.92484 3.13982,6.08853 -2.36177,12.91595 -3.43327,4.26065 -5.65613,8.37644 -7.95733,14.73363 -3.36209,9.28789 -6.37843,15.81946 -8.38947,18.1665 -1.08004,1.26051 -11.48836,18.67764 -19.7783,33.09679 -1.72035,2.99229 -3.55137,7.01314 -4.06893,8.93521 -0.51756,1.92208 -1.55233,4.3254 -2.29949,5.34072 -1.17697,1.59938 -1.43531,1.648 -1.93366,0.36389 z m 36.32633,-47.76609 c 0.76701,-5.71845 4.48219,-12.56799 7.01169,-12.92715 2.84317,-0.4037 7.72826,4.49998 7.72826,7.75769 0,3.02635 -2.3206,4.05971 -4.56187,2.03139 -2.3807,-2.15451 -2.93813,-1.90928 -2.93813,1.29255 0,2.20198 -0.4134,2.8125 -1.90442,2.8125 -1.04744,0 -2.14726,0.63281 -2.44405,1.40625 -0.29681,0.77344 -1.18286,1.40625 -1.96902,1.40625 -1.12831,0 -1.32261,-0.7961 -0.92246,-3.77948 z m 32.44451,-5.46296 c -1.22969,-0.95835 -3.70012,-2.49394 -5.48982,-3.41244 C 248.95679,310.02333 240,301.00212 240,298.46655 c 0,-1.20204 1.57766,-5.37393 3.50591,-9.27085 3.35205,-6.77439 3.80268,-7.2482 10.26835,-10.79676 7.00953,-3.84707 9.67238,-4.5478 9.65044,-2.53957 -0.0321,2.93626 -1.28817,5.37964 -3.05364,5.93998 -1.05956,0.33629 -3.4398,1.29354 -5.2894,2.12722 l -3.36291,1.51578 5.40845,0.48195 c 7.7627,0.69174 7.52211,2.58474 -0.55603,4.37496 -4.74516,1.05158 -4.47316,2.59656 0.52166,2.96305 4.905,0.3599 7.13437,2.05019 2.70405,2.05019 -4.13529,0 -3.4286,1.84282 1.58948,4.14487 3.80942,1.74756 5.14176,3.36566 2.75426,3.34499 -0.64453,-0.006 -3.25614,-0.64241 -5.80359,-1.41516 -5.58374,-1.69381 -7.34813,-0.58735 -3.63497,2.27949 4.01068,3.09655 11.80241,8.09955 13.73528,8.81932 2.38598,0.88851 1.3932,3.00728 -1.34472,2.86987 -1.23688,-0.0621 -2.58624,0.46527 -2.99858,1.17188 -0.99656,1.70776 -1.84645,1.62158 -4.51448,-0.4577 z m -57.05328,-3.84648 c -1.44075,-0.91114 -1.4404,-0.9114 3.10561,-2.29309 1.77006,-0.53799 3.79803,0.90407 3.02664,2.1522 -0.78012,1.26226 -4.23363,1.3416 -6.13225,0.14089 z m 1.37587,-7.5427 c -0.601,-0.97245 0.0673,-1.31611 4.39977,-2.26227 3.3626,-0.73436 4.34379,1.08478 1.22471,2.27064 -3.12889,1.18961 -4.8857,1.18699 -5.62448,-0.008 z m 0.9416,-6.5417 c -1.73728,-0.69045 -1.68115,-0.82162 0.76416,-1.78593 3.31889,-1.3088 8.14209,-1.35253 8.14209,-0.0739 0,1.66433 -6.16096,2.95083 -8.90625,1.85977 z m -4.0446,-7.56568 c -3.98673,-1.59892 -1.14537,-2.65397 6.57625,-2.44188 7.51247,0.20635 10.63451,1.63633 6.17856,2.82996 -3.12338,0.83667 -10.24103,0.62011 -12.75481,-0.38808 z m 7.7946,-10.01181 c -4.42556,-0.64102 -11.54687,-2.68572 -19.63208,-5.63688 -12.52157,-4.57045 -9.45413,-6.7612 4.22673,-3.0187 3.83232,1.04835 10.97566,2.57005 15.8741,3.38155 4.89844,0.81149 9.85547,1.64929 11.01562,1.86175 1.16016,0.21248 2.10938,0.96189 2.10938,1.66536 0,2.17077 -5.65251,2.89716 -13.59375,1.74692 z"
     id="path3346"
     inkscape:connector-curvature="0" />
</svg>
