<?xml version="1.0" encoding="utf-8"?>

<!DOCTYPE svg PUBLIC "-//W3C//DTD SVG 1.1//EN" "http://www.w3.org/Graphics/SVG/1.1/DTD/svg11.dtd">
<svg version="1.1" id="Layer_1" xmlns="http://www.w3.org/2000/svg" xmlns:xlink="http://www.w3.org/1999/xlink" x="0px" y="0px"
	 viewBox="0 0 1724.2308 1639.8409" enable-background="new 0 0 1724.2308 1639.8409" xml:space="preserve">
<g>
	<path d="M1090.7191,561.189c-9.3497,8.8049-17.328,19.1575-23.691,30.1178c-1.6074,2.7113-2.9081,5.593-4.3077,8.4191
		c2.2552-2.2045,4.594-4.332,6.6759-6.6985C1077.8539,583.5889,1085.2344,572.802,1090.7191,561.189z M633.5118,561.189
		c5.4847,11.613,12.8652,22.3998,21.3228,31.8384c2.0819,2.3666,4.4207,4.494,6.6759,6.6985
		c-1.3997-2.8261-2.7003-5.7078-4.3077-8.4191C650.8397,580.3465,642.8615,569.994,633.5118,561.189z M492.227,996.019
		c12.7394-1.6277,25.279-5.3136,36.8692-10.4406c2.8941-1.2487,5.6401-2.8156,8.4337-4.2792
		c-3.1204,0.4579-6.2629,0.8043-9.3383,1.4952C515.8014,985.4592,503.4901,989.8478,492.227,996.019z M862.1154,1264.7587
		c2.3887-12.6189,2.7581-25.6837,1.4636-38.291c-0.2932-3.1383-0.9348-6.2341-1.4636-9.3433
		c-0.5287,3.1091-1.1703,6.205-1.4636,9.3433C859.3573,1239.075,859.7267,1252.1398,862.1154,1264.7587z M1232.0039,996.019
		c-11.2632-6.1712-23.5745-10.5598-35.9647-13.2245c-3.0753-0.6909-6.2178-1.0374-9.3381-1.4952
		c2.7935,1.4637,5.5396,3.0305,8.4336,4.2792C1206.7249,990.7054,1219.2644,994.3913,1232.0039,996.019z M1058.3795,605.7006
		c-0.8568-5.1345,0.8091-10.2112,1.9181-15.1904c5.0931-21.6356,13.5078-42.5482,25.2367-61.4457
		c1.127-1.438,2.035-3.6563,4.161-3.6649c3.2269-0.3417,6.4991,0.0714,9.726-0.4715c8.9236-0.9265,17.276-6.0595,22.2189-13.5419
		c6.3948-9.1411,9.9875-20.5373,19.1696-27.5164c2.6558-2.2626,5.7998-3.4396,9.1063-4.1584
		c0.3381,3.3668,0.1903,6.7206-1.1409,9.9456c-3.8,10.8893-13.5283,17.8278-20.246,26.7344
		c-5.5887,7.0131-7.8894,16.543-6.0131,25.3161c0.4808,3.2366,1.8849,6.2211,2.5571,9.3956
		c0.6487,2.0246-1.1803,3.5737-2.1997,5.0899c-14.3481,16.9945-31.637,31.4596-50.6398,42.9893
		C1067.8409,601.7757,1063.5276,604.9288,1058.3795,605.7006z M665.8513,605.7006c-5.1481-0.7717-9.4614-3.9249-13.8542-6.5183
		c-19.0027-11.5297-36.2916-25.9948-50.6398-42.9893c-1.0193-1.5162-2.8484-3.0653-2.1996-5.0899
		c0.6722-3.1745,2.0762-6.159,2.5571-9.3956c1.8764-8.7731-0.4243-18.303-6.0131-25.3161
		c-6.7177-8.9066-16.4458-15.8451-20.2459-26.7344c-1.3312-3.2249-1.479-6.5788-1.1408-9.9456
		c3.3065,0.7187,6.4505,1.8958,9.1063,4.1584c9.1821,6.979,12.7748,18.3752,19.1696,27.5164
		c4.9429,7.4824,13.2953,12.6154,22.2189,13.5419c3.2267,0.5428,6.4991,0.1298,9.7259,0.4715
		c2.126,0.0086,3.0341,2.2269,4.1611,3.6649c11.7289,18.8975,20.1435,39.8101,25.2367,61.4457
		C665.0423,595.4894,666.7082,600.566,665.8513,605.7006z M544.5534,979.0171c-2.3248,4.6576-6.6565,7.7855-10.4805,11.1619
		c-16.8375,14.5098-35.9372,26.4825-56.5338,34.8769c-1.7569,0.5009-3.7955,1.7617-5.5205,0.519
		c-2.8114-1.6202-5.216-3.8778-8.1455-5.3353c-7.7639-4.4956-17.5383-5.2524-25.9352-2.1043
		c-10.5465,3.6366-20.1516,10.7445-31.6822,10.9937c-3.4785,0.2694-6.7138-0.6263-9.8113-1.9884
		c1.7053-2.9226,3.7963-5.549,6.7688-7.3755c9.4749-6.576,21.4235-6.4713,32.0934-9.7283
		c8.6436-2.3888,16.1065-8.7463,19.7451-16.9468c1.5134-2.9011,2.1317-6.1409,3.4538-9.1042
		c0.6652-2.0192,3.0555-2.1974,4.7713-2.8249c21.597-5.3152,44.0864-6.8556,66.2369-5.0137
		C534.592,976.6311,539.9349,976.6155,544.5534,979.0171z M862.1154,1209.7395c3.7112,3.6501,5.3475,8.7365,7.377,13.4166
		c8.5966,20.4972,14.0812,42.3619,15.7,64.5444c-0.0665,1.8257,0.5027,4.1541-1.2122,5.4106
		c-2.4097,2.1732-5.2999,3.7625-7.5913,6.0983c-6.6747,5.9946-10.4149,15.0568-10.0157,24.0155
		c0.1995,11.1542,3.9915,22.4856,0.6652,33.5288c-0.8187,3.3915-2.6703,6.1918-4.9229,8.7167
		c-2.2526-2.5249-4.1042-5.3252-4.9229-8.7167c-3.3262-11.0432,0.4657-22.3746,0.6652-33.5288
		c0.3992-8.9587-3.341-18.0209-10.0157-24.0155c-2.2914-2.3358-5.1816-3.925-7.5912-6.0983
		c-1.7149-1.2566-1.1457-3.585-1.2122-5.4106c1.6187-22.1825,7.1034-44.0472,15.7-64.5444
		C856.7679,1218.476,858.4042,1213.3896,862.1154,1209.7395z M1179.6775,979.0171c4.6184-2.4016,9.9614-2.386,15.0397-2.8699
		c22.1505-1.8419,44.6399-0.3015,66.2368,5.0137c1.7158,0.6274,4.1062,0.8057,4.7714,2.8249
		c1.3221,2.9633,1.9404,6.2031,3.4539,9.1042c3.6387,8.2005,11.1016,14.558,19.7451,16.9468
		c10.6699,3.257,22.6185,3.1523,32.0934,9.7283c2.9725,1.8266,5.0635,4.4529,6.7688,7.3755
		c-3.0975,1.3621-6.3329,2.2578-9.8113,1.9884c-11.5306-0.2491-21.1357-7.3571-31.6823-10.9937
		c-8.397-3.1481-18.1714-2.3913-25.9352,2.1043c-2.9296,1.4575-5.3342,3.7151-8.1456,5.3353
		c-1.725,1.2427-3.7635-0.0182-5.5204-0.519c-20.5967-8.3943-39.6963-20.3671-56.5338-34.8769
		C1186.334,986.8026,1182.0022,983.6747,1179.6775,979.0171z M1167.7859,455.1157c-8.7546-6.4844-20.7993-8.6193-30.9792-4.4057
		c-6.7209,3.34-9.7863,10.7155-15.704,15.0502c-0.5977-3.2392,0.8101-6.2457,2.2162-9.0614
		c12.3541-26.511,28.4365-51.1994,39.1658-78.4797c9.746-23.399,14.9242-48.9746,12.8329-74.3406
		c-0.0874-8.9718-2.6763-17.632-5.2405-26.1374c-4.3208-15.7205-12.9937-30.3177-25.1852-41.2037
		c-13.2921-12.2886-32.2089-18.8602-50.2249-15.6681c-9.7505,1.1845-19.0302,6.4115-24.6298,14.5588
		c-5.0933,7.8026-7.3717,17.5406-5.4178,26.7354c0.928,9.8018,7.0822,19.3896,16.5741,22.7865
		c7.7905,2.7456,16.1677,0.3075,23.5181-2.6665c-0.0374-0.9042-0.0747-1.8085-0.1105-2.7025
		c-7.2651-3.9718-15.5151-6.0096-22.2899-10.8953c-4.9629-3.6696-9.2339-9.5869-8.1007-16.0637
		c1.9377-7.345,6.8401-14.2813,13.9812-17.3068c5.494-2.7329,11.8838-1.8822,17.6444-0.5932
		c10.0975,2.6766,19.807,8.9178,24.7786,18.3225c2.4209,7.5332,3.4459,15.7426,1.752,23.5571
		c-4.1226,22.7518-16.5449,42.8175-22.6254,64.9692c-2.2233,9.0837-4.0717,20.066,2.924,27.6155
		c8.9318,9.5501,22.8468,9.6005,34.9141,10.748c-0.8154,7.3473-4.4828,13.9291-6.9734,20.7903
		c-7.1119,16.24-14.1742,32.9272-25.5594,46.7113c-1.0487-5.2846-0.8584-10.9664-3.5313-15.8138
		c-4.6475-8.8951-13.4347-15.0601-22.8574-18.087c-9.5842-3.4458-20.9883-4.1479-29.9863,1.3203
		c-7.5256,4.473-11.3929,13.4678-11.022,22.0242c7.1433-1.8087,13.4913-6.2327,20.9745-6.6982
		c5.5254-0.6635,10.6671,4.0681,11.5283,9.3716c0.923,5.0928,2.1694,10.3566,1.0415,15.5308
		c-2.0892,10.7982-7.1429,20.7219-9.8617,31.3552c-1.6372,7.1705-2.7827,15.1733,0.8024,21.9718
		c1.5599,3.9017,4.9841,7.2119,5.0345,11.6068c-0.7601,3.486-2.7972,6.5287-4.2668,9.746
		c-11.2172,22.9971-21.311,47.1392-23.9431,72.8194c-0.2802,2.775-0.8865,5.4958-1.6232,8.1949
		c-2.5609-4.6746-2.9574-10.0519-4.5858-15.0541c-1.6091-5.6826-2.1924-11.5701-3.1853-17.3715
		c-3.431-20.9944-6.3323-42.0517-9.8046-63.0397c-0.7314-7.7585-0.5879-15.7402-2.9935-23.2441
		c-1.3359-3.7573-5.2184-5.0157-8.7246-5.8363c-0.9625,3.2112-1.4761,6.584-0.8741,9.9179
		c1.0481,6.216,0.5826,12.5658,1.6616,18.777c2.2097,13.6841,4.2335,27.3975,6.5861,41.0484
		c4.2935,17.6193,6.8911,35.6235,9.3121,53.5818c-4.2284-5.2466-7.3784-11.2356-11.4356-16.6046
		c-7.8781-10.6484-17.0881-20.2179-25.2584-30.6401c-7.7797-9.6267-13.8679-20.802-16.8365-32.863
		c-1.2432-5.2431-0.117-10.6287-0.6053-15.9173c-1.7418-3.5131-4.5582-6.3268-6.9291-9.4016
		c-8.2773-10.3629-16.69-20.7784-22.9523-32.5188c-2.7855-5.1577-4.5984-10.9244-4.5474-16.817
		c0.5621-5.1375,4.6018-9.3017,9.2621-11.1511c5.873-2.4119,12.3618-2.3389,18.5223-3.5369
		c-4.1898-7.6764-12.6293-12.8487-21.3638-13.201c-7.7448-0.1175-14.8907,3.946-20.4538,9.05
		c-9.7601,9.6107-15.7687,23.9296-12.8857,37.6552c0.939,6.5296,4.7327,12.1731,8.6561,17.2988
		c-19.7422-13.3203-34.6766-32.3024-49.4335-50.6987c-4.3106-5.6992-9.2471-10.9395-13.1704-16.933
		c6.9916-0.8957,14.2884,0.0019,20.9682-2.7283c5.5047-2.1313,11.9493-4.6761,14.4247-10.4977
		c3.5795-11.6799,2.0874-25.0436-4.9253-35.1729c-8.9698-13.0806-22.6642-21.6281-33.6484-32.8098
		c-10.9842,11.1818-24.6785,19.7292-33.6484,32.8098c-7.0126,10.1292-8.5048,23.493-4.9252,35.1729
		c2.4753,5.8215,8.92,8.3663,14.4246,10.4977c6.6798,2.7302,13.9766,1.8327,20.9682,2.7283
		c-3.9233,5.9935-8.8598,11.2338-13.1704,16.933c-14.7569,18.3963-29.6913,37.3784-49.4335,50.6987
		c3.9235-5.1256,7.7172-10.7691,8.6561-17.2988c2.883-13.7256-3.1255-28.0446-12.8857-37.6552
		c-5.563-5.104-12.709-9.1675-20.4538-9.05c-8.7344,0.3524-17.174,5.5246-21.3638,13.201
		c6.1605,1.198,12.6493,1.1251,18.5223,3.5369c4.6603,1.8494,8.6999,6.0136,9.2621,11.1511
		c0.051,5.8926-1.762,11.6594-4.5474,16.817c-6.2624,11.7404-14.675,22.1559-22.9523,32.5188
		c-2.371,3.0748-5.1874,5.8885-6.9291,9.4016c-0.4883,5.2886,0.6378,10.6742-0.6054,15.9173
		c-2.9686,12.061-9.0568,23.2363-16.8365,32.863c-8.1703,10.4222-17.3803,19.9917-25.2584,30.6401
		c-4.0572,5.369-7.2072,11.3579-11.4356,16.6046c2.421-17.9583,5.0186-35.9625,9.3121-53.5818
		c2.3526-13.6509,4.3764-27.3643,6.5861-41.0484c1.079-6.2112,0.6135-12.561,1.6616-18.777
		c0.6021-3.3338,0.0885-6.7067-0.8741-9.9179c-3.5061,0.8206-7.3886,2.079-8.7246,5.8363
		c-2.4056,7.5039-2.2621,15.4856-2.9935,23.2441c-3.4724,20.988-6.3735,42.0452-9.8046,63.0397
		c-0.993,5.8014-1.5762,11.6889-3.1853,17.3715c-1.6284,5.0022-2.0249,10.3795-4.5858,15.0541
		c-0.7367-2.6992-1.343-5.4199-1.6232-8.1949c-2.6321-25.6802-12.726-49.8223-23.9432-72.8194
		c-1.4695-3.2173-3.5066-6.26-4.2668-9.746c0.0504-4.3948,3.4747-7.705,5.0346-11.6068c3.5851-6.7985,2.4396-14.8013,0.8023-21.9718
		c-2.7187-10.6333-7.7724-20.5569-9.8616-31.3552c-1.1279-5.1741,0.1185-10.438,1.0416-15.5308
		c0.8612-5.3036,6.0029-10.0352,11.5283-9.3716c7.483,0.4655,13.8312,4.8895,20.9744,6.6982
		c0.371-8.5564-3.4963-17.5512-11.022-22.0242c-8.998-5.4681-20.402-4.766-29.9863-1.3203
		c-9.4227,3.0269-18.21,9.1919-22.8574,18.087c-2.6728,4.8474-2.4826,10.5292-3.5313,15.8138
		c-11.3852-13.7841-18.4475-30.4713-25.5594-46.7113c-2.4907-6.8612-6.158-13.443-6.9734-20.7903
		c12.0673-1.1474,25.9823-1.1978,34.9141-10.748c6.9957-7.5495,5.1472-18.5318,2.924-27.6155
		c-6.0804-22.1517-18.5027-42.2174-22.6254-64.9692c-1.694-7.8145-0.6689-16.024,1.752-23.5571
		c4.9716-9.4047,14.6811-15.6459,24.7786-18.3225c5.7607-1.289,12.1503-2.1397,17.6445,0.5932
		c7.1411,3.0255,12.0435,9.9617,13.9811,17.3068c1.1332,6.4768-3.1378,12.3941-8.1007,16.0637
		c-6.7748,4.8857-15.0247,6.9235-22.2899,10.8953c-0.0358,0.894-0.0731,1.7983-0.1105,2.7025
		c7.3503,2.974,15.7275,5.4121,23.5181,2.6665c9.4919-3.3969,15.6461-12.9847,16.5741-22.7865
		c1.9538-9.1947-0.3246-18.9328-5.4179-26.7354c-5.5996-8.1473-14.8792-13.3743-24.6298-14.5588
		c-18.016-3.1921-36.9327,3.3795-50.2249,15.6681c-12.1915,10.886-20.8643,25.4832-25.1852,41.2037
		c-2.5642,8.5054-5.153,17.1656-5.2404,26.1374c-2.0914,25.3661,3.0869,50.9416,12.8328,74.3406
		c10.7292,27.2803,26.8117,51.9687,39.1658,78.4797c1.4062,2.8158,2.8139,5.8223,2.2162,9.0614
		c-5.9178-4.3347-8.9832-11.7101-15.704-15.0502c-10.1799-4.2136-22.2247-2.0787-30.9792,4.4057
		c-8.8724,6.3224-14.6248,17.1179-13.7632,28.1016c1.0997,7.424,7.1669,12.6185,9.4608,19.5861
		c-3.2654-0.4326-5.6897-2.7004-7.9331-4.9079c-21.3958-19.9418-39.9061-42.8662-62.5357-61.5005
		c-19.2421-16.4996-41.9657-29.3277-66.7366-35.1772c-8.5597-2.6893-17.596-2.9034-26.4775-3.093
		c-16.2863-0.7485-32.8491,2.989-46.9697,11.2199c-15.7946,8.8442-27.8902,24.8044-30.4216,42.925
		c-1.8865,9.6393,0.217,20.08,6.2352,27.9232c5.8468,7.2551,14.4042,12.4312,23.7527,13.4144
		c9.6088,2.1464,20.6291-0.7439,26.7929-8.7215c5.0186-6.5609,5.2885-15.2814,4.7315-23.191
		c-0.8716-0.2439-1.7431-0.4878-2.6044-0.73c-6.0225,5.6822-10.5099,12.8987-17.25,17.8321
		c-5.0237,3.586-11.9711,5.8195-17.7808,2.7403c-6.3868-4.1126-11.4686-10.9184-12.1393-18.645
		c-0.9014-6.0697,1.8822-11.8838,4.8882-16.9641c5.6659-8.7762,14.602-16.0818,25.0828-17.9039
		c7.9126,0.0255,16.037,1.5874,22.9456,5.6134c20.3643,10.9515,35.6092,28.9665,54.7978,41.5945
		c7.9521,4.9215,17.8257,10.0732,27.1675,5.7529c11.8428-5.5435,16.1907-18.7618,21.011-29.884
		c6.7357,3.046,11.8621,8.5677,17.6178,13.0566c13.2474,11.7823,26.9356,23.6556,36.5268,38.7431
		c-5.35-0.6357-10.6949-2.5724-16.131-1.5283c-9.8959,1.6713-18.4746,8.1234-24.2651,16.1495
		c-6.2388,8.0504-10.4306,18.6793-8.0107,28.9267c1.9285,8.5396,9.288,14.9971,17.5403,17.2884
		c0.4872-7.3526-1.7586-14.7571,0.1111-22.0178c1.0764-5.46,7.1653-8.8879,12.4754-8.0681
		c5.1287,0.6959,10.5201,1.137,15.0925,3.8087c9.6241,5.3239,17.5004,13.1967,26.7732,19.0683
		c6.3135,3.7729,13.5707,7.3354,21.1443,6.0266c4.1928-0.2779,8.3991-2.5116,12.5944-1.2015
		c3.0804,1.8003,5.3447,4.6779,7.9505,7.0697c18.4052,17.7747,38.2465,34.8348,61.8565,45.2738
		c2.5526,1.124,4.9529,2.5414,7.2922,4.0761c-5.2371,0.991-10.4738-0.2936-15.7343-0.2906
		c-5.9017-0.2256-11.6813-1.4903-17.5056-2.3387c-21.0272-3.2245-41.9503-6.9724-62.9841-10.1556
		c-7.6047-1.7018-15.1515-4.3048-23.0315-4.3358c-3.9863,0.1095-6.3828,3.4131-8.2467,6.494
		c2.7566,1.9078,5.8057,3.4385,9.1624,3.8961c6.2357,0.9241,12.1309,3.3289,18.3715,4.2221
		c13.6971,2.1271,27.3648,4.44,41.0745,6.4209c18.0837,1.3613,36.0095,4.4545,53.8369,7.7014
		c-6.2964,2.4001-12.9657,3.5453-19.3256,5.7448c-12.5616,4.202-24.5089,10.004-36.9457,14.5538
		c-11.5596,4.4241-24.0693,6.761-36.4573,5.8573c-5.3707-0.4379-10.1447-3.1732-15.3254-4.343
		c-3.8793,0.5709-7.4257,2.38-11.0826,3.6848c-12.4135,4.6699-24.9189,9.4522-38.0199,11.7801
		c-5.766,1.0553-11.8107,0.9975-17.3992-0.8719c-4.7123-2.1223-7.4244-7.251-7.7432-12.2546
		c-0.479-6.3309,1.5956-12.4796,2.3599-18.7087c-8.5954,1.6126-16.1225,8.0408-19.1567,16.2389
		c-2.505,7.3293-0.8486,15.3813,2.2865,22.2493c6.1242,12.2523,17.8856,22.3915,31.8304,23.8911
		c6.5002,1.1248,13.0398-0.7393,19.127-2.8868c-18.7691,14.6598-41.437,22.9974-63.4931,31.3473
		c-6.7523,2.3384-13.2616,5.414-20.1741,7.2932c1.3087-6.9261,4.4171-13.5884,3.8847-20.785
		c-0.326-5.8939-0.7547-12.8095-5.5264-16.9626c-10.0021-7.0137-23.1729-9.7242-34.9734-6.1849
		c-15.2122,4.4888-27.5732,14.8716-41.6019,21.8628c7.2402,13.902,11.1375,29.5674,20.806,42.1404
		c7.4665,9.7996,19.7151,15.3483,31.9294,15.5532c6.3015-0.5552,10.7133-5.8981,14.4413-10.4747
		c4.6608-5.5092,6.062-12.7262,9.0743-19.0988c4.4877,5.5834,7.9461,11.8976,12.0343,17.7584
		c12.9358,19.7194,26.3738,39.7886,32.9415,62.6808c-3.6624-5.3153-7.8573-10.6674-13.7772-13.5781
		c-12.163-6.9833-27.6378-5.6937-39.7941,0.6189c-6.5733,3.7135-12.6462,9.2541-14.9277,16.6561
		c-2.364,8.4159-0.0528,18.0406,5.9531,24.3976c3.0431-5.4888,4.9789-11.6826,9.0876-16.5228
		c3.199-3.8607,8.4077-6.4158,13.4675-5.3629c5.62,1.7725,10.5442,5.2787,14.5887,9.5216
		c9.2306,9.5839,16.5367,20.8033,23.8345,31.8778c2.1917,3.2051,3.9973,6.7531,6.8002,9.4952
		c4.8789,2.0988,10.3489,2.692,14.9512,5.4945c10.5533,6.5504,19.3003,15.7939,26.0518,26.1677
		c7.3873,10.9911,13.6424,22.7075,21.3351,33.4905c3.8524,5.5177,8.5748,10.3642,12.2581,16.007
		c-16.3312-7.8519-32.6516-15.886-48.0817-25.414c-12.2558-6.4558-24.6726-12.6182-37.0041-18.9484
		c-5.5737-2.9455-11.7567-4.4651-17.3445-7.3827c-2.9846-1.6028-6.3511-2.1566-9.7025-2.2335
		c-0.303,3.5881-0.306,7.6694,2.8546,10.1011c6.3932,4.6067,14.0287,6.9367,21.1814,10.0298
		c18.8877,9.788,38.0178,19.0543,56.9245,28.8051c5.2106,2.7371,10.6297,5.111,15.5369,8.3975
		c4.2542,3.0945,9.2457,5.1332,12.9001,9.0132c-2.7946-0.1334-5.5696-0.3976-8.2954-0.9886
		c-25.2368-5.4324-51.3164-3.2928-76.6542,0.2689c-3.514,0.4034-7.0373,1.4005-10.5876,1.0463
		c-4.1642-1.406-6.2542-5.6855-9.4829-8.3748c-5.3579-5.5105-13.323-6.894-20.6485-7.5527
		c-10.953-0.7003-21.9526,1.0396-32.868-0.3103c-5.2695-0.5262-9.8905-3.3383-14.4488-5.7899
		c-4.7779-2.4579-7.689-8.8101-5.3505-13.86c2.7551-6.973,8.9243-11.6434,12.8519-17.8781
		c-8.023-2.9969-17.7726-2.0984-24.3522,3.6766c-7.981,6.8679-10.8373,17.9307-10.5219,28.1108
		c-0.033,9.8969,3.1149,20.1591,10.1385,27.3279c3.7841,4.0399,9.2467,5.6148,13.9486,8.2452
		c-16.6276,6.5684-34.6805,8.1284-52.3234,9.8739c-7.295,0.2485-14.688,1.7024-21.9276,0.2075
		c2.6377-11.8313,6.8898-25.0808,0.5671-36.5266c-5.0182-8.9862-16.0342-10.6219-25.3604-11.3145
		c-22.9465-1.0625-45.8688,4.5512-68.781,1.4413c-7.9555-0.8037-15.4464-4.3154-21.8628-8.9457
		c-7.4081-7.6345-10.3434-18.7974-9.7687-29.2278c0.5542-5.877,1.7197-12.2169,6.0166-16.5975
		c5.0842-5.8567,13.1958-8.3757,20.7801-7.9488c6.51,0.9236,10.8178,6.8142,12.7743,12.6682
		c2.553,7.9529,1.9417,16.4288,3.4741,24.5657c0.8392,0.3102,1.6877,0.6252,2.5361,0.9402
		c5.0999-6.0716,10.0073-13.2853,9.8035-21.543c-0.2975-10.077-7.5143-18.8929-16.5496-22.8044
		c-8.141-4.6995-18.1065-5.5417-27.1011-3.1089c-9.4789,2.8079-17.3176,10.0181-21.4573,18.9254
		c-8.6031,16.1478-8.1987,36.1694-0.6191,52.6083c6.5858,14.9588,17.7886,27.7179,31.4044,36.6852
		c7.2968,5.067,14.7331,10.2053,23.2388,13.0609c23.4783,9.8275,49.4023,12.806,74.6677,10.7678
		c29.2607-1.7741,57.7104-9.4403,86.7415-12.9974c3.1125-0.4672,6.4068-0.877,9.3028,0.6924
		c-5.9512,4.2886-13.913,4.9248-19.1664,10.2846c-7.1531,8.3796-8.8447,20.4945-5.383,30.8245
		c3.2712,10.3918,11.7607,19.1987,22.4731,21.7734c7.4005,1.2483,14.2156-2.9167,21.551-2.9453
		c-1.4204,2.9719-4.3264,4.5768-7.1191,6.0282c-25.5774,14.1864-53.0999,24.7067-77.815,40.4703
		c-21.6382,13.2017-40.8604,30.8491-54.0783,52.6c-5.2028,7.3097-8.1987,15.8375-11.1236,24.2258
		c-5.7446,15.2578-7.3082,32.1649-3.8437,48.1379c3.5305,17.7546,14.9718,34.1901,31.4233,42.1971
		c8.5846,4.7729,19.1643,5.9987,28.4834,2.6987c8.7068-3.3187,16.2739-9.8577,20.0978-18.4448
		c5.0106-8.4752,5.6673-19.8494-0.0152-28.1766c-4.6889-6.8004-12.8992-9.752-20.5939-11.6664
		c-0.5013,0.7535-1.0025,1.5071-1.4991,2.2513c3.543,7.4836,9.0196,13.9814,11.6288,21.9161
		c1.8581,5.886,1.8354,13.1836-2.8884,17.7573c-5.8849,4.8033-13.928,7.5333-21.4837,5.7836
		c-6.0512-1.0184-10.7205-5.4624-14.6233-9.8912c-6.5958-8.1006-10.7825-18.8569-9.2766-29.3877
		c2.4694-7.5175,6.4655-14.7615,12.4292-20.0879c16.7084-15.9834,38.5526-24.9153,56.4922-39.2623
		c7.138-6.0421,15.0887-13.8406,13.8665-24.0602c-1.6125-12.9762-12.8404-21.1959-21.9286-29.2173
		c4.9784-5.4647,11.814-8.6339,17.8618-12.7208c15.2993-8.958,30.8214-18.3073,48.1343-22.7667
		c-2.2578,4.8917-5.7514,9.3766-6.4383,14.8693c-1.4685,9.928,2.0168,20.0807,7.8607,28.068
		c5.7285,8.4211,14.5419,15.6923,25.0355,16.5574c8.7175,0.8048,17.1332-4.1991,21.8625-11.3394
		c-6.8422-2.7355-14.5783-2.8877-20.9058-6.9095c-4.8602-2.7109-6.2387-9.561-3.8181-14.3579
		c2.2467-4.6627,4.3323-9.6539,8.2861-13.1769c8.0373-7.5079,17.9588-12.5658,26.4084-19.5704
		c5.5392-4.8386,11.17-10.6398,12.2656-18.2471c1.0314-4.0735,0.2068-8.7642,2.7492-12.3494
		c2.6641-2.3734,6.1005-3.6376,9.1805-5.3767c22.5922-12.0117,44.9487-25.61,62.1727-44.8387
		c1.8577-2.0803,3.9475-3.9251,6.13-5.6757c-0.6759,5.287-3.5158,9.8704-5.1386,14.8744c-2.0383,5.5432-5.027,10.649-7.6337,15.9261
		c-9.5645,19.0016-19.5945,37.7426-29.1217,56.7631c-3.9686,6.7067-8.7762,13.0797-11.2407,20.5645
		c-1.1277,3.825,1.2737,7.1251,3.6279,9.8499c2.6662-2.0321,5.0642-4.459,6.5367-7.51c2.8057-5.6448,6.9146-10.5084,9.6926-16.1675
		c6.2556-12.3695,12.6788-24.6536,18.7993-37.0801c6.8829-16.778,15.364-32.8706,23.9609-48.8221
		c0.337,6.73-0.6348,13.4266-0.5083,20.155c0.1146,13.2454,1.9408,26.4008,2.4247,39.6349
		c0.6354,12.361-1.0078,24.9805-5.6954,36.4829c-2.076,4.9725-6.1527,8.6676-8.8662,13.2333
		c-0.6558,3.866-0.0311,7.7977,0.0797,11.679c0.6053,13.2489,1.2892,26.6201-0.5452,39.7992
		c-0.7781,5.8099-2.701,11.5409-6.2059,16.2782c-3.4745,3.8259-9.1904,4.8204-14.0477,3.5774
		c-6.1691-1.5009-11.3757-5.3739-17.0638-8.0258c-1.1224,8.6731,2.6651,17.8181,9.5244,23.2372
		c6.1966,4.6473,14.3663,5.5602,21.8669,4.7008c13.5452-2.0383,26.8226-10.0908,32.5579-22.8896
		c3.0784-5.8345,3.3264-12.6301,3.165-19.083c8.1423,22.3806,9.0671,46.5155,10.1926,70.0724
		c0.1374,7.1445,1.051,14.2855,0.7021,21.4404c-6.1827-3.3849-11.5584-8.4-18.5673-10.1176
		c-5.7062-1.5112-12.4158-3.2406-17.8401,0.0142c-9.7612,7.3452-16.4091,19.0338-16.6895,31.3505
		c-0.4318,15.8549,5.6231,30.8192,7.9371,46.3218c15.4589-2.5898,31.5619-1.4556,46.5073-6.7656
		c11.6272-4.0728,20.6894-14.0072,24.6587-25.5604c1.4193-6.1647-2.2988-12.0116-5.4994-16.9714
		c-3.7993-6.135-10.2301-9.6979-15.3599-14.532c6.6968-2.5428,13.7707-3.8807,20.608-5.9578
		c22.7517-6.209,45.9912-12.7876,69.7925-11.9598c-6.1869,1.8406-12.5733,4.1764-17.1709,8.9071
		c-10.4001,9.4097-13.9556,24.5256-11.7085,38.0377c1.5005,7.399,4.8933,14.8868,11.228,19.344
		c7.2734,4.849,17.1414,5.6251,25.0431,1.8776c-4.2798-4.5903-9.5722-8.3452-12.9059-13.7487
		c-2.6832-4.2354-3.5037-9.9788-0.9387-14.4655c3.4224-4.7972,8.2787-8.397,13.5638-10.9324
		c11.9672-5.8173,24.8953-9.2987,37.6829-12.8173c3.7255-1.0939,7.6578-1.7148,11.1319-3.5332
		c3.5037-3.9915,5.7582-9.0105,9.8458-12.5215c9.491-8.0127,20.985-13.4751,32.9374-16.6906
		c12.7359-3.6293,25.8118-5.9576,38.4442-9.9418c6.4382-1.9587,12.5067-4.9524,19.0115-6.7117
		c-12.5142,13.1055-25.1983,26.1444-39.0282,37.8751c-9.9271,9.6609-19.6249,19.5658-29.4559,29.3375
		c-4.5237,4.3907-7.8795,9.8015-12.3811,14.2142c-2.4467,2.3433-4.0137,5.3739-5.1224,8.5376
		c3.3188,1.3969,7.1995,2.6609,10.4888,0.4065c6.3569-4.6569,10.9323-11.1985,16.0844-17.0453
		c15.1456-14.9386,29.8698-30.269,44.9859-45.2372c4.2133-4.1099,8.1456-8.53,12.7876-12.1815
		c4.2576-3.0897,7.7391-7.2069,12.5585-9.4835c-0.9905,2.6166-2.0992,5.1742-3.5037,7.5839
		c-12.9651,22.3229-18.9893,47.7874-23.4317,72.9856c-0.7023,3.4667-0.8427,7.1256-2.2767,10.3927
		c-2.624,3.5259-7.3399,4.1912-10.8953,6.4308c-6.8965,3.3928-10.6736,10.5405-13.5638,17.304
		c-4.0507,10.2006-5.7951,21.1995-10.4519,31.1635c-2.1288,4.849-6.2312,8.3748-9.9714,11.9524
		c-3.8141,3.7845-10.7549,4.5902-14.8351,0.8057c-5.7803-4.775-8.3157-12.0854-13.0316-17.7474
		c-5.3294,6.7042-7.4878,16.2543-4.0285,24.2965c4.0654,9.7126,13.7042,15.8478,23.4835,18.6936
		c9.4022,3.0897,20.135,3.2671,29.1233-1.1974c5.0115-2.3506,8.1974-7.0592,12.152-10.718
		c1.1088,17.8435-2.9863,35.4949-6.7782,52.8137c-2.0179,7.0148-2.9197,14.4951-6.5786,20.9185
		c-10.4371-6.1647-21.7242-14.303-34.5636-11.8267c-10.0971,1.9957-15.0569,11.9672-18.5975,20.6228
		c-8.1013,21.4951-9.8457,45.0303-19.8837,65.86c-3.2228,7.3179-8.8774,13.3569-15.2639,18.0284
		c-9.55,4.6863-21.0737,4.0284-30.816,0.2587c-5.4181-2.3431-11.0875-5.4106-13.9259-10.851
		c-3.999-6.6451-3.8881-15.1383-1.1384-22.2195c2.8901-5.9059,9.8236-8.1826,15.9957-8.2344
		c8.3526,0.0295,16.2248,3.2301,24.437,4.2872c0.5544-0.7023,1.1161-1.4119,1.6779-2.1215
		c-4.1985-6.7264-9.5427-13.6229-17.4592-15.9808c-9.6757-2.8311-20.2902,1.3083-26.8023,8.6926
		c-6.9852,6.2903-10.8657,15.5078-11.3315,24.814c-0.2587,9.8827,4.1763,19.5658,11.3685,26.2554
		c12.699,13.172,31.8656,18.9744,49.8422,16.8456c16.2618-1.6409,31.8583-8.3525,44.5941-18.5309
		c7.0739-5.3739,14.2586-10.8585,19.6028-18.0654c16.6017-19.2924,27.4454-43.0271,33.3143-67.6858
		c7.3548-28.3767,8.8553-57.8031,14.4434-86.5125c0.5175-3.1045,1.1458-6.3643,3.5332-8.6335
		c2.2397,6.9852,0.3845,14.7539,3.8585,21.4064c5.759,9.3925,16.7583,14.745,27.6523,14.6449
		c10.894,0.1001,21.8933-5.2524,27.6524-14.6449c3.4741-6.6525,1.6188-14.4211,3.8585-21.4064
		c2.3875,2.2693,3.0158,5.5291,3.5332,8.6335c5.5881,28.7094,7.0886,58.1357,14.4434,86.5125
		c5.869,24.6587,16.7126,48.3934,33.3144,67.6858c5.3442,7.2069,12.5289,12.6915,19.6028,18.0654
		c12.7359,10.1783,28.3323,16.89,44.5941,18.5309c17.9766,2.1288,37.1432-3.6736,49.8422-16.8456
		c7.1921-6.6896,11.6272-16.3727,11.3685-26.2554c-0.4658-9.3062-4.3464-18.5237-11.3315-24.814
		c-6.5121-7.3843-17.1266-11.5237-26.8024-8.6926c-7.9165,2.3579-13.2607,9.2544-17.4592,15.9808
		c0.5618,0.7096,1.1235,1.4192,1.678,2.1215c8.2121-1.0571,16.0843-4.2577,24.437-4.2872
		c6.172,0.0518,13.1055,2.3285,15.9956,8.2344c2.7498,7.0812,2.8606,15.5743-1.1383,22.2195
		c-2.8385,5.4403-8.5078,8.5078-13.9259,10.851c-9.7423,3.7698-21.266,4.4276-30.816-0.2587
		c-6.3865-4.6715-12.0411-10.7106-15.2639-18.0284c-10.0379-20.8297-11.7823-44.3649-19.8837-65.86
		c-3.5406-8.6556-8.5004-18.6271-18.5975-20.6228c-12.8395-2.4763-24.1265,5.662-34.5636,11.8267
		c-3.6589-6.4233-4.5607-13.9037-6.5787-20.9185c-3.7919-17.3188-7.8869-34.9702-6.7781-52.8137
		c3.9546,3.6588,7.1404,8.3674,12.1519,10.718c8.9883,4.4645,19.7211,4.2871,29.1234,1.1974
		c9.7792-2.8458,19.418-8.981,23.4835-18.6936c3.4592-8.0422,1.3009-17.5923-4.0286-24.2965
		c-4.7159,5.662-7.2513,12.9724-13.0316,17.7474c-4.0801,3.7845-11.021,2.9789-14.8351-0.8057
		c-3.7402-3.5776-7.8426-7.1034-9.9714-11.9524c-4.6568-9.964-6.4012-20.9629-10.4518-31.1635
		c-2.8901-6.7634-6.6674-13.9111-13.5638-17.304c-3.5554-2.2396-8.2713-2.9049-10.8953-6.4308
		c-1.434-3.2671-1.5744-6.926-2.2766-10.3927c-4.4424-25.1982-10.4667-50.6627-23.4317-72.9856
		c-1.4045-2.4097-2.5132-4.9673-3.5037-7.5839c4.8194,2.2766,8.3008,6.3938,12.5585,9.4835
		c4.642,3.6515,8.5743,8.0717,12.7877,12.1815c15.116,14.9681,29.8403,30.2986,44.9858,45.2372
		c5.152,5.8468,9.7275,12.3884,16.0844,17.0453c3.2893,2.2544,7.17,0.9904,10.4888-0.4065
		c-1.1088-3.1637-2.6758-6.1943-5.1224-8.5376c-4.5016-4.4127-7.8574-9.8235-12.3811-14.2142
		c-9.831-9.7717-19.5289-19.6766-29.4559-29.3375c-13.8299-11.7307-26.514-24.7697-39.0283-37.8751
		c6.5048,1.7593,12.5734,4.7529,19.0115,6.7117c12.6324,3.9841,25.7083,6.3125,38.4443,9.9418
		c11.9523,3.2155,23.4465,8.6779,32.9374,16.6906c4.0876,3.511,6.3421,8.53,9.8458,12.5215
		c3.4741,1.8184,7.4065,2.4393,11.1319,3.5332c12.7876,3.5186,25.7158,7,37.6829,12.8173
		c5.285,2.5354,10.1414,6.1351,13.5637,10.9324c2.5649,4.4867,1.7445,10.2301-0.9387,14.4655
		c-3.3337,5.4034-8.6261,9.1583-12.9059,13.7487c7.9017,3.7476,17.7697,2.9714,25.0431-1.8776
		c6.3347-4.4572,9.7274-11.9449,11.2279-19.344c2.2472-13.5121-1.3083-28.6281-11.7084-38.0377
		c-4.5977-4.7307-10.984-7.0665-17.1709-8.9071c23.8013-0.8278,47.0408,5.7509,69.7924,11.9598
		c6.8373,2.077,13.9113,3.4149,20.608,5.9578c-5.1298,4.8341-11.5605,8.397-15.3599,14.532
		c-3.2007,4.9598-6.9187,10.8068-5.4994,16.9714c3.9692,11.5532,13.0315,21.4877,24.6587,25.5604
		c14.9453,5.3101,31.0483,4.1758,46.5072,6.7656c2.314-15.5026,8.3689-30.4669,7.9371-46.3218
		c-0.2805-12.3167-6.9283-24.0052-16.6896-31.3505c-5.4243-3.2548-12.1339-1.5254-17.8401-0.0142
		c-7.0089,1.7175-12.3845,6.7327-18.5673,10.1176c-0.3489-7.1549,0.5646-14.2959,0.702-21.4404
		c1.1255-23.5569,2.0503-47.6918,10.1926-70.0724c-0.1614,6.4529,0.0865,13.2485,3.165,19.083
		c5.7352,12.7988,19.0127,20.8513,32.5579,22.8896c7.5006,0.8594,15.6704-0.0535,21.8669-4.7008
		c6.8593-5.4191,10.6467-14.5641,9.5244-23.2372c-5.6882,2.6519-10.8949,6.5249-17.0638,8.0258
		c-4.8573,1.243-10.5731,0.2485-14.0477-3.5774c-3.5048-4.7373-5.4277-10.4683-6.2058-16.2782
		c-1.8345-13.1791-1.1505-26.5503-0.5453-39.7992c0.1108-3.8812,0.7355-7.813,0.0797-11.679
		c-2.7135-4.5657-6.7902-8.2607-8.8662-13.2333c-4.6875-11.5024-6.3308-24.1219-5.6953-36.4829
		c0.4839-13.2341,2.3102-26.3895,2.4247-39.6349c0.1266-6.7283-0.8452-13.425-0.5083-20.155
		c8.5969,15.9515,17.0781,32.0441,23.9609,48.8221c6.1205,12.4265,12.5438,24.7106,18.7993,37.0801
		c2.778,5.6591,6.8868,10.5227,9.6926,16.1675c1.4725,3.051,3.8705,5.4779,6.5367,7.51c2.3541-2.7247,4.7555-6.0249,3.6278-9.8499
		c-2.4645-7.4847-7.2721-13.8578-11.2407-20.5645c-9.5272-19.0205-19.5573-37.7615-29.1217-56.7631
		c-2.6067-5.277-5.5953-10.3829-7.6338-15.9261c-1.6227-5.004-4.4626-9.5873-5.1385-14.8744
		c2.1825,1.7506,4.2723,3.5954,6.13,5.6757c17.224,19.2287,39.5804,32.827,62.1727,44.8387c3.08,1.7391,6.5165,3.0033,9.1805,5.3767
		c2.5424,3.5852,1.7178,8.2759,2.7491,12.3494c1.0957,7.6073,6.7263,13.4084,12.2656,18.2471
		c8.4496,7.0046,18.3711,12.0625,26.4083,19.5704c3.9539,3.5229,6.0394,8.5142,8.2861,13.1769
		c2.4207,4.7969,1.0421,11.647-3.8181,14.3579c-6.3275,4.0219-14.0636,4.1741-20.9058,6.9095
		c4.7292,7.1403,13.1449,12.1442,21.8624,11.3394c10.4937-0.8651,19.307-8.1362,25.0355-16.5574
		c5.844-7.9873,9.3293-18.14,7.8607-28.068c-0.6868-5.4927-4.1804-9.9775-6.4382-14.8693
		c17.3129,4.4595,32.835,13.8087,48.1343,22.7667c6.0479,4.0869,12.8834,7.2561,17.8618,12.7208
		c-9.0883,8.0214-20.316,16.2411-21.9286,29.2173c-1.2222,10.2196,6.7285,18.0181,13.8665,24.0602
		c17.9396,14.347,39.7838,23.2789,56.4922,39.2623c5.9637,5.3264,9.9598,12.5704,12.4292,20.0879
		c1.5059,10.5308-2.6808,21.2871-9.2766,29.3877c-3.9027,4.4288-8.572,8.8728-14.6233,9.8912
		c-7.5557,1.7498-15.5988-0.9802-21.4836-5.7836c-4.7238-4.5737-4.7466-11.8713-2.8884-17.7573
		c2.6093-7.9347,8.0858-14.4325,11.6288-21.9161c-0.4966-0.7443-0.9978-1.4978-1.499-2.2513
		c-7.6947,1.9144-15.905,4.866-20.594,11.6664c-5.6824,8.3273-5.0258,19.7014-0.0151,28.1766
		c3.824,8.5872,11.3911,15.1261,20.0979,18.4448c9.3191,3.2999,19.8987,2.0742,28.4833-2.6987
		c16.4515-8.0071,27.8928-24.4425,31.4233-42.1971c3.4645-15.973,1.9009-32.8801-3.8438-48.1379
		c-2.9248-8.3883-5.9208-16.9161-11.1235-24.2258c-13.2179-21.7509-32.4401-39.3983-54.0782-52.6
		c-24.7152-15.7637-52.2377-26.2839-77.8151-40.4703c-2.7927-1.4514-5.6987-3.0563-7.1191-6.0282
		c7.3354,0.0286,14.1505,4.1936,21.551,2.9453c10.7124-2.5747,19.2019-11.3816,22.4731-21.7734
		c3.4617-10.33,1.7701-22.4448-5.3831-30.8245c-5.2533-5.3598-13.2151-5.996-19.1663-10.2846
		c2.8959-1.5693,6.1903-1.1596,9.3027-0.6924c29.0311,3.5571,57.4808,11.2233,86.7416,12.9974
		c25.2654,2.0382,51.1893-0.9403,74.6676-10.7678c8.5057-2.8556,15.942-7.9938,23.2388-13.0609
		c13.6158-8.9673,24.8186-21.7264,31.4044-36.6852c7.5797-16.439,7.984-36.4606-0.619-52.6083
		c-4.1396-8.9073-11.9784-16.1175-21.4573-18.9254c-8.9946-2.4328-18.9602-1.5905-27.1011,3.1089
		c-9.0353,3.9115-16.2521,12.7274-16.5497,22.8044c-0.2037,8.2577,4.7037,15.4714,9.8036,21.543
		c0.8484-0.315,1.6969-0.63,2.536-0.9402c1.5325-8.1369,0.9211-16.6129,3.4741-24.5657c1.9564-5.854,6.2643-11.7446,12.7743-12.6682
		c7.5844-0.4269,15.696,2.0921,20.7802,7.9488c4.2969,4.3807,5.4624,10.7205,6.0166,16.5975
		c0.5747,10.4304-2.3606,21.5933-9.7687,29.2278c-6.4165,4.6303-13.9073,8.142-21.8628,8.9457
		c-22.9122,3.1099-45.8346-2.5038-68.7811-1.4413c-9.3262,0.6926-20.3422,2.3282-25.3604,11.3145
		c-6.3226,11.4458-2.0706,24.6953,0.5671,36.5266c-7.2396,1.4949-14.6326,0.041-21.9276-0.2075
		c-17.6429-1.7455-35.6958-3.3055-52.3234-9.8739c4.7018-2.6304,10.1644-4.2053,13.9485-8.2452
		c7.0237-7.1688,10.1715-17.431,10.1385-27.3279c0.3153-10.1801-2.5409-21.2429-10.522-28.1108
		c-6.5796-5.7751-16.3292-6.6735-24.3523-3.6766c3.9276,6.2347,10.0968,10.905,12.8519,17.8781
		c2.3385,5.0499-0.5726,11.4021-5.3506,13.86c-4.5582,2.4516-9.1792,5.2637-14.4487,5.7899
		c-10.9153,1.3499-21.9149-0.39-32.8679,0.3103c-7.3256,0.6587-15.2906,2.0422-20.6486,7.5527
		c-3.2286,2.6893-5.3187,6.9688-9.4829,8.3748c-3.5503,0.3542-7.0735-0.6429-10.5875-1.0463
		c-25.3378-3.5617-51.4175-5.7013-76.6543-0.2689c-2.7257,0.5911-5.5007,0.8552-8.2953,0.9886
		c3.6544-3.88,8.646-5.9188,12.9001-9.0132c4.9072-3.2864,10.3263-5.6604,15.5369-8.3975
		c18.9067-9.7508,38.0369-19.017,56.9246-28.8051c7.1527-3.0931,14.7881-5.4232,21.1814-10.0298
		c3.1605-2.4317,3.1576-6.513,2.8545-10.1011c-3.3514,0.0769-6.7179,0.6307-9.7025,2.2335
		c-5.5879,2.9176-11.7708,4.4372-17.3445,7.3827c-12.3315,6.3302-24.7484,12.4926-37.0042,18.9484
		c-15.4302,9.528-31.7505,17.5621-48.0817,25.414c3.6832-5.6428,8.4056-10.4893,12.2581-16.007
		c7.6927-10.783,13.9479-22.4994,21.3351-33.4905c6.7516-10.3738,15.4985-19.6173,26.0519-26.1677
		c4.6023-2.8026,10.0723-3.3958,14.9512-5.4945c2.8029-2.7421,4.6085-6.2902,6.8002-9.4952
		c7.2979-11.0745,14.604-22.2939,23.8346-31.8778c4.0444-4.2429,8.9688-7.7491,14.5887-9.5216
		c5.0597-1.0529,10.2684,1.5022,13.4674,5.3629c4.1088,4.8403,6.0444,11.0341,9.0875,16.5228
		c6.006-6.3569,8.3171-15.9817,5.9531-24.3976c-2.2815-7.402-8.3544-12.9426-14.9276-16.6561
		c-12.1564-6.3126-27.6312-7.6022-39.7942-0.6189c-5.9199,2.9107-10.1149,8.2628-13.7772,13.5781
		c6.5677-22.8922,20.0057-42.9614,32.9415-62.6808c4.0883-5.8608,7.5466-12.175,12.0344-17.7584
		c3.0123,6.3726,4.4136,13.5896,9.0743,19.0988c3.728,4.5767,8.1398,9.9195,14.4413,10.4747
		c12.2144-0.205,24.4629-5.7537,31.9294-15.5532c9.6685-12.573,13.5658-28.2384,20.806-42.1404
		c-14.0288-6.9912-26.3898-17.374-41.6019-21.8628c-11.8005-3.5393-24.9713-0.8288-34.9734,6.1849
		c-4.7717,4.1531-5.2004,11.0687-5.5264,16.9626c-0.5325,7.1966,2.576,13.8589,3.8846,20.785
		c-6.9125-1.8792-13.4218-4.9548-20.1741-7.2932c-22.056-8.3499-44.724-16.6875-63.493-31.3473
		c6.0872,2.1475,12.6267,4.0117,19.127,2.8868c13.9447-1.4995,25.7061-11.6388,31.8303-23.8911
		c3.1351-6.868,4.7915-14.92,2.2865-22.2493c-3.0342-8.1981-10.5613-14.6263-19.1566-16.2389
		c0.7643,6.2292,2.8389,12.3778,2.3599,18.7087c-0.3188,5.0037-3.0309,10.1324-7.7433,12.2546
		c-5.5884,1.8694-11.6332,1.9272-17.3992,0.8719c-13.1008-2.3279-25.6063-7.1102-38.0198-11.7801
		c-3.657-1.3047-7.2034-3.1138-11.0826-3.6848c-5.1808,1.1698-9.9547,3.9051-15.3254,4.343
		c-12.3881,0.9037-24.8977-1.4332-36.4573-5.8573c-12.4369-4.5498-24.384-10.3519-36.9457-14.5538
		c-6.36-2.1995-13.0292-3.3447-19.3257-5.7448c17.8274-3.2469,35.7532-6.3401,53.8369-7.7014
		c13.7097-1.9809,27.3773-4.2938,41.0746-6.4209c6.2405-0.8932,12.1357-3.298,18.3713-4.2221
		c3.3568-0.4576,6.4059-1.9883,9.1624-3.8961c-1.8639-3.0809-4.2604-6.3845-8.2466-6.494
		c-7.88,0.0309-15.4268,2.6339-23.0315,4.3358c-21.0338,3.1832-41.9569,6.9311-62.9841,10.1556
		c-5.8242,0.8484-11.6038,2.113-17.5055,2.3387c-5.2606-0.003-10.4972,1.2816-15.7344,0.2906
		c2.3394-1.5347,4.7396-2.9521,7.2922-4.0761c23.61-10.439,43.4513-27.4991,61.8564-45.2738
		c2.6058-2.3918,4.8701-5.2694,7.9506-7.0697c4.1953-1.3101,8.4016,0.9236,12.5945,1.2015
		c7.5736,1.3088,14.8307-2.2537,21.1443-6.0266c9.2728-5.8716,17.149-13.7444,26.7732-19.0683
		c4.5724-2.6716,9.9637-3.1128,15.0925-3.8087c5.3101-0.8199,11.3989,2.608,12.4753,8.0681
		c1.8698,7.2607-0.3761,14.6652,0.1111,22.0178c8.2523-2.2913,15.6118-8.7488,17.5403-17.2884
		c2.4199-10.2474-1.7719-20.8763-8.0106-28.9267c-5.7905-8.0262-14.3693-14.4782-24.2651-16.1495
		c-5.436-1.0441-10.781,0.8926-16.131,1.5283c9.5912-15.0875,23.2793-26.9608,36.5267-38.7431
		c5.7557-4.489,10.8822-10.0107,17.6178-13.0566c4.8203,11.1221,9.1682,24.3405,21.011,29.884
		c9.3418,4.3204,19.2153-0.8314,27.1675-5.7529c19.1886-12.6281,34.4335-30.643,54.7979-41.5945
		c6.9086-4.0259,15.033-5.5879,22.9456-5.6134c10.4807,1.8221,19.4169,9.1277,25.0828,17.9039
		c3.006,5.0804,5.7896,10.8944,4.8882,16.9641c-0.6707,7.7266-5.7526,14.5324-12.1393,18.645
		c-5.8097,3.0792-12.7571,0.8458-17.7808-2.7403c-6.7401-4.9334-11.2275-12.1499-17.25-17.8321
		c-0.8613,0.2422-1.7329,0.4861-2.6045,0.73c-0.557,7.9096-0.2871,16.6302,4.7316,23.191
		c6.1638,7.9776,17.1841,10.8679,26.7928,8.7215c9.3485-0.9832,17.9059-6.1593,23.7527-13.4144
		c6.0182-7.8432,8.1218-18.2838,6.2352-27.9232c-2.5314-18.1206-14.627-34.0808-30.4215-42.925
		c-14.1206-8.2308-30.6835-11.9684-46.9697-11.2199c-8.8815,0.1896-17.9178,0.4037-26.4775,3.093
		c-24.7709,5.8495-47.4945,18.6776-66.7366,35.1772c-22.6296,18.6342-41.1399,41.5587-62.5358,61.5005
		c-2.2434,2.2075-4.6677,4.4753-7.9331,4.9079c2.2939-6.9676,8.3611-12.1621,9.4608-19.5861
		C1182.4106,472.2336,1176.6582,461.438,1167.7859,455.1157z M862.1154,440.0658c3.0416,3.5546,6.1657,7.0362,9.3474,10.4519
		c14.3078,15.6945,30.1105,29.9351,44.7128,45.3501c4.806,5.2186,9.9473,10.2148,13.7483,16.2382
		c-10.9155-1.8273-17.9377-11.6163-27.9218-15.5809c-7.2326-3.0985-16.5266-3.1083-22.8358,2.0293
		c-11.4821,10.0315-13.5124,29.2874-4.2077,41.3927c3.5604,3.9024,7.9377,8.1517,13.5457,8.343
		c1.244-7.8491,0.8611-16.4142,5.2961-23.361c1.9425-3.0383,5.9723-3.8564,9.2574-2.8951
		c8.0315,2.0618,14.4034,7.678,21.2182,12.0811c9.6883,6.308,19.2245,13.7939,30.889,15.873
		c6.1861,1.1687,12.1858-1.1786,17.8807-3.2448c11.9642,11.9909,21.9861,25.7501,31.7497,39.5501
		c5.699,8.718,11.9293,17.1825,16.2435,26.7125c-2.6053-2.1486-5.0111-4.5087-7.4273-6.8672
		c-10.5317-10.6302-23.43-18.6948-36.986-24.8984c-15.6096-7.0742-32.6988-11.3951-49.9139-10.9652
		c-7.8474,1.1053-16.0163,1.5842-23.2779,5.0522c-9.4747,3.8608-17.6743,10.6948-23.2362,19.2807
		c-5.8573,9.1936-9.8778,20.3612-7.8492,31.3645c1.5809,9.1797,2.2865,18.6463,5.8062,27.3708
		c5.6898,15.8105,13.5064,30.8821,17.5727,47.2673c2.0988,9.1082,1.8333,19.6601-4.2758,27.2636
		c-3.7139,5.9541-10.2393,8.9245-15.7549,12.8568c7.3204,4.7886,16.9056,6.8372,25.2623,3.7355
		c9.084-3.9894,14.4515-13.4019,16.2975-22.7962c2.5914-9.7664,0.5209-19.8318-1.4532-29.489
		c-2.0103-8.1486-7.701-14.4761-12.2296-21.2837c11.1116,3.934,16.6599,15.7769,27.4951,20.1041
		c2.7782,1.3698,5.8875,0.6869,8.8083,0.3513c0.2154-6.4584-4.7769-11.3829-10.2838-13.8765
		c-5.0272-2.7387-11.7999-3.4017-14.7041-8.9744c7.7968-0.1553,15.7663-0.6238,23.2038-3.1142
		c15.5938-6.7245,20.5053-27.5692,13.108-41.998c-3.3143-7.5611-10.299-13.9058-18.7836-14.5517
		c-6.6801-0.0109-13.9973,1.8359-18.2781,7.3507c5.9241,1.0515,12.593,1.5934,16.9755,6.2758
		c5.7164,5.2861,5.9385,13.9719,3.312,20.8441c-2.4896,7.8029-9.0612,14.1567-17.0038,16.198
		c-6.5005,1.5904-13.2949-1.08-18.1772-5.3764c-7.8686-6.9138-12.2444-16.8997-14.6746-26.8975
		c-1.009-8.7094,0.8577-17.9059,6.4133-24.861c11.6235-15.4199,31.3943-23.1023,50.3417-23.0869
		c18.5823,0.3167,36.2022,8.7235,50.1903,20.595c12.6382,10.8998,23.0043,24.361,30.5648,39.2191
		c-9.1029-3.6808-18.9787-7.6308-28.9482-5.2897c-5.7421,1.0999-10.8239,6.8369-8.6194,12.8698
		c5.711-0.2273,11.5844-0.5648,17.1127,1.1949c6.9315,1.9149,13.1002,5.8821,18.1713,10.9302
		c6.368,3.263,12.0473,7.9038,16.0104,13.9044c3.382,4.7139,4.876,10.4042,6.4246,15.9058
		c6.4188,0.2323,10.3047-6.3736,9.5764-12.1745c-0.8544-10.2051-7.6627-18.3769-13.9763-25.8968
		c16.4672,2.599,32.4728,8.2981,46.7446,16.9495c15.613,9.6349,29.0533,23.7946,35.0967,41.3696
		c5.8698,18.0153,4.6729,39.1924-6.4005,55.012c-4.8978,7.4329-13.0674,12.0502-21.6624,13.7819
		c-10.2594,0.7783-21.1088-0.2975-30.1157-5.6445c-5.5948-3.3156-10.2341-8.9523-10.7303-15.6261
		c-0.5129-8.1847,3.4991-16.3981,10.1508-21.1771c5.7242-4.6215,14.0536-7.0944,20.8473-3.2913
		c5.8076,2.721,8.3838,8.8961,11.2145,14.2053c3.922-5.7755,3.4172-13.3052,1.3427-19.655
		c-3.2362-7.8698-11.4287-12.552-19.6439-13.3676c-16.0085-2.5765-34.3153,8.536-35.892,25.4445
		c-0.0701,7.8431,1.947,15.5673,4.2086,23.0305c-6.1974-1.04-8.9208-7.2764-13.079-11.2111
		c-4.0731-4.4668-10.2994-7.693-16.3751-5.4924c0.5834,2.8817,0.8948,6.0497,3.056,8.2687
		c7.4637,8.9677,20.4415,10.5848,27.6166,19.9369c-7.8739-2.2032-15.6503-5.6602-24.0212-5.054
		c-9.7946,1.1068-20.0071,2.248-28.4948,7.7305c-8.3641,4.6587-15.6573,12.6721-16.6443,22.5443
		c-0.3675,8.9062,4.5428,17.3893,11.3592,22.8716c2.0354-6.4609,2.844-13.5848,7.3591-18.9568
		c5.3435-8.1597,15.2969-11.673,24.6079-12.4915c16.8398-1.196,33.5892,1.5806,50.3841,2.1063
		c9.3851,0.6514,18.6063-1.6029,27.8254-2.936c11.0916-1.4709,20.4702-8.7457,27.4038-17.1572
		c6.447-7.9429,10.4126-17.853,11.1566-28.0571c1.0543-7.9778-1.0145-15.8949-2.3883-23.6997
		c-4.9109-16.5055-14.3011-31.423-25.8528-44.0826c-10.089-10.9756-21.7446-20.7504-35.1091-27.4818
		c-2.9897-1.5692-5.9778-3.1279-8.8263-4.9417c10.3967,1.158,20.3722,4.4678,30.4246,7.1938
		c16.1417,5.0214,32.3245,10.3008,47.4257,17.9742c-0.2053,6.0546-0.5837,12.486,2.4393,18.0082
		c5.5819,10.4511,15.6482,17.2074,24.6414,24.4722c6.2935,5.1207,13.6038,9.4452,18.0466,16.4464
		c1.9294,2.8272,2.3966,6.9127,0.1073,9.699c-5.2363,6.3646-13.5006,8.6472-20.5811,12.2559
		c1.9149,5.2744,7.309,8.1243,12.1206,10.3046c14.3881,5.1086,32.0741-2.7728,38.0664-16.7928
		c2.9365-7.588,0.0553-16.4241-5.1267-22.3452c-6.8557-8.2703-18.3356-11.9238-23.4465-21.7404
		c6.9032,1.7537,13.2435,5.0994,19.6919,8.0576c19.1729,9.1241,37.5997,19.7527,56.9475,28.5104
		c4.2317,1.9705,8.5083,3.8658,12.8289,5.66c-2.4407,3.9911-4.7865,8.0383-7.0519,12.1197
		c-10.505,18.4574-19.1653,37.8872-29.3135,56.5383c-3.4781,6.1833-6.641,12.6169-11.1949,18.0933
		c-1.6353-10.9459,5.5046-20.6495,6.1899-31.3699c0.7119-7.8362-2.1509-16.6783-8.9866-21.0911
		c-13.0887-7.8202-32.0297-3.8008-40.6671,8.7893c-2.6111,4.592-5.2998,10.0682-3.7488,15.4608
		c7.8492-1.2423,15.877-4.2532,23.8542-2.1819c3.4897,0.9085,5.5132,4.4883,5.614,7.9097c0.521,8.2755-2.8513,16.0711-4.933,23.913
		c-3.0055,11.1634-7.178,22.5461-5.5509,34.2822c0.8002,6.2444,4.8865,11.2252,8.6115,16.0028
		c-7.7069,15.0841-17.6957,28.8672-27.8031,42.4174c-6.5303,8.1141-12.6553,16.6552-20.3856,23.7031
		c1.2384-3.1417,2.7395-6.1591,4.236-9.1859c6.8555-13.3012,10.5396-28.0602,12.2504-42.8698
		c1.9044-17.0316,0.733-34.6196-4.9956-50.8594c-3.4762-7.1217-6.4561-14.7428-11.9982-20.5773
		c-6.5997-7.818-15.6331-13.5044-25.5175-16.1409c-10.5536-2.7296-22.4171-3.1024-32.255,2.2271
		c-8.2419,4.3403-17.0271,7.9366-24.2369,13.9801c-13.2784,10.2971-25.1969,22.3884-39.5236,31.319
		c-8.0138,4.8107-18.1313,7.8188-27.2505,4.3583c-6.8104-1.6921-11.6519-6.9802-17.0962-11.0109
		c-2.2921,8.4419-1.2784,18.191,4.2538,25.1802c6.6012,7.4067,17.2117,9.6028,26.7166,8.4554
		c10.0892-0.5535,19.0222-5.6329,27.5967-10.4946c7.1285-4.43,11.3878-11.7975,16.4629-18.2081
		c-0.3079,11.7834-9.8567,20.7198-10.6238,32.3619c-0.4442,3.0655,1.1661,5.8116,2.3879,8.4858
		c6.2089-1.7909,9.3496-8.0607,10.0194-14.0685c1.0511-5.6274-0.4111-12.2736,3.9915-16.7577
		c2.557,7.3672,5.4652,14.8019,10.1321,21.1058c11.2141,12.7525,32.5563,10.9823,43.993-0.5117
		c6.1669-5.4886,10.0426-14.092,8.035-22.361c-2.0538-6.3566-6.0714-12.7449-12.6392-15.1121
		c0.8306,5.9591,2.3761,12.4691-0.723,18.084c-3.2609,7.0701-11.453,9.9653-18.8003,9.591
		c-8.1904,0.0435-16.2639-4.243-20.6598-11.1661c-3.5214-5.6909-3.0812-12.978-0.5038-18.9489
		c4.1439-9.6199,12.2889-16.8674,21.0464-22.2681c7.9713-3.651,17.2946-4.7175,25.626-1.5831
		c18.2571,6.2897,31.673,22.7188,37.5134,40.7435c5.441,17.7707,2.8905,37.1261-4.0774,54.098
		c-6.4611,15.3879-16.0599,29.4064-27.8546,41.1883c0.6877-9.7948,1.3926-20.4078-3.9147-29.166
		c-2.8206-5.1211-9.847-8.1814-14.9034-4.2206c1.981,5.3613,4.1169,10.8429,4.1516,16.6444
		c0.3208,7.184-1.546,14.2767-4.7799,20.6595c-1.1355,7.0646-3.7942,13.9-8.2764,19.5235
		c-3.4381,4.6732-8.3882,7.8524-13.142,11.0253c1.7626,6.1765,9.2458,7.8307,14.5378,5.3455
		c9.4417-3.966,15.1096-12.9664,20.3104-21.2948c2.6168,16.4644,2.1427,33.4478-1.675,49.6945
		c-4.3387,17.8262-13.6521,34.9843-28.4994,46.1628c-15.3197,11.1494-35.8301,16.5552-54.2974,10.9124
		c-8.5826-2.3612-15.4984-8.7041-19.8014-16.3433c-3.9105-9.5167-6.2401-20.1676-3.938-30.386
		c1.4244-6.3456,5.3516-12.4996,11.5455-15.0339c7.6255-3.0171,16.6766-1.7395,23.2772,3.1099
		c6.1642,4.0158,11.09,11.1734,9.5724,18.8099c-0.7931,6.3641-5.8699,10.7224-10.0446,15.0552
		c6.7048,1.9453,13.7101-0.8615,19.1079-4.7968c6.4846-5.5098,8.406-14.7482,6.6431-22.8132
		c-2.4966-16.0212-18.7223-29.998-35.2904-26.2725c-7.481,2.3569-14.2037,6.6622-20.6028,11.1194
		c-0.926-6.2155,4.1636-10.7328,6.6208-15.9034c2.9895-5.2541,4.1338-12.1725,0.1633-17.2709
		c-2.5603,1.4453-5.4772,2.7205-6.9197,5.4615c-6.2224,9.8695-3.7499,22.7119-10.4271,32.4258
		c-0.3378-8.1693,0.5469-16.6332-2.6163-24.4072c-4.0793-8.9731-8.3206-18.3332-16.1576-24.7112
		c-7.0153-6.5151-16.8901-10.9751-26.5842-8.8631c-8.5839,2.4026-15.1344,9.694-18.242,17.8709
		c6.7737-0.0607,13.7988-1.4932,20.3031,1.1409c9.4116,2.5605,15.8287,10.9411,19.4844,19.5434
		c6.3412,15.646,8.8763,32.4337,13.5663,48.569c2.2806,9.1271,7.2741,17.2004,11.3909,25.5563
		c4.8264,10.0941,14.6432,16.7657,24.7857,20.7607c9.5464,3.6769,20.1969,4.3861,30.1315,1.9404
		c7.9131-1.4625,14.8035-5.8767,21.8018-9.5951c14.1801-9.771,25.4657-23.3114,33.936-38.2097
		c7.3207-12.9868,13.0154-27.0926,15.2874-41.883c0.5685-3.3283,1.1277-6.6518,1.9724-9.9214
		c2.1115,10.2457,2.0463,20.7557,2.5601,31.1585c0.2124,16.9033,0.192,33.9254-2.4392,50.6587
		c-5.8218,1.6758-12.0553,3.3033-16.3729,7.8849c-8.2147,8.5382-11.5297,20.1997-15.6599,30.9976
		c-2.9253,7.5679-4.7791,15.8567-10.0648,22.2456c-2.0925,2.7087-5.8336,4.4154-9.191,3.0992
		c-7.6713-3.0133-12.3959-10.1677-18.016-15.7865c-4.4244,3.451-5.468,9.4618-6.0547,14.7115
		c-0.4124,15.2626,12.5486,29.6476,27.7341,31.0142c8.124,0.448,15.6373-5.0228,19.6674-11.7808
		c5.7468-9.0759,5.6741-21.1229,13.4309-29.0172c0.4653,7.1072-0.7573,14.1711-1.578,21.218
		c-2.7528,21.054-7.167,41.8634-9.5173,62.9705c-0.5663,4.6335-1.0472,9.2865-1.4186,13.9501
		c-4.55-1.088-9.124-2.0684-13.7057-2.9615c-20.8003-4.2872-41.9553-6.5195-62.8295-10.4076
		c-6.9556-1.397-14.0516-2.417-20.6672-5.0559c9.9048-4.9376,21.3398-1.1458,31.7474-3.8068
		c7.6726-1.7444,15.1973-7.1995,17.2817-15.0643c3.3928-14.8646-6.283-31.6364-20.9259-35.9606
		c-5.1742-1.0643-11.2133-1.9292-15.8625,1.2123c3.6072,7.0813,8.9513,13.7855,9.4465,22.0125
		c0.2144,3.5999-2.5649,6.6304-5.7877,7.7836c-7.7095,3.0527-16.1656,2.2544-24.2669,2.6979
		c-11.5458,0.5913-23.6608,0.1405-34.3196,5.3147c-5.6916,2.6906-9.1658,8.1161-12.5585,13.135
		c-16.7274-2.6685-32.9226-7.9091-48.933-13.3346c-9.7349-3.7032-19.7507-6.8892-28.8425-12.0632
		c3.3706,0.2069,6.7042,0.7021,10.0453,1.1901c14.7687,2.4097,29.9438,1.3527,44.5572-1.5967
		c16.7866-3.4519,33.1518-10.001,46.8265-20.4677c5.699-5.5067,12.0262-10.6958,15.8625-17.7697
		c5.3959-8.6926,8.0126-19.041,7.4656-29.2563c-0.6652-10.8805-3.9767-22.2786-12.0854-29.988
		c-6.6747-6.4973-12.8098-13.7412-20.7855-18.7306c-13.8964-9.4467-29.079-17.0453-41.9996-27.911
		c-7.0516-6.1351-13.039-14.8279-12.5659-24.5701c-0.4952-6.9999,3.038-13.2386,5.189-19.6619
		c-8.737,0.4287-17.6957,4.4055-22.6334,11.8267c-5.0042,8.567-3.8141,19.3367,0.2144,28.022
		c3.6441,9.4243,11.2354,16.3505,18.5088,23.0029c6.416,5.4106,14.7391,7.1848,22.4042,10.0305
		c-11.3019,3.3485-22.7516-2.9714-34.0609-0.1034c-3.0527,0.5248-5.1667,2.9049-7.3325,4.8932
		c3.6218,5.3517,10.5553,6.4012,16.4761,5.1816c5.6768-0.7391,11.5458-4.1837,17.1709-1.3823
		c-6.2164,4.7085-12.3885,9.7719-16.9418,16.1583c-8.663,14.606-0.3843,34.3566,14.0812,41.6818
		c7.1256,4.1689,16.5057,5.1964,23.7495,0.7318c5.4108-3.9176,10.2449-9.7126,10.4667-16.6904
		c-5.4108,2.6313-11.1246,6.1129-17.4223,4.9006c-7.7317-0.9165-13.0168-7.813-14.9313-14.9164
		c-2.5723-7.7761-0.9904-16.7791,4.2355-23.0991c4.3242-5.1075,11.3906-6.9408,17.8658-6.3347
		c10.4296,0.9684,19.8393,6.4752,27.6819,13.1351c5.9355,6.4529,9.831,14.9904,9.4244,23.8826
		c-0.34,19.3071-11.8193,37.1432-27.1571,48.2678c-15.2195,10.6661-34.4158,14.2216-52.7103,12.8394
		c-16.6313-1.3896-32.93-6.1869-47.7799-13.7634c9.528-2.3727,19.8394-4.9819,26.5288-12.7358
		c3.9989-4.265,4.738-11.8933-0.5914-15.4783c-4.4866,3.5408-9.04,7.2661-14.5468,9.0919
		c-6.7333,2.525-14.0557,2.9413-21.1255,1.8381c-7.0698,1.1031-14.3922,0.6869-21.1255-1.8381
		c-5.5068-1.8258-10.0601-5.5511-14.5468-9.0919c-5.3295,3.585-4.5903,11.2133-0.5914,15.4783
		c6.6895,7.7539,17.0009,10.3632,26.5289,12.7358c-14.85,7.5765-31.1486,12.3738-47.78,13.7634
		c-18.2944,1.3822-37.4907-2.1732-52.7103-12.8394c-15.3378-11.1246-26.817-28.9607-27.1571-48.2678
		c-0.4065-8.8922,3.4889-17.4297,9.4244-23.8826c7.8426-6.6599,17.2523-12.1667,27.6819-13.1351
		c6.4752-0.6061,13.5416,1.2272,17.8658,6.3347c5.2258,6.3201,6.8077,15.323,4.2354,23.0991
		c-1.9145,7.1034-7.1996,13.9999-14.9313,14.9164c-6.2977,1.2123-12.0115-2.2693-17.4222-4.9006
		c0.2217,6.9778,5.0559,12.7728,10.4667,16.6904c7.2439,4.4646,16.6239,3.4371,23.7495-0.7318
		c14.4656-7.3252,22.7443-27.0758,14.0812-41.6818c-4.5533-6.3865-10.7254-11.4498-16.9418-16.1583
		c5.6251-2.8014,11.4941,0.6432,17.1709,1.3823c5.9208,1.2196,12.8542,0.17,16.4761-5.1816
		c-2.1658-1.9883-4.2798-4.3684-7.3326-4.8932c-11.3093-2.868-22.759,3.4519-34.0609,0.1034
		c7.6651-2.8457,15.9882-4.6199,22.4042-10.0305c7.2734-6.6525,14.8647-13.5786,18.5088-23.0029
		c4.0284-8.6853,5.2186-19.455,0.2144-28.022c-4.9376-7.4213-13.8964-11.398-22.6334-11.8267
		c2.151,6.4233,5.6841,12.662,5.189,19.6619c0.4731,9.7422-5.5143,18.4349-12.5659,24.5701
		c-12.9207,10.8657-28.1032,18.4644-41.9996,27.911c-7.9756,4.9894-14.1107,12.2333-20.7855,18.7306
		c-8.1086,7.7095-11.4202,19.1075-12.0854,29.988c-0.5471,10.2153,2.0696,20.5637,7.4656,29.2563
		c3.8363,7.0739,10.1636,12.2629,15.8625,17.7697c13.6747,10.4667,30.0399,17.0157,46.8265,20.4677
		c14.6134,2.9493,29.7885,4.0063,44.5572,1.5967c3.3411-0.4879,6.6747-0.9832,10.0453-1.1901
		c-9.0918,5.1741-19.1075,8.36-28.8424,12.0632c-16.0104,5.4255-32.2057,10.6661-48.933,13.3346
		c-3.3928-5.0189-6.8669-10.4445-12.5585-13.135c-10.6589-5.1742-22.7739-4.7234-34.3197-5.3147
		c-8.1013-0.4435-16.5574,0.3549-24.267-2.6979c-3.2227-1.1532-6.002-4.1837-5.7877-7.7836
		c0.4952-8.2269,5.8394-14.9312,9.4465-22.0125c-4.6493-3.1415-10.6884-2.2766-15.8625-1.2123
		c-14.6429,4.3242-24.3187,21.0959-20.9259,35.9606c2.0845,7.8649,9.6092,13.3199,17.2818,15.0643
		c10.4075,2.661,21.8425-1.1309,31.7474,3.8068c-6.6156,2.6389-13.7117,3.6589-20.6672,5.0559
		c-20.8742,3.8881-42.0292,6.1204-62.8295,10.4076c-4.5817,0.8932-9.1556,1.8735-13.7056,2.9615
		c-0.3713-4.6636-0.8524-9.3165-1.4187-13.9501c-2.3502-21.1071-6.7645-41.9165-9.5172-62.9705
		c-0.8207-7.0469-2.0434-14.1108-1.5781-21.218c7.7568,7.8943,7.684,19.9413,13.431,29.0172
		c4.03,6.7579,11.5433,12.2288,19.6674,11.7808c15.1855-1.3666,28.1465-15.7516,27.7341-31.0142
		c-0.5866-5.2498-1.6302-11.2605-6.0547-14.7115c-5.6201,5.6188-10.3447,12.7732-18.016,15.7865
		c-3.3574,1.3162-7.0984-0.3905-9.191-3.0992c-5.2857-6.3889-7.1395-14.6777-10.0648-22.2456
		c-4.1302-10.7979-7.4451-22.4594-15.6599-30.9976c-4.3177-4.5815-10.5512-6.2091-16.373-7.8849
		c-2.6312-16.7333-2.6516-33.7554-2.4391-50.6587c0.5137-10.4028,0.4486-20.9128,2.56-31.1585
		c0.8448,3.2696,1.4039,6.5931,1.9724,9.9214c2.2721,14.7904,7.9667,28.8962,15.2874,41.883
		c8.4703,14.8983,19.756,28.4387,33.936,38.2097c6.9984,3.7184,13.8887,8.1326,21.8018,9.5951
		c9.9346,2.4457,20.5851,1.7365,30.1314-1.9404c10.1425-3.995,19.9593-10.6666,24.7858-20.7607
		c4.1167-8.3558,9.1102-16.4292,11.3908-25.5563c4.69-16.1354,7.2251-32.923,13.5663-48.569
		c3.6558-8.6023,10.0729-16.9829,19.4844-19.5434c6.5043-2.6341,13.5294-1.2017,20.3031-1.1409
		c-3.1077-8.1769-9.6581-15.4683-18.2421-17.8709c-9.694-2.112-19.5688,2.348-26.5842,8.8631
		c-7.837,6.3781-12.0783,15.7381-16.1575,24.7112c-3.1633,7.774-2.2785,16.2379-2.6163,24.4072
		c-6.6771-9.7139-4.2047-22.5563-10.4271-32.4258c-1.4425-2.7411-4.3593-4.0162-6.9197-5.4615
		c-3.9704,5.0983-2.8261,12.0168,0.1634,17.2709c2.4573,5.1706,7.5468,9.6879,6.6208,15.9034
		c-6.399-4.4572-13.1219-8.7626-20.6027-11.1194c-16.5682-3.7256-32.7939,10.2512-35.2904,26.2725
		c-1.7629,8.0651,0.1584,17.3035,6.643,22.8132c5.3979,3.9353,12.4031,6.7421,19.108,4.7968
		c-4.1747-4.3328-9.2515-8.691-10.0446-15.0552c-1.5175-7.6365,3.4081-14.7941,9.5723-18.8099
		c6.6006-4.8494,15.6518-6.127,23.2773-3.1099c6.1939,2.5342,10.121,8.6883,11.5455,15.0339
		c2.302,10.2184-0.0276,20.8693-3.938,30.386c-4.3029,7.6392-11.2188,13.9821-19.8013,16.3433
		c-18.4673,5.6428-38.9777,0.2371-54.2974-10.9124c-14.8473-11.1786-24.1606-28.3367-28.4994-46.1628
		c-3.8177-16.2468-4.2919-33.2301-1.675-49.6945c5.2009,8.3284,10.8688,17.3288,20.3104,21.2948
		c5.292,2.4852,12.7753,0.8309,14.5379-5.3455c-4.7538-3.1729-9.7039-6.3522-13.142-11.0253
		c-4.4822-5.6235-7.1409-12.4589-8.2764-19.5235c-3.2339-6.3828-5.1007-13.4755-4.7799-20.6595
		c0.0347-5.8015,2.1707-11.2831,4.1516-16.6444c-5.0564-3.9608-12.0829-0.9005-14.9034,4.2206
		c-5.3073,8.7582-4.6024,19.3712-3.9147,29.166c-11.7946-11.7819-21.3936-25.8004-27.8546-41.1883
		c-6.9679-16.9719-9.5185-36.3273-4.0774-54.098c5.8405-18.0248,19.2563-34.4539,37.5134-40.7435
		c8.3314-3.1345,17.6547-2.0679,25.626,1.5831c8.7574,5.4007,16.9025,12.6481,21.0463,22.2681
		c2.5774,5.9709,3.0176,13.2581-0.5038,18.9489c-4.3958,6.9231-12.4694,11.2096-20.6597,11.1661
		c-7.3474,0.3743-15.5394-2.5209-18.8004-9.591c-3.0991-5.6149-1.5536-12.1249-0.723-18.084
		c-6.5677,2.3672-10.5853,8.7555-12.6392,15.1121c-2.0076,8.2689,1.8682,16.8724,8.035,22.361
		c11.4367,11.494,32.779,13.2642,43.9931,0.5117c4.6667-6.304,7.575-13.7386,10.1321-21.1058
		c4.4025,4.4841,2.9402,11.1302,3.9915,16.7577c0.6697,6.0078,3.8105,12.2776,10.0194,14.0685
		c1.2218-2.6742,2.8321-5.4203,2.3879-8.4858c-0.7672-11.642-10.3159-20.5784-10.6237-32.3619
		c5.0751,6.4106,9.3343,13.7781,16.4629,18.2081c8.5744,4.8617,17.5074,9.9412,27.5966,10.4946
		c9.5051,1.1473,20.1155-1.0488,26.7167-8.4554c5.5323-6.9892,6.546-16.7383,4.2538-25.1802
		c-5.4443,4.0306-10.2858,9.3187-17.0961,11.0109c-9.1191,3.4604-19.2367,0.4523-27.2505-4.3583
		c-14.3267-8.9306-26.2451-21.022-39.5236-31.319c-7.2098-6.0435-15.9951-9.6398-24.2369-13.9801
		c-9.8379-5.3294-21.7014-4.9567-32.255-2.2271c-9.8844,2.6365-18.9177,8.3229-25.5174,16.1409
		c-5.5422,5.8345-8.522,13.4556-11.9982,20.5773c-5.7286,16.2398-6.9001,33.8278-4.9957,50.8594
		c1.7109,14.8096,5.395,29.5686,12.2505,42.8698c1.4964,3.0268,2.9976,6.0442,4.236,9.1859
		c-7.7304-7.0479-13.8553-15.589-20.3856-23.7031c-10.1075-13.5502-20.0963-27.3333-27.8032-42.4174
		c3.725-4.7776,7.8113-9.7584,8.6115-16.0028c1.6271-11.7361-2.5454-23.1188-5.5508-34.2822
		c-2.0817-7.8419-5.454-15.6375-4.933-23.913c0.1008-3.4214,2.1243-7.0012,5.6141-7.9097
		c7.9773-2.0713,16.0049,0.9396,23.8542,2.1819c1.551-5.3925-1.1377-10.8687-3.7489-15.4608
		c-8.6375-12.5901-27.5783-16.6095-40.667-8.7893c-6.8358,4.4128-9.6985,13.2549-8.9866,21.0911
		c0.6853,10.7204,7.8253,20.424,6.19,31.3699c-4.554-5.4763-7.7169-11.9099-11.1949-18.0933
		c-10.1482-18.6511-18.8085-38.0809-29.3135-56.5383c-2.2654-4.0814-4.6111-8.1285-7.0518-12.1197
		c4.3205-1.7943,8.5971-3.6896,12.8289-5.66c19.3477-8.7576,37.7746-19.3863,56.9475-28.5104
		c6.4482-2.9581,12.7886-6.3039,19.6918-8.0576c-5.1109,9.8167-16.5908,13.4702-23.4466,21.7404
		c-5.1819,5.9211-8.0631,14.7573-5.1267,22.3452c5.9924,14.02,23.6784,21.9014,38.0665,16.7928
		c4.8116-2.1802,10.2057-5.0302,12.1205-10.3046c-7.0804-3.6086-15.3447-5.8912-20.581-12.2559
		c-2.2894-2.7863-1.8222-6.8718,0.1073-9.699c4.4428-7.0012,11.7532-11.3257,18.0466-16.4464
		c8.9932-7.2648,19.0594-14.0211,24.6413-24.4722c3.0231-5.5222,2.6448-11.9536,2.4395-18.0082
		c15.1012-7.6733,31.2838-12.9528,47.4256-17.9742c10.0524-2.726,20.0279-6.0358,30.4246-7.1938
		c-2.8485,1.8138-5.8365,3.3726-8.8263,4.9417c-13.3644,6.7313-25.0201,16.5062-35.1091,27.4818
		c-11.5516,12.6595-20.9419,27.5771-25.8528,44.0826c-1.3737,7.8048-3.4426,15.7219-2.3883,23.6997
		c0.744,10.2041,4.7097,20.1142,11.1566,28.0571c6.9337,8.4116,16.3123,15.6863,27.4039,17.1572
		c9.219,1.3331,18.4402,3.5874,27.8254,2.936c16.795-0.5257,33.5444-3.3023,50.3842-2.1063
		c9.311,0.8185,19.2643,4.3318,24.6079,12.4915c4.515,5.372,5.3236,12.4959,7.3591,18.9568
		c6.8163-5.4823,11.7266-13.9654,11.3591-22.8716c-0.987-9.8722-8.2802-17.8856-16.6443-22.5443
		c-8.4877-5.4825-18.7002-6.6238-28.4947-7.7305c-8.371-0.6061-16.1473,2.8508-24.0212,5.054
		c7.1752-9.3521,20.153-10.9692,27.6166-19.9369c2.1613-2.2189,2.4726-5.387,3.056-8.2687
		c-6.0757-2.2006-12.3019,1.0256-16.3751,5.4924c-4.1581,3.9348-6.8817,10.1711-13.079,11.2111
		c2.2617-7.4632,4.2788-15.1874,4.2087-23.0305c-1.5767-16.9085-19.8834-28.021-35.8919-25.4445
		c-8.2152,0.8156-16.4077,5.4978-19.6439,13.3676c-2.0747,6.3498-2.5793,13.8795,1.3427,19.655
		c2.8307-5.3092,5.4069-11.4843,11.2144-14.2053c6.7938-3.803,15.1232-1.3302,20.8474,3.2913
		c6.6517,4.779,10.6638,12.9924,10.1507,21.1771c-0.4962,6.6738-5.1355,12.3105-10.7303,15.6261
		c-9.0069,5.347-19.8563,6.4228-30.1157,5.6445c-8.5949-1.7317-16.7645-6.3489-21.6623-13.7819
		c-11.0734-15.8196-12.2703-36.9968-6.4006-55.012c6.0434-17.575,19.4837-31.7346,35.0967-41.3696
		c14.2719-8.6514,30.2775-14.3505,46.7447-16.9495c-6.3137,7.5199-13.1221,15.6917-13.9763,25.8968
		c-0.7283,5.8009,3.1575,12.4068,9.5764,12.1745c1.5486-5.5016,3.0426-11.1919,6.4246-15.9058
		c3.9632-6.0005,9.6425-10.6414,16.0104-13.9044c5.0712-5.048,11.2398-9.0153,18.1713-10.9302
		c5.5283-1.7598,11.4017-1.4222,17.1127-1.1949c2.2045-6.0329-2.8773-11.7698-8.6194-12.8698
		c-9.9695-2.3411-19.8453,1.6088-28.9482,5.2897c7.5605-14.8581,17.9266-28.3193,30.5649-39.2191
		c13.988-11.8715,31.608-20.2784,50.1902-20.595c18.9474-0.0154,38.7181,7.667,50.3417,23.0869
		c5.5555,6.955,7.4223,16.1516,6.4133,24.861c-2.4302,9.9977-6.8059,19.9837-14.6745,26.8975
		c-4.8823,4.2964-11.6767,6.9668-18.1772,5.3764c-7.9426-2.0413-14.5142-8.3951-17.0038-16.198
		c-2.6265-6.8721-2.4044-15.558,3.312-20.8441c4.3824-4.6824,11.0514-5.2244,16.9755-6.2758
		c-4.2809-5.5148-11.598-7.3616-18.2781-7.3507c-8.4846,0.6459-15.4693,6.9906-18.7836,14.5517
		c-7.3973,14.4288-2.4858,35.2735,13.108,41.998c7.4375,2.4904,15.407,2.9589,23.2038,3.1142
		c-2.9042,5.5727-9.6769,6.2357-14.704,8.9744c-5.5068,2.4935-10.4992,7.418-10.2838,13.8765
		c2.9208,0.3356,6.0302,1.0185,8.8083-0.3513c10.8351-4.3271,16.3834-16.17,27.4951-20.1041
		c-4.5286,6.8076-10.2193,13.1351-12.2296,21.2837c-1.9741,9.6571-4.0445,19.7225-1.4531,29.489
		c1.8459,9.3943,7.2134,18.8068,16.2974,22.7962c8.3568,3.1017,17.942,1.0531,25.2624-3.7355
		c-5.5157-3.9323-12.0411-6.9027-15.7549-12.8568c-6.1091-7.6035-6.3747-18.1554-4.2759-27.2636
		c4.0663-16.3852,11.8829-31.4567,17.5728-47.2673c3.5197-8.7245,4.2252-18.191,5.8062-27.3708
		c2.0286-11.0033-1.9919-22.1709-7.8492-31.3645c-5.5618-8.5859-13.7614-15.4199-23.2362-19.2807
		c-7.2615-3.468-15.4305-3.9469-23.2778-5.0522c-17.2152-0.4299-34.3044,3.891-49.914,10.9652
		c-13.556,6.2036-26.4542,14.2681-36.986,24.8984c-2.4162,2.3585-4.8221,4.7186-7.4273,6.8672
		c4.3141-9.53,10.5444-17.9944,16.2434-26.7125c9.7637-13.8,19.7855-27.5592,31.7498-39.5501
		c5.6949,2.0662,11.6945,4.4135,17.8806,3.2448c11.6645-2.0791,21.2007-9.5649,30.889-15.873
		c6.8148-4.403,13.1867-10.0192,21.2182-12.0811c3.2851-0.9614,7.3149-0.1432,9.2574,2.8951
		c4.4351,6.9468,4.0521,15.5119,5.2962,23.361c5.6078-0.1913,9.9852-4.4406,13.5456-8.343
		c9.3047-12.1052,7.2744-31.3612-4.2077-41.3927c-6.3091-5.1376-15.6032-5.1278-22.8358-2.0293
		c-9.984,3.9646-17.0062,13.7536-27.9218,15.5809c3.8011-6.0234,8.9424-11.0196,13.7484-16.2382
		c14.6022-15.415,30.4049-29.6556,44.7127-45.3501C855.9497,447.102,859.0739,443.6204,862.1154,440.0658z"/>
	<path d="M988.3929,350.5558c4.037,12.9925,6.7737,26.3285,8.6104,39.7965c2.3538,12.8569,2.3855,26.8224,9.884,38.0813
		c1.9076,2.5555,3.8062,6.4565,7.623,5.8308c0.0605-1.7559,0.1022-3.4982,0.1024-5.234
		c-1.3409-19.9602-2.7939-39.8922-4.3827-59.8131c-1.9763-29.1839-4.0092-58.5916-0.7663-87.766
		c2.3391-20.2468,7.4361-40.8563,19.3513-57.7088c2.5132-3.7108,5.7355-6.8883,8.1683-10.6392
		c0.3872-1.5642-0.7802-2.787-1.8413-3.7408c-23.241-19.9736-38.1072-47.6134-49.8334-75.4754
		c-14.9011-36.9479-25.2212-75.5105-35.3444-113.9666c-0.6841,0.2248-2.0436,0.6624-2.719,0.8751
		c-0.2253,49.43,1.6528,99.3101-6.8641,148.2436c-3.7798,21.1735-9.3586,42.2827-19.2598,61.4939
		c-0.8262,1.8666-2.0464,3.785-1.5894,5.9352c1.2857,2.1036,3.4471,3.4547,5.2853,5.0369
		c10.3366,8.3962,19.1589,18.5246,26.7876,29.403C968.4533,295.0272,980.056,322.4429,988.3929,350.5558z M945.5074,235.0848
		c-3.1247-8.9035-3.2234-18.6143-1.7137-27.8602c2.6741-18.7334,8.4922-36.9276,9.9407-55.8479
		c1.4901-21.7316,0.8737-43.5317,0.3808-65.2879c-0.4738-5.3967-1.0944-10.9184,0.2205-16.2492
		c2.1221,2.1722,3.3282,4.9764,4.3143,7.7942c5.9622,16.9951,10.6132,34.3991,15.5347,51.7072
		c6.6603,24.6107,13.9028,49.489,27.1164,71.506c3.1899,5.5063,7.3735,10.3367,10.9954,15.5629
		c-13.3583,25.3153-17.8867,54.2594-18.1807,82.6069c-0.5999,11.5148,1.2566,22.9688,1.0023,34.4607
		c-3.7124-5.9316-5.8546-12.6411-8.413-19.1047c-5.9216-16.2713-10.4512-33.1758-18.6695-48.5119
		C962.0278,254.5248,951.2528,246.5684,945.5074,235.0848z"/>
	<path d="M401.5672,593.4178c13.6041,0.1755,27.1331,1.6938,40.5094,4.1088c12.955,1.7344,26.2468,6.0198,39.2718,2.3675
		c3.0199-1.0245,7.3167-1.6246,7.9011-5.4481c-1.6512-0.6002-3.2954-1.1782-4.9462-1.7148
		c-19.3977-4.8927-38.803-9.6702-58.24-14.3151c-28.3662-7.1387-56.9629-14.2928-83.7073-26.3924
		c-18.533-8.4812-36.5588-19.6974-48.9045-36.2371c-2.7525-3.537-4.7787-7.5834-7.5943-11.0563
		c-1.368-0.8517-2.8916-0.1193-4.1267,0.5953c-26.1779,15.9312-57.0588,21.5287-87.1807,24.0711
		c-39.7443,2.7543-79.6085,0.6527-119.3107-1.6031c0.0024,0.7201-0.0016,2.1483-0.0079,2.8564
		c46.9411,15.489,94.9603,29.1166,138.8669,52.338c18.9691,10.1378,37.3212,21.9666,52.5326,37.3198
		c1.5199,1.3626,2.9674,3.1159,5.1536,3.3457c2.3979-0.5727,4.3508-2.2108,6.4236-3.4701
		c11.1794-7.2361,23.5384-12.4968,36.2418-16.3904C342.5946,595.2222,372.2539,592.6592,401.5672,593.4178z M278.4954,598.5217
		c-9.4333,0.2205-18.6993-2.6865-27.0262-6.9794c-16.9902-8.3322-32.496-19.4878-50.0427-26.7122
		c-20.2075-8.1325-41.1312-14.283-61.9749-20.5372c-5.279-1.2171-10.7222-2.3333-15.3857-5.231
		c2.7217-1.347,5.7613-1.6276,8.7459-1.6946c18.0058-0.4186,35.9951,0.5362,53.977,1.204
		c25.4643,1.2708,51.363,2.0706,76.3856-3.6926c6.2226-1.3323,12.1093-3.8184,18.199-5.6481
		c19.9483,20.5274,46.0765,33.7783,72.9457,42.8178c10.7659,4.1288,22.2329,5.9027,33.0838,9.6957
		c-6.7885,1.6978-13.8316,1.6617-20.7694,2.0975c-17.3048,0.6037-34.7817-0.3122-51.9067,2.7648
		C302.089,588.8172,291.1923,596.6062,278.4954,598.5217z"/>
	<path d="M451.2035,1226.5707c4.3708-12.884,9.9955-25.2817,16.4258-37.2571c5.6528-11.785,13.8359-23.1021,14.3873-36.618
		c-0.0412-3.1887,0.7158-7.4607-2.7399-9.1979c-1.0811,1.3849-2.1389,2.77-3.1593,4.1742
		c-10.6475,16.9363-21.1877,33.9155-31.6116,50.9658c-15.555,24.772-31.1958,49.7583-50.9676,71.4547
		c-13.7931,15.0051-30.0306,28.6826-49.5759,35.313c-4.2144,1.5249-8.689,2.2015-12.8619,3.806
		c-1.2327,1.038-1.007,2.7133-0.7091,4.1088c7.0621,29.8196,2.8428,60.9188-4.0473,90.3521
		c-9.6622,38.6503-23.9796,75.9139-38.3936,112.9758c0.6855,0.2203,2.0426,0.6653,2.7141,0.8903
		c29.2365-39.8573,57.0359-81.3152,92.6886-115.897c15.5034-14.908,32.4244-28.7065,51.7267-38.4291
		c1.7656-1.0244,3.8804-1.8593,4.7745-3.8674c0.1963-2.4575-0.7582-4.821-1.3153-7.1815
		c-3.4273-12.8683-4.6114-26.248-4.3889-39.5328C434.696,1283.2145,441.4238,1254.2148,451.2035,1226.5707z M418.0264,1345.196
		c-2.7054,9.0398-8.3334,16.954-14.9893,23.5468c-13.1746,13.5839-28.5758,24.8834-40.8688,39.3389
		c-13.979,16.7054-26.2942,34.7045-38.6833,52.5953c-2.7888,4.6445-5.5323,9.4763-9.7294,13.0162
		c-0.44-3.0048,0.2324-5.9823,1.0909-8.8416c5.166-17.2539,11.6331-34.0677,17.8249-50.9631
		c9.0775-23.8253,17.8413-48.2092,20.0926-73.7882c0.6558-6.3297,0.1104-12.6965,0.2522-19.0536
		c25.6871-12.6287,46.3635-33.3832,63.2636-56.144c7.2536-8.963,12.4842-19.3207,19.4447-28.4684
		c-0.4831,6.981-2.6938,13.6681-4.4232,20.4011c-4.7733,16.6444-11.0451,32.9828-13.4106,50.2206
		C416.0876,1319.7584,420.1282,1332.5287,418.0264,1345.196z"/>
	<path d="M1068.7061,1375.0187c-10.9027-8.1383-20.9554-17.3187-30.3577-27.1349c-9.4614-9.0179-17.6957-20.2976-30.3799-24.9988
		c-3.0453-0.9462-6.8743-2.9862-9.5944-0.2366c0.9831,1.4562,1.9736,2.8903,2.9937,4.2946
		c12.8172,15.36,25.7083,30.6312,38.7029,45.8138c18.7527,22.4486,37.6829,45.045,52.2075,70.5537
		c10.0084,17.7549,17.9988,37.4243,18.2649,58.0619c0.1478,4.4794-0.5913,8.944-0.3547,13.4086
		c0.6061,1.493,2.2693,1.7961,3.6885,1.944c30.5425,2.4983,58.8157,16.1213,84.6793,31.7695
		c33.7727,21.1328,64.7882,46.2646,95.582,71.426c0.4214-0.584,1.2639-1.7371,1.6853-2.3063
		c-28.8719-40.1221-59.7102-79.3721-81.5822-123.9662c-9.3875-19.3514-17.2819-39.7083-20.5637-61.0702
		c-0.4287-1.9958-0.5692-4.2651-2.2028-5.736c-2.2766-0.9462-4.8193-0.7687-7.2365-0.9684
		c-13.2977-0.7169-26.3884-3.7253-38.9543-8.0421C1117.4766,1408.2222,1091.9752,1392.8623,1068.7061,1375.0187z
		 M1171.2733,1443.2292c7.7612,5.3665,13.549,13.1647,17.7623,21.5321c8.8478,16.7274,14.8351,34.8666,24.7843,51.0249
		c11.5681,18.457,24.8805,35.7314,38.0673,53.0428c3.5554,4.0876,7.3031,8.1899,9.3727,13.2755
		c-2.9937-0.51-5.6177-2.0697-8.0717-3.7698c-14.813-10.2449-28.8055-21.5912-42.9607-32.7009
		c-19.854-15.9956-40.3364-31.8656-63.9678-41.911c-5.8173-2.5796-12.041-4.0284-18.0431-6.1277
		c-4.0728-28.3323-17.4222-54.4103-33.8466-77.5167c-6.283-9.6683-14.5173-17.8436-21.0664-27.2902
		c6.49,2.6167,12.1667,6.7855,18.0358,10.511c14.3547,9.6831,27.9554,20.6968,43.6184,28.2733
		C1146.4816,1437.2125,1159.8754,1437.3159,1171.2733,1443.2292z"/>
	<path d="M1400.7074,833.6118c-11.1091,7.8542-22.9467,14.5781-35.1879,20.4868c-11.5002,6.2116-24.7725,10.5573-33.1632,21.168
		c-1.8408,2.6039-4.9642,5.615-3.1897,9.0517c1.6886-0.485,3.3585-0.9838,5.0094-1.52
		c18.569-7.4434,37.0763-14.9845,55.5314-22.6515c27.1448-10.8979,54.485-21.9188,83.2336-27.85
		c19.9786-4.032,41.1545-5.5532,60.8643,0.5711c4.3058,1.2436,8.3235,3.3262,12.6426,4.4809
		c1.6074-0.1151,2.4095-1.6031,2.9888-2.9072c11.8142-28.2756,33.5073-50.9554,56.382-70.7175
		c30.5349-25.5894,64.021-47.3208,97.4666-68.8322c-0.425-0.5812-1.2614-1.7389-1.6725-2.3155
		c-47.0803,15.0604-93.9388,32.2604-143.1091,39.2816c-21.3052,2.9481-43.1052,4.1655-64.4358,0.6855
		c-2.0306-0.209-4.2322-0.7766-6.1359,0.3224c-1.6034,1.8728-2.2205,4.3459-3.1571,6.5831
		c-4.7911,12.4253-11.6976,23.9456-19.6862,34.5626C1447.3567,797.4888,1424.8682,816.9955,1400.7074,833.6118z M1497.2745,757.1428
		c7.5021-5.7231,16.7072-8.8177,25.967-10.2392c18.6428-3.2457,37.7445-3.3347,56.1864-7.8038
		c21.1284-5.2983,41.6711-12.6211,62.2102-19.813c4.9862-2.1182,10.0459-4.4147,15.522-4.8115
		c-1.4102,2.6895-3.7043,4.7031-6.0795,6.5117c-14.3209,10.9221-29.4359,20.7236-44.376,30.7528
		c-21.348,13.9395-42.7708,28.5153-59.6268,47.8857c-4.2511,4.7354-7.5522,10.2069-11.4034,15.2665
		c-28.2042-4.8817-57.1311-0.2441-84.182,8.2361c-11.1367,2.9877-21.4564,8.2928-32.4644,11.6021
		c4.4941-5.3636,10.2131-9.4743,15.5698-13.9049c13.6451-10.6599,28.3225-20.1915,40.3684-32.7467
		C1483.8911,778.8619,1488.1284,766.1556,1497.2745,757.1428z"/>
	<path d="M1322.6637,593.4178c-13.6041,0.1755-27.1331,1.6938-40.5095,4.1088c-12.955,1.7344-26.2467,6.0198-39.2717,2.3675
		c-3.0199-1.0245-7.3167-1.6246-7.901-5.4481c1.6511-0.6002,3.2954-1.1782,4.9462-1.7148
		c19.3977-4.8927,38.803-9.6702,58.24-14.3151c28.3662-7.1387,56.9629-14.2928,83.7073-26.3924
		c18.533-8.4812,36.5587-19.6974,48.9044-36.2371c2.7526-3.537,4.7788-7.5834,7.5944-11.0563
		c1.368-0.8517,2.8916-0.1193,4.1267,0.5953c26.1779,15.9312,57.0588,21.5287,87.1807,24.0711
		c39.7443,2.7543,79.6085,0.6527,119.3107-1.6031c-0.0023,0.7201,0.0016,2.1483,0.0079,2.8564
		c-46.9412,15.489-94.9603,29.1166-138.8669,52.338c-18.9691,10.1378-37.3212,21.9666-52.5326,37.3198
		c-1.5199,1.3626-2.9674,3.1159-5.1536,3.3457c-2.3979-0.5727-4.3507-2.2108-6.4236-3.4701
		c-11.1794-7.2361-23.5383-12.4968-36.2417-16.3904C1381.6362,595.2222,1351.9769,592.6592,1322.6637,593.4178z M1445.7355,598.5217
		c9.4332,0.2205,18.6993-2.6865,27.0261-6.9794c16.9902-8.3322,32.496-19.4878,50.0427-26.7122
		c20.2075-8.1325,41.1312-14.283,61.9749-20.5372c5.2791-1.2171,10.7222-2.3333,15.3857-5.231
		c-2.7217-1.347-5.7612-1.6276-8.7458-1.6946c-18.0059-0.4186-35.9951,0.5362-53.9771,1.204
		c-25.4644,1.2708-51.363,2.0706-76.3856-3.6926c-6.2225-1.3323-12.1094-3.8184-18.199-5.6481
		c-19.9484,20.5274-46.0765,33.7783-72.9457,42.8178c-10.766,4.1288-22.233,5.9027-33.0839,9.6957
		c6.7886,1.6978,13.8315,1.6617,20.7694,2.0975c17.3048,0.6037,34.7817-0.3122,51.9067,2.7648
		C1422.1418,588.8172,1433.0386,596.6062,1445.7355,598.5217z"/>
	<path d="M735.838,350.5558c-4.0369,12.9925-6.7736,26.3285-8.6104,39.7965c-2.3538,12.8569-2.3855,26.8224-9.884,38.0813
		c-1.9076,2.5555-3.8061,6.4565-7.6229,5.8308c-0.0606-1.7559-0.1022-3.4982-0.1024-5.234
		c1.3409-19.9602,2.7939-39.8922,4.3827-59.8131c1.9763-29.1839,4.0093-58.5916,0.7663-87.766
		c-2.3391-20.2468-7.436-40.8563-19.3513-57.7088c-2.5133-3.7108-5.7355-6.8883-8.1683-10.6392
		c-0.3873-1.5642,0.7801-2.787,1.8413-3.7408c23.2409-19.9736,38.1071-47.6134,49.8334-75.4754
		c14.9011-36.9479,25.2211-75.5105,35.3444-113.9666c0.6841,0.2248,2.0436,0.6624,2.7191,0.8751
		c0.2252,49.43-1.6528,99.3101,6.8641,148.2436c3.7799,21.1735,9.3586,42.2827,19.2598,61.4939
		c0.8262,1.8666,2.0464,3.785,1.5894,5.9352c-1.2857,2.1036-3.4471,3.4547-5.2853,5.0369
		c-10.3366,8.3962-19.1589,18.5246-26.7875,29.403C755.7775,295.0272,744.1748,322.4429,735.838,350.5558z M778.7234,235.0848
		c3.1248-8.9035,3.2234-18.6143,1.7138-27.8602c-2.6741-18.7334-8.4922-36.9276-9.9407-55.8479
		c-1.4901-21.7316-0.8737-43.5317-0.3807-65.2879c0.4738-5.3967,1.0943-10.9184-0.2205-16.2492
		c-2.1221,2.1722-3.3282,4.9764-4.3143,7.7942c-5.9622,16.9951-10.6132,34.3991-15.5347,51.7072
		c-6.6603,24.6107-13.9028,49.489-27.1164,71.506c-3.1899,5.5063-7.3735,10.3367-10.9954,15.5629
		c13.3584,25.3153,17.8867,54.2594,18.1807,82.6069c0.5999,11.5148-1.2565,22.9688-1.0023,34.4607
		c3.7124-5.9316,5.8546-12.6411,8.413-19.1047c5.9216-16.2713,10.4512-33.1758,18.6694-48.5119
		C762.2031,254.5248,772.978,246.5684,778.7234,235.0848z"/>
	<path d="M323.5234,833.6118c11.1091,7.8542,22.9467,14.5781,35.1879,20.4868c11.5002,6.2116,24.7725,10.5573,33.1631,21.168
		c1.8409,2.6039,4.9644,5.615,3.1898,9.0517c-1.6887-0.485-3.3586-0.9838-5.0095-1.52
		c-18.5689-7.4434-37.0763-14.9845-55.5313-22.6515c-27.1448-10.8979-54.485-21.9188-83.2337-27.85
		c-19.9787-4.032-41.1545-5.5532-60.8642,0.5711c-4.3058,1.2436-8.3235,3.3262-12.6427,4.4809
		c-1.6073-0.1151-2.4095-1.6031-2.9887-2.9072c-11.8142-28.2756-33.5073-50.9554-56.382-70.7175
		c-30.5349-25.5894-64.021-47.3208-97.4666-68.8322c0.4251-0.5812,1.2614-1.7389,1.6725-2.3155
		c47.0803,15.0604,93.9388,32.2604,143.1091,39.2816c21.3052,2.9481,43.1052,4.1655,64.4358,0.6855
		c2.0306-0.209,4.2322-0.7766,6.1359,0.3224c1.6034,1.8728,2.2204,4.3459,3.1571,6.5831
		c4.7911,12.4253,11.6975,23.9456,19.6861,34.5626C276.8742,797.4888,299.3626,816.9955,323.5234,833.6118z M226.9563,757.1428
		c-7.5021-5.7231-16.7072-8.8177-25.967-10.2392c-18.6429-3.2457-37.7444-3.3347-56.1864-7.8038
		c-21.1284-5.2983-41.6711-12.6211-62.2102-19.813c-4.9862-2.1182-10.0459-4.4147-15.522-4.8115
		c1.4101,2.6895,3.7043,4.7031,6.0795,6.5117c14.3209,10.9221,29.4358,20.7236,44.376,30.7528
		c21.348,13.9395,42.7707,28.5153,59.6268,47.8857c4.2511,4.7354,7.5522,10.2069,11.4034,15.2665
		c28.2043-4.8817,57.1311-0.2441,84.182,8.2361c11.1367,2.9877,21.4564,8.2928,32.4644,11.6021
		c-4.4941-5.3636-10.2132-9.4743-15.5699-13.9049c-13.6451-10.6599-28.3225-20.1915-40.3684-32.7467
		C240.3397,778.8619,236.1024,766.1556,226.9563,757.1428z"/>
	<path d="M655.5247,1375.0187c10.9028-8.1383,20.9555-17.3187,30.3577-27.1349c9.4614-9.0179,17.6957-20.2976,30.3799-24.9988
		c3.0453-0.9462,6.8743-2.9862,9.5944-0.2366c-0.9831,1.4562-1.9735,2.8903-2.9937,4.2946
		c-12.8171,15.36-25.7083,30.6312-38.7029,45.8138c-18.7527,22.4486-37.6829,45.045-52.2075,70.5537
		c-10.0084,17.7549-17.9988,37.4243-18.2649,58.0619c-0.1478,4.4794,0.5913,8.944,0.3548,13.4086
		c-0.6061,1.493-2.2693,1.7961-3.6885,1.944c-30.5425,2.4983-58.8157,16.1213-84.6793,31.7695
		c-33.7727,21.1328-64.7883,46.2646-95.5821,71.426c-0.4213-0.584-1.2639-1.7371-1.6853-2.3063
		c28.872-40.1221,59.7102-79.3721,81.5822-123.9662c9.3875-19.3514,17.2818-39.7083,20.5637-61.0702
		c0.4288-1.9958,0.5692-4.2651,2.2028-5.736c2.2766-0.9462,4.8194-0.7687,7.2365-0.9684
		c13.2976-0.7169,26.3884-3.7253,38.9542-8.0421C606.7543,1408.2222,632.2557,1392.8623,655.5247,1375.0187z M552.9575,1443.2292
		c-7.7613,5.3665-13.549,13.1647-17.7623,21.5321c-8.8478,16.7274-14.8351,34.8666-24.7844,51.0249
		c-11.568,18.457-24.8805,35.7314-38.0673,53.0428c-3.5554,4.0876-7.303,8.1899-9.3726,13.2755
		c2.9936-0.51,5.6176-2.0697,8.0717-3.7698c14.813-10.2449,28.8055-21.5912,42.9606-32.7009
		c19.8541-15.9956,40.3364-31.8656,63.9677-41.911c5.8173-2.5796,12.0411-4.0284,18.0432-6.1277
		c4.0728-28.3323,17.4223-54.4103,33.8466-77.5167c6.283-9.6683,14.5173-17.8436,21.0663-27.2902
		c-6.4899,2.6167-12.1667,6.7855-18.0357,10.511c-14.3547,9.6831-27.9555,20.6968-43.6185,28.2733
		C577.7493,1437.2125,564.3555,1437.3159,552.9575,1443.2292z"/>
	<path d="M1273.0273,1226.5707c-4.3708-12.884-9.9955-25.2817-16.4258-37.2571c-5.6528-11.785-13.8359-23.1021-14.3873-36.618
		c0.0413-3.1887-0.7158-7.4607,2.7399-9.1979c1.0811,1.3849,2.1389,2.77,3.1593,4.1742
		c10.6475,16.9363,21.1877,33.9155,31.6116,50.9658c15.5549,24.772,31.1958,49.7583,50.9677,71.4547
		c13.7931,15.0051,30.0306,28.6826,49.5759,35.313c4.2144,1.5249,8.689,2.2015,12.8619,3.806
		c1.2327,1.038,1.007,2.7133,0.709,4.1088c-7.062,29.8196-2.8428,60.9188,4.0474,90.3521
		c9.6621,38.6503,23.9796,75.9139,38.3936,112.9758c-0.6855,0.2203-2.0425,0.6653-2.7141,0.8903
		c-29.2365-39.8573-57.0359-81.3152-92.6885-115.897c-15.5035-14.908-32.4244-28.7065-51.7268-38.4291
		c-1.7656-1.0244-3.8804-1.8593-4.7745-3.8674c-0.1963-2.4575,0.7582-4.821,1.3153-7.1815
		c3.4274-12.8683,4.6115-26.248,4.3889-39.5328C1289.5348,1283.2145,1282.807,1254.2148,1273.0273,1226.5707z M1306.2045,1345.196
		c2.7053,9.0398,8.3334,16.954,14.9894,23.5468c13.1746,13.5839,28.5758,24.8834,40.8688,39.3389
		c13.979,16.7054,26.2941,34.7045,38.6833,52.5953c2.7888,4.6445,5.5323,9.4763,9.7294,13.0162
		c0.4401-3.0048-0.2324-5.9823-1.0909-8.8416c-5.166-17.2539-11.6331-34.0677-17.825-50.9631
		c-9.0775-23.8253-17.8413-48.2092-20.0925-73.7882c-0.6558-6.3297-0.1104-12.6965-0.2521-19.0536
		c-25.6871-12.6287-46.3635-33.3832-63.2637-56.144c-7.2535-8.963-12.4841-19.3207-19.4447-28.4684
		c0.4832,6.981,2.6938,13.6681,4.4232,20.4011c4.7733,16.6444,11.0452,32.9828,13.4106,50.2206
		C1308.1432,1319.7584,1304.1027,1332.5287,1306.2045,1345.196z"/>
	<path d="M993.1087,466.1985c0.5834,3.9506,3.1219,7.3481,6.2478,9.7106c9.8174,7.7905,25.4776,4.9609,33.0944-4.6172
		c5.1892-6.0609,5.7725-14.8742,3.3278-22.2237c-1.2113-3.2373-2.5752-6.5034-4.696-9.2685
		c-4.7047-3.5095-10.903-1.8822-16.2246-1.1346c-7.4573,1.0964-15.8258,2.2526-21.2075,8.1004
		C990.3253,452.7005,992.0204,459.8618,993.1087,466.1985z"/>
	<path d="M513.0071,624.6683c3.9375,0.666,7.9531-0.6984,11.166-2.9413c10.443-6.9294,12.5912-22.6976,5.8356-32.9014
		c-4.1606-6.8082-12.3624-10.0864-20.1077-10.0324c-3.4531,0.1516-6.9808,0.4395-10.266,1.6021
		c-4.7916,3.3899-5.1593,9.7877-6.0927,15.08c-1.2617,7.431-2.7481,15.7473,1.1505,22.6727
		C499.3097,623.1444,506.6443,623.7451,513.0071,624.6683z"/>
	<path d="M515.3613,1130.2419c1.8501-3.5391,1.7935-7.7797,0.6532-11.5284c-3.3633-12.0731-17.6959-18.9889-29.4879-15.717
		c-7.7607,1.8533-13.4129,8.6406-15.755,16.0234c-0.9229,3.3309-1.7392,6.775-1.6487,10.2585
		c1.7433,5.6046,7.7144,7.9314,12.4591,10.4545c6.6775,3.4963,14.1274,7.4799,21.9185,5.9121
		C509.6793,1142.7981,512.5172,1136.0081,515.3613,1130.2419z"/>
	<path d="M996.9179,1284.2338c-2.7941-2.8531-6.8447-4.1097-10.7623-4.1837c-12.5215-0.5321-23.5278,10.9619-24.06,23.1879
		c-0.6357,7.9534,4.0728,15.4264,10.3706,19.9353c2.8827,1.9071,5.9059,3.7477,9.247,4.7382
		c5.869,0.074,9.927-4.8859,13.7929-8.6188c5.3885-5.2703,11.4793-11.1245,12.3959-19.0188
		C1007.1036,1293.5177,1001.5229,1288.7206,996.9179,1284.2338z"/>
	<path d="M1292.182,873.8323c-3.5769,1.7756-6.0237,5.2397-7.3046,8.9427c-4.3756,11.7443,3.1549,25.7637,14.6179,30.0479
		c7.3677,3.0623,15.9299,0.8936,22.1643-3.7026c2.7046-2.1523,5.3893-4.4588,7.3638-7.3303
		c1.8839-5.559-1.5792-10.951-3.9347-15.7812c-3.3472-6.7534-7.0327-14.3552-14.2574-17.6663
		C1304.1592,867.014,1297.8723,870.8392,1292.182,873.8323z"/>
	<path d="M1211.2238,624.6683c-3.9375,0.666-7.9531-0.6984-11.166-2.9413c-10.443-6.9294-12.5912-22.6976-5.8356-32.9014
		c4.1606-6.8082,12.3624-10.0864,20.1078-10.0324c3.4531,0.1516,6.9808,0.4395,10.266,1.6021
		c4.7915,3.3899,5.1592,9.7877,6.0927,15.08c1.2617,7.431,2.7482,15.7473-1.1505,22.6727
		C1224.9211,623.1444,1217.5865,623.7451,1211.2238,624.6683z"/>
	<path d="M731.1221,466.1985c-0.5834,3.9506-3.1219,7.3481-6.2478,9.7106c-9.8174,7.7905-25.4776,4.9609-33.0944-4.6172
		c-5.1892-6.0609-5.7725-14.8742-3.3278-22.2237c1.2112-3.2373,2.5752-6.5034,4.696-9.2685
		c4.7047-3.5095,10.903-1.8822,16.2246-1.1346c7.4573,1.0964,15.8259,2.2526,21.2075,8.1004
		C733.9056,452.7005,732.2104,459.8618,731.1221,466.1985z"/>
	<path d="M432.0488,873.8323c3.577,1.7756,6.0237,5.2397,7.3047,8.9427c4.3755,11.7443-3.1549,25.7637-14.6179,30.0479
		c-7.3678,3.0623-15.93,0.8936-22.1644-3.7026c-2.7046-2.1523-5.3893-4.4588-7.3637-7.3303
		c-1.884-5.559,1.5791-10.951,3.9346-15.7812c3.3472-6.7534,7.0327-14.3552,14.2574-17.6663
		C420.0717,867.014,426.3586,870.8392,432.0488,873.8323z"/>
	<path d="M727.3129,1284.2338c2.7941-2.8531,6.8447-4.1097,10.7623-4.1837c12.5216-0.5321,23.5278,10.9619,24.06,23.1879
		c0.6357,7.9534-4.0728,15.4264-10.3705,19.9353c-2.8828,1.9071-5.9059,3.7477-9.247,4.7382
		c-5.869,0.074-9.927-4.8859-13.7929-8.6188c-5.3886-5.2703-11.4794-11.1245-12.3959-19.0188
		C717.1272,1293.5177,722.7079,1288.7206,727.3129,1284.2338z"/>
	<path d="M1208.8695,1130.2419c-1.8501-3.5391-1.7935-7.7797-0.6532-11.5284c3.3633-12.0731,17.6959-18.9889,29.4879-15.717
		c7.7606,1.8533,13.4128,8.6406,15.755,16.0234c0.9229,3.3309,1.7391,6.775,1.6487,10.2585
		c-1.7433,5.6046-7.7144,7.9314-12.4591,10.4545c-6.6775,3.4963-14.1274,7.4799-21.9186,5.9121
		C1214.5515,1142.7981,1211.7137,1136.0081,1208.8695,1130.2419z"/>
	<path d="M981.8098,914.726c-6.9133-14.9603-19.5517-27.3481-35.1245-32.988c-16.932-6.0145-35.8279-5.3147-52.7168,0.4984
		c-1.6957,0.7386-3.3766,1.5107-5.0455,2.3088c0.881,1.6267,1.7871,3.2393,2.7248,4.8336
		c10.2466,14.63,25.1224,26.3028,42.3558,31.3894C949.9173,925.3589,967.4233,922.7656,981.8098,914.726z M903.77,889.3693
		c10.3589-2.6153,21.3869-2.5231,31.5086,1.0433c9.3378,2.6921,17.5298,8.4083,24.3278,15.2337
		c0.8326,0.8504,1.6349,1.7335,2.4036,2.6463c-1.1584,0.2866-2.3265,0.5295-3.5,0.7281
		c-9.5115,1.5262-19.4988,1.3355-28.6357-1.9752C919.5893,903.9814,910.6133,897.574,903.77,889.3693z"/>
	<path d="M862.1154,1001.689c12.0917-11.1979,19.9678-27.0458,20.5194-43.5992c0.4878-17.9619-6.0168-35.7167-16.7644-49.9827
		c-1.2264-1.3845-2.4802-2.7445-3.755-4.0851c-1.2748,1.3406-2.5285,2.7007-3.755,4.0851
		c-10.7476,14.266-17.2522,32.0208-16.7644,49.9827C842.1476,974.6432,850.0237,990.4911,862.1154,1001.689z M862.1154,919.6331
		c5.6884,9.0438,9.0085,19.5605,8.7444,30.2888c0.3253,9.7128-2.5797,19.2703-6.9704,27.8446
		c-0.5515,1.0547-1.1434,2.0906-1.774,3.1037c-0.6306-1.0131-1.2225-2.049-1.774-3.1037
		c-4.3907-8.5743-7.2957-18.1318-6.9705-27.8446C853.1069,939.1936,856.4271,928.6769,862.1154,919.6331z"/>
	<path d="M742.4211,914.726c14.3864,8.0396,31.8925,10.6329,47.8062,6.0422c17.2335-5.0866,32.1093-16.7594,42.3558-31.3894
		c0.9377-1.5942,1.8438-3.2068,2.7249-4.8336c-1.6689-0.7982-3.3499-1.5703-5.0455-2.3088
		c-16.889-5.8131-35.7849-6.5129-52.7169-0.4984C761.9728,887.3779,749.3344,899.7657,742.4211,914.726z M820.4609,889.3693
		c-6.8433,8.2047-15.8193,14.6121-26.1042,17.6762c-9.1369,3.3107-19.1243,3.5014-28.6357,1.9752
		c-1.1735-0.1986-2.3416-0.4415-3.5-0.7281c0.7687-0.9128,1.5709-1.7959,2.4036-2.6463
		c6.7979-6.8254,14.9899-12.5416,24.3278-15.2337C799.074,886.8463,810.1019,886.754,820.4609,889.3693z"/>
	<path d="M788.1403,774.0169c-3.2004,16.1666-0.2571,33.6172,9.0264,47.3335c10.1631,14.8182,25.8615,25.3588,42.9418,30.5829
		c1.806,0.3992,3.6197,0.7626,5.439,1.0978c0.2433-1.8339,0.4583-3.6711,0.6367-5.5121
		c0.3096-17.8587-4.8641-36.046-15.8164-50.2907C820.1917,784.1606,804.5046,775.9688,788.1403,774.0169z M836.3715,840.4015
		c-9.9178-3.973-18.7855-10.5297-24.8777-19.3643c-5.9721-7.6666-9.2397-17.1063-10.7274-26.6238
		c-0.1738-1.1774-0.3038-2.3634-0.3891-3.5537c1.1057,0.449,2.1934,0.9391,3.2595,1.4682
		c8.592,4.356,16.5599,10.3807,22.0058,18.4296C832.1622,819.2816,835.6577,829.7414,836.3715,840.4015z"/>
	<path d="M936.0906,774.0169c-16.3644,1.9519-32.0514,10.1437-42.2275,23.2115c-10.9523,14.2448-16.126,32.432-15.8163,50.2907
		c0.1784,1.8409,0.3933,3.6782,0.6367,5.5121c1.8193-0.3353,3.6331-0.6987,5.439-1.0978
		c17.0803-5.2242,32.7787-15.7648,42.9418-30.5829C936.3478,807.6342,939.291,790.1835,936.0906,774.0169z M887.8594,840.4015
		c0.7138-10.6601,4.2093-21.1199,10.7289-29.644c5.4459-8.049,13.4138-14.0736,22.0059-18.4296
		c1.066-0.5291,2.1538-1.0192,3.2595-1.4682c-0.0854,1.1903-0.2153,2.3763-0.3891,3.5537
		c-1.4877,9.5176-4.7553,18.9572-10.7275,26.6238C906.6448,829.8718,897.7771,836.4285,887.8594,840.4015z"/>
	<path d="M977.9145,716.4512c-0.1786,0.0315-0.3577,0.0682-0.5369,0.1102c-3.9919,0.5898-7.653,3.2017-9.6729,6.6863
		c-0.7928,2.4529-0.7526,4.9998-0.1317,7.4373c2.5101-0.1627,4.9447-0.9114,7.0326-2.4234c2.6898-2.9979,4.0425-7.2869,3.37-11.2657
		C977.9601,716.8124,977.9398,716.6309,977.9145,716.4512z"/>
	<path d="M1049.4823,936.7141c-0.0852-0.1602-0.1754-0.3191-0.2708-0.4766c-1.7946-3.6142-5.4099-6.289-9.3481-7.1333
		c-2.5778,0.004-4.9877,0.8293-7.1139,2.1731c0.9303,2.3369,2.3949,4.421,4.4779,5.9395c3.6824,1.6318,8.1796,1.5929,11.7557-0.2762
		C1049.1528,936.8692,1049.3192,936.7936,1049.4823,936.7141z"/>
	<path d="M862.1154,1072.8441c0.126-0.1305,0.2493-0.2654,0.3696-0.4047c2.8828-2.8236,4.3095-7.0886,3.8954-11.095
		c-0.8004-2.4504-2.33-4.4873-4.265-6.0942c-1.9351,1.6069-3.4646,3.6438-4.265,6.0942c-0.414,4.0063,1.0126,8.2714,3.8954,11.095
		C861.8661,1072.5787,861.9894,1072.7136,862.1154,1072.8441z"/>
	<path d="M674.7486,936.7141c0.1631,0.0795,0.3294,0.1551,0.4991,0.2264c3.5762,1.8691,8.0734,1.9081,11.7557,0.2762
		c2.0831-1.5184,3.5477-3.6025,4.478-5.9395c-2.1263-1.3438-4.5361-2.1691-7.114-2.1731c-3.9382,0.8443-7.5536,3.5191-9.3481,7.1333
		C674.924,936.395,674.8338,936.554,674.7486,936.7141z"/>
	<path d="M746.3163,716.4512c-0.0252,0.1796-0.0457,0.3612-0.0611,0.5446c-0.6725,3.9788,0.6801,8.2678,3.3699,11.2657
		c2.0879,1.512,4.5226,2.2607,7.0326,2.4234c0.6209-2.4374,0.6611-4.9844-0.1316-7.4373c-2.02-3.4846-5.6811-6.0964-9.673-6.6863
		C746.674,716.5194,746.4951,716.4827,746.3163,716.4512z"/>
	<path d="M953.5989,686.7771c-4.5081,0.6717-8.2419,3.5596-11.2484,6.83c0.7375,6.9955,3.6431,14.3143,9.7066,18.3177
		c4.7985,2.9655,12.4462,3.8075,15.906-1.5455c4.3345-4.5074,4.1574-11.3058,1.6985-16.6738
		C966.3735,688.4476,959.7213,685.4052,953.5989,686.7771z"/>
	<path d="M710.5807,730.4069c-0.7543,4.495,0.8385,8.9385,3.0197,12.8083c6.8811,1.4603,14.7394,0.9586,20.4207-3.571
		c4.3032-3.6472,7.4673-10.6605,3.4454-15.6051c-2.9473-5.5153-9.4678-7.4476-15.3329-6.7679
		C716.1169,718.7737,711.1678,724.1602,710.5807,730.4069z"/>
	<path d="M676.9783,975.0133c4.0419,2.1064,8.7601,1.9647,13.1146,1.0861c3.5151-6.0931,5.4664-13.7219,2.9141-20.5248
		c-2.1389-5.2196-7.8312-10.3961-13.7767-8.099c-6.1561,1.0988-10.0087,6.7029-11.1747,12.4911
		C667.6254,966.1532,671.2188,972.5247,676.9783,975.0133z"/>
	<path d="M899.2291,1082.5586c3.2524-3.1931,4.5756-7.7242,5.0856-12.1371c-4.7086-5.226-11.361-9.4392-18.6197-9.114
		c-5.6251,0.4214-12.3073,4.2354-11.9598,10.5997c-0.8574,6.1943,3.2819,11.5902,8.4265,14.4877
		C887.9124,1088.7159,895.0825,1087.2672,899.2291,1082.5586z"/>
	<path d="M1070.1901,904.4188c-2.0319-4.0799-5.9323-6.7385-9.9716-8.5872c-6.4253,2.8632-12.4879,7.8881-14.4218,14.892
		c-1.3375,5.48,0.225,13.0137,6.3851,14.65c5.6262,2.7296,12.0371,0.4603,16.3826-3.5371
		C1072.549,917.0844,1073.3868,909.8176,1070.1901,904.4188z"/>
	<path d="M1013.6501,730.4069c0.7543,4.495-0.8385,8.9385-3.0197,12.8083c-6.881,1.4603-14.7394,0.9586-20.4207-3.571
		c-4.3032-3.6472-7.4672-10.6605-3.4453-15.6051c2.9473-5.5153,9.4677-7.4476,15.3329-6.7679
		C1008.114,718.7737,1013.0631,724.1602,1013.6501,730.4069z"/>
	<path d="M770.632,686.7771c4.5081,0.6717,8.2419,3.5596,11.2483,6.83c-0.7375,6.9955-3.6431,14.3143-9.7065,18.3177
		c-4.7985,2.9655-12.4463,3.8075-15.9061-1.5455c-4.3345-4.5074-4.1573-11.3058-1.6985-16.6738
		C757.8574,688.4476,764.5096,685.4052,770.632,686.7771z"/>
	<path d="M654.0408,904.4188c2.0319-4.0799,5.9323-6.7385,9.9716-8.5872c6.4252,2.8632,12.4879,7.8881,14.4218,14.892
		c1.3375,5.48-0.225,13.0137-6.3851,14.65c-5.6262,2.7296-12.0371,0.4603-16.3826-3.5371
		C651.6819,917.0844,650.8441,909.8176,654.0408,904.4188z"/>
	<path d="M825.0017,1082.5586c-3.2523-3.1931-4.5756-7.7242-5.0856-12.1371c4.7086-5.226,11.361-9.4392,18.6197-9.114
		c5.6251,0.4214,12.3073,4.2354,11.9598,10.5997c0.8574,6.1943-3.282,11.5902-8.4265,14.4877
		C836.3184,1088.7159,829.1484,1087.2672,825.0017,1082.5586z"/>
	<path d="M1047.2526,975.0133c-4.042,2.1064-8.7601,1.9647-13.1146,1.0861c-3.5151-6.0931-5.4664-13.7219-2.9142-20.5248
		c2.139-5.2196,7.8313-10.3961,13.7767-8.099c6.1561,1.0988,10.0088,6.7029,11.1747,12.4911
		C1056.6055,966.1532,1053.0121,972.5247,1047.2526,975.0133z"/>
</g>
</svg>
